BoldItalic.ufo
<glyph name="quotedbl" format="1">
  <advance width="518"/>
  <unicode hex="0022"/>
  <outline>
    <contour>
      <point x="228" y="700" type="line"/>
      <point x="389" y="700" type="line"/>
      <point x="227" y="381" type="line"/>
      <point x="128" y="381" type="line"/>
    </contour>
    <contour>
      <point x="439" y="700" type="line"/>
      <point x="600" y="700" type="line"/>
      <point x="439" y="381" type="line"/>
      <point x="339" y="381" type="line"/>
    </contour>
  </outline>
</glyph>
<glyph name="numbersign" format="1">
  <advance width="667"/>
  <unicode hex="0023"/>
  <outline>
    <contour>
      <point x="148" y="412" type="line"/>
      <point x="169" y="533" type="line"/>
      <point x="726" y="533" type="line"/>
      <point x="705" y="412" type="line"/>
      <point x="551" y="412" type="line" smooth="yes"/>
      <point x="522" y="418" type="line" smooth="yes"/>
      <point x="318" y="418" type="line" smooth="yes"/>
      <point x="291" y="412" type="line" smooth="yes"/>
    </contour>
    <contour>
      <point x="65" y="172" type="line"/>
      <point x="87" y="293" type="line"/>
      <point x="228" y="293" type="line" smooth="yes"/>
      <point x="259" y="287" type="line" smooth="yes"/>
      <point x="489" y="287" type="line" smooth="yes"/>
      <point x="520" y="293" type="line" smooth="yes"/>
      <point x="644" y="293" type="line"/>
      <point x="622" y="172" type="line"/>
    </contour>
    <contour>
      <point x="597" y="700" type="line"/>
      <point x="728" y="700" type="line"/>
      <point x="435" y="0" type="line"/>
      <point x="304" y="0" type="line"/>
      <point x="397" y="224" type="line" smooth="yes"/>
      <point x="414" y="250" type="line" smooth="yes"/>
      <point x="500" y="456" type="line" smooth="yes"/>
      <point x="508" y="487" type="line" smooth="yes"/>
    </contour>
    <contour>
      <point x="355" y="700" type="line"/>
      <point x="487" y="700" type="line"/>
      <point x="398" y="488" type="line" smooth="yes"/>
      <point x="378" y="456" type="line" smooth="yes"/>
      <point x="292" y="252" type="line" smooth="yes"/>
      <point x="288" y="226" type="line" smooth="yes"/>
      <point x="194" y="0" type="line"/>
      <point x="62" y="0" type="line"/>
    </contour>
  </outline>
</glyph>
<glyph name="ampersand" format="1">
  <advance width="752"/>
  <unicode hex="0026"/>
  <outline>
    <contour>
      <point x="73" y="188" type="curve"/>
      <point x="233" y="201" type="line"/>
      <point x="225" y="153"/>
      <point x="256" y="114"/>
      <point x="324" y="114" type="curve" smooth="yes"/>
      <point x="438" y="114"/>
      <point x="566" y="217"/>
      <point x="668" y="341" type="curve"/>
      <point x="756" y="264" type="line"/>
      <point x="646" y="136"/>
      <point x="480" y="-13"/>
      <point x="282" y="-13" type="curve" smooth="yes"/>
      <point x="148" y="-13"/>
      <point x="51" y="62"/>
    </contour>
    <contour>
      <point x="222" y="544" type="line"/>
      <point x="238" y="632"/>
      <point x="335" y="718"/>
      <point x="469" y="718" type="curve" smooth="yes"/>
      <point x="599" y="718"/>
      <point x="656" y="632"/>
      <point x="641" y="548" type="curve"/>
      <point x="500" y="534" type="line"/>
      <point x="506" y="566"/>
      <point x="485" y="596"/>
      <point x="445" y="596" type="curve" smooth="yes"/>
      <point x="399" y="596"/>
      <point x="373" y="566"/>
      <point x="367" y="534" type="curve"/>
    </contour>
    <contour>
      <point x="289" y="372" type="line" smooth="yes"/>
      <point x="255" y="426"/>
      <point x="210" y="474"/>
      <point x="222" y="544" type="curve"/>
      <point x="367" y="534" type="line"/>
      <point x="360" y="494"/>
      <point x="398" y="462"/>
      <point x="437" y="400" type="curve" smooth="yes"/>
      <point x="736" y="0" type="line"/>
      <point x="562" y="0" type="line"/>
    </contour>
    <contour>
      <point x="641" y="548" type="line"/>
      <point x="625" y="456"/>
      <point x="558" y="418"/>
      <point x="433" y="344" type="curve" smooth="yes"/>
      <point x="354" y="298"/>
      <point x="247" y="282"/>
      <point x="233" y="201" type="curve"/>
      <point x="73" y="188" type="line"/>
      <point x="101" y="348"/>
      <point x="290" y="387"/>
      <point x="366" y="420" type="curve" smooth="yes"/>
      <point x="447" y="456"/>
      <point x="494" y="498"/>
      <point x="500" y="534" type="curve"/>
    </contour>
  </outline>
</glyph>
<glyph name="asterisk" format="1">
  <advance width="592"/>
  <unicode hex="002A"/>
  <outline>
    <contour>
      <point x="605" y="604" type="line"/>
      <point x="625" y="472" type="line"/>
      <point x="383" y="428" type="line"/>
      <point x="372" y="500" type="line"/>
    </contour>
    <contour>
      <point x="547" y="315" type="line"/>
      <point x="419" y="234" type="line"/>
      <point x="344" y="442" type="line"/>
      <point x="412" y="486" type="line"/>
    </contour>
    <contour>
      <point x="255" y="234" type="line"/>
      <point x="157" y="315" type="line"/>
      <point x="352" y="486" type="line"/>
      <point x="404" y="442" type="line"/>
    </contour>
    <contour>
      <point x="133" y="472" type="line"/>
      <point x="201" y="604" type="line"/>
      <point x="396" y="500" type="line"/>
      <point x="359" y="428" type="line"/>
    </contour>
    <contour>
      <point x="349" y="700" type="line"/>
      <point x="489" y="700" type="line"/>
      <point x="416" y="464" type="line"/>
      <point x="340" y="464" type="line"/>
    </contour>
  </outline>
</glyph>
<glyph name="period" format="1">
  <advance width="322"/>
  <unicode hex="002E"/>
  <outline>
    <contour>
      <point x="79" y="68" type="curve" smooth="yes"/>
      <point x="88" y="118"/>
      <point x="134" y="160"/>
      <point x="189" y="160" type="curve" smooth="yes"/>
      <point x="244" y="160"/>
      <point x="277" y="118"/>
      <point x="268" y="68" type="curve" smooth="yes"/>
      <point x="259" y="18"/>
      <point x="212" y="-24"/>
      <point x="157" y="-24" type="curve" smooth="yes"/>
      <point x="102" y="-24"/>
      <point x="70" y="18"/>
    </contour>
  </outline>
</glyph>
<glyph name="slash" format="1">
  <advance width="608"/>
  <unicode hex="002F"/>
  <outline>
    <contour>
      <point x="571" y="700" type="line"/>
      <point x="717" y="700" type="line"/>
      <point x="141" y="-150" type="line"/>
      <point x="-11" y="-150" type="line"/>
    </contour>
  </outline>
</glyph>
<glyph name="zero" format="1">
  <advance width="662"/>
  <unicode hex="0030"/>
  <outline>
    <contour>
      <point x="265" y="350" type="curve" smooth="yes"/>
      <point x="242" y="218"/>
      <point x="277" y="132"/>
      <point x="354" y="132" type="curve" smooth="yes"/>
      <point x="431" y="132"/>
      <point x="499" y="218"/>
      <point x="522" y="350" type="curve" smooth="yes"/>
      <point x="545" y="482"/>
      <point x="508" y="568"/>
      <point x="431" y="568" type="curve" smooth="yes"/>
      <point x="354" y="568"/>
      <point x="288" y="482"/>
    </contour>
    <contour>
      <point x="102" y="350" type="curve" smooth="yes"/>
      <point x="142" y="578"/>
      <point x="284" y="713"/>
      <point x="457" y="713" type="curve" smooth="yes"/>
      <point x="636" y="713"/>
      <point x="724" y="578"/>
      <point x="684" y="350" type="curve" smooth="yes"/>
      <point x="644" y="122"/>
      <point x="508" y="-13"/>
      <point x="329" y="-13" type="curve" smooth="yes"/>
      <point x="156" y="-13"/>
      <point x="62" y="122"/>
    </contour>
  </outline>
</glyph>
<glyph name="one" format="1">
  <advance width="509"/>
  <unicode hex="0031"/>
  <outline>
    <contour>
      <point x="156" y="498" type="line"/>
      <point x="182" y="645" type="line"/>
      <point x="530" y="713" type="line"/>
      <point x="404" y="0" type="line"/>
      <point x="242" y="0" type="line"/>
      <point x="337" y="540" type="line"/>
    </contour>
  </outline>
</glyph>
<glyph name="two" format="1">
  <advance width="656"/>
  <unicode hex="0032"/>
  <outline>
    <contour>
      <point x="20" y="0" type="line"/>
      <point x="389" y="323" type="line" smooth="yes"/>
      <point x="456" y="383"/>
      <point x="497" y="424"/>
      <point x="507" y="480" type="curve" smooth="yes"/>
      <point x="515" y="524"/>
      <point x="494" y="568"/>
      <point x="430" y="568" type="curve" smooth="yes"/>
      <point x="365" y="568"/>
      <point x="311" y="516"/>
      <point x="298" y="441" type="curve"/>
      <point x="132" y="441" type="line"/>
      <point x="158" y="590"/>
      <point x="278" y="714"/>
      <point x="460" y="714" type="curve" smooth="yes"/>
      <point x="634" y="714"/>
      <point x="703" y="598"/>
      <point x="684" y="488" type="curve" smooth="yes"/>
      <point x="671" y="413"/>
      <point x="618" y="352"/>
      <point x="549" y="300" type="curve" smooth="yes"/>
      <point x="361" y="155" type="line"/>
      <point x="641" y="155" type="line"/>
      <point x="614" y="0" type="line"/>
    </contour>
  </outline>
</glyph>
<glyph name="three" format="1">
  <advance width="621"/>
  <unicode hex="0033"/>
  <outline>
    <contour>
      <point x="335" y="338" type="curve"/>
      <point x="348" y="415" type="line"/>
      <point x="426" y="415"/>
      <point x="485" y="458"/>
      <point x="494" y="508" type="curve" smooth="yes"/>
      <point x="501" y="549"/>
      <point x="480" y="578"/>
      <point x="427" y="578" type="curve" smooth="yes"/>
      <point x="375" y="578"/>
      <point x="329" y="543"/>
      <point x="321" y="495" type="curve"/>
      <point x="165" y="495" type="line"/>
      <point x="187" y="619"/>
      <point x="301" y="713"/>
      <point x="451" y="713" type="curve" smooth="yes"/>
      <point x="609" y="713"/>
      <point x="683" y="627"/>
      <point x="664" y="519" type="curve" smooth="yes"/>
      <point x="643" y="398"/>
      <point x="501" y="338"/>
    </contour>
    <contour>
      <point x="315" y="-16" type="curve" smooth="yes"/>
      <point x="145" y="-16"/>
      <point x="65" y="98"/>
      <point x="87" y="222" type="curve"/>
      <point x="254" y="222" type="line"/>
      <point x="242" y="153"/>
      <point x="287" y="120"/>
      <point x="345" y="120" type="curve" smooth="yes"/>
      <point x="403" y="120"/>
      <point x="450" y="148"/>
      <point x="461" y="208" type="curve" smooth="yes"/>
      <point x="471" y="266"/>
      <point x="431" y="306"/>
      <point x="329" y="306" type="curve"/>
      <point x="344" y="392" type="line"/>
      <point x="529" y="392"/>
      <point x="651" y="334"/>
      <point x="626" y="192" type="curve" smooth="yes"/>
      <point x="604" y="70"/>
      <point x="487" y="-16"/>
    </contour>
  </outline>
</glyph>
<glyph name="five" format="1">
  <advance width="645"/>
  <unicode hex="0035"/>
  <outline>
    <contour>
      <point x="644" y="224" type="curve" smooth="yes"/>
      <point x="615" y="58"/>
      <point x="455" y="-13"/>
      <point x="320" y="-13" type="curve" smooth="yes"/>
      <point x="191" y="-13"/>
      <point x="112" y="29"/>
      <point x="56" y="78" type="curve"/>
      <point x="146" y="217" type="line"/>
      <point x="194" y="169"/>
      <point x="259" y="142"/>
      <point x="311" y="142" type="curve" smooth="yes"/>
      <point x="395" y="142"/>
      <point x="451" y="174"/>
      <point x="463" y="242" type="curve" smooth="yes"/>
      <point x="475" y="310"/>
      <point x="414" y="340"/>
      <point x="346" y="340" type="curve" smooth="yes"/>
      <point x="292" y="340"/>
      <point x="217" y="332"/>
      <point x="140" y="296" type="curve"/>
      <point x="273" y="380" type="line"/>
      <point x="335" y="436"/>
      <point x="400" y="453"/>
      <point x="472" y="453" type="curve" smooth="yes"/>
      <point x="582" y="453"/>
      <point x="670" y="370"/>
    </contour>
    <contour>
      <point x="408" y="553" type="line"/>
      <point x="319" y="380" type="line"/>
      <point x="140" y="296" type="line"/>
      <point x="309" y="700" type="line"/>
      <point x="714" y="700" type="line"/>
      <point x="689" y="553" type="line"/>
    </contour>
  </outline>
</glyph>
<glyph name="six" format="1">
  <advance width="669"/>
  <unicode hex="0036"/>
  <outline>
    <contour>
      <point x="261" y="246" type="curve" smooth="yes"/>
      <point x="248" y="175"/>
      <point x="291" y="128"/>
      <point x="358" y="128" type="curve" smooth="yes"/>
      <point x="425" y="128"/>
      <point x="482" y="175"/>
      <point x="495" y="246" type="curve" smooth="yes"/>
      <point x="508" y="317"/>
      <point x="466" y="365"/>
      <point x="399" y="365" type="curve" smooth="yes"/>
      <point x="332" y="365"/>
      <point x="274" y="317"/>
    </contour>
    <contour>
      <point x="456" y="697" type="line"/>
      <point x="671" y="697" type="line"/>
      <point x="399" y="444" type="line"/>
      <point x="362" y="429" type="line"/>
      <point x="406" y="465"/>
      <point x="438" y="474"/>
      <point x="488" y="474" type="curve" smooth="yes"/>
      <point x="592" y="474"/>
      <point x="688" y="388"/>
      <point x="663" y="246" type="curve" smooth="yes"/>
      <point x="633" y="74"/>
      <point x="489" y="-16"/>
      <point x="332" y="-16" type="curve" smooth="yes"/>
      <point x="175" y="-16"/>
      <point x="63" y="74"/>
      <point x="93" y="246" type="curve" smooth="yes"/>
      <point x="106" y="322"/>
      <point x="154" y="384"/>
      <point x="210" y="440" type="curve" smooth="yes"/>
    </contour>
  </outline>
</glyph>
<glyph name="seven" format="1">
  <advance width="603"/>
  <unicode hex="0037"/>
  <outline>
    <contour>
      <point x="126" y="542" type="line"/>
      <point x="153" y="700" type="line"/>
      <point x="724" y="700" type="line"/>
      <point x="263" y="0" type="line"/>
      <point x="80" y="0" type="line"/>
      <point x="449" y="542" type="line"/>
    </contour>
  </outline>
</glyph>
<glyph name="eight" format="1">
  <advance width="627"/>
  <unicode hex="0038"/>
  <outline>
    <contour>
      <point x="171" y="531" type="curve" smooth="yes"/>
      <point x="192" y="649"/>
      <point x="311" y="716"/>
      <point x="440" y="716" type="curve" smooth="yes"/>
      <point x="569" y="716"/>
      <point x="665" y="649"/>
      <point x="644" y="531" type="curve" smooth="yes"/>
      <point x="621" y="403"/>
      <point x="489" y="342"/>
      <point x="374" y="342" type="curve" smooth="yes"/>
      <point x="259" y="342"/>
      <point x="148" y="403"/>
    </contour>
    <contour>
      <point x="327" y="514" type="curve" smooth="yes"/>
      <point x="319" y="467"/>
      <point x="347" y="435"/>
      <point x="391" y="435" type="curve" smooth="yes"/>
      <point x="435" y="435"/>
      <point x="475" y="467"/>
      <point x="483" y="514" type="curve" smooth="yes"/>
      <point x="491" y="561"/>
      <point x="465" y="594"/>
      <point x="419" y="594" type="curve" smooth="yes"/>
      <point x="373" y="594"/>
      <point x="335" y="561"/>
    </contour>
    <contour>
      <point x="86" y="190" type="curve" smooth="yes"/>
      <point x="112" y="338"/>
      <point x="269" y="396"/>
      <point x="384" y="396" type="curve" smooth="yes"/>
      <point x="499" y="396"/>
      <point x="636" y="338"/>
      <point x="610" y="190" type="curve" smooth="yes"/>
      <point x="587" y="62"/>
      <point x="449" y="-16"/>
      <point x="311" y="-16" type="curve" smooth="yes"/>
      <point x="173" y="-16"/>
      <point x="63" y="62"/>
    </contour>
    <contour>
      <point x="258" y="216" type="curve" smooth="yes"/>
      <point x="247" y="155"/>
      <point x="285" y="122"/>
      <point x="336" y="122" type="curve" smooth="yes"/>
      <point x="387" y="122"/>
      <point x="434" y="155"/>
      <point x="445" y="216" type="curve" smooth="yes"/>
      <point x="454" y="267"/>
      <point x="419" y="307"/>
      <point x="368" y="307" type="curve" smooth="yes"/>
      <point x="317" y="307"/>
      <point x="267" y="267"/>
    </contour>
  </outline>
</glyph>
<glyph name="nine" format="1">
  <advance width="669"/>
  <unicode hex="0039"/>
  <outline>
    <contour>
      <point x="532" y="454" type="curve" smooth="yes"/>
      <point x="545" y="525"/>
      <point x="503" y="572"/>
      <point x="436" y="572" type="curve" smooth="yes"/>
      <point x="369" y="572"/>
      <point x="311" y="525"/>
      <point x="298" y="454" type="curve" smooth="yes"/>
      <point x="285" y="383"/>
      <point x="327" y="335"/>
      <point x="394" y="335" type="curve" smooth="yes"/>
      <point x="461" y="335"/>
      <point x="519" y="383"/>
    </contour>
    <contour>
      <point x="337" y="3" type="line"/>
      <point x="123" y="3" type="line"/>
      <point x="393" y="256" type="line"/>
      <point x="432" y="271" type="line"/>
      <point x="388" y="235"/>
      <point x="356" y="226"/>
      <point x="306" y="226" type="curve" smooth="yes"/>
      <point x="202" y="226"/>
      <point x="105" y="312"/>
      <point x="130" y="454" type="curve" smooth="yes"/>
      <point x="160" y="626"/>
      <point x="304" y="716"/>
      <point x="461" y="716" type="curve" smooth="yes"/>
      <point x="618" y="716"/>
      <point x="730" y="626"/>
      <point x="700" y="454" type="curve" smooth="yes"/>
      <point x="687" y="378"/>
      <point x="640" y="316"/>
      <point x="584" y="260" type="curve" smooth="yes"/>
    </contour>
  </outline>
</glyph>
<glyph name="semicolon" format="1">
  <advance width="393"/>
  <unicode hex="003B"/>
  <outline>
    <contour>
      <point x="195" y="436" type="curve" smooth="yes"/>
      <point x="204" y="486"/>
      <point x="251" y="528"/>
      <point x="306" y="528" type="curve" smooth="yes"/>
      <point x="361" y="528"/>
      <point x="394" y="486"/>
      <point x="385" y="436" type="curve" smooth="yes"/>
      <point x="376" y="386"/>
      <point x="328" y="343"/>
      <point x="273" y="343" type="curve" smooth="yes"/>
      <point x="218" y="343"/>
      <point x="186" y="386"/>
    </contour>
    <contour>
      <point x="161" y="110" type="line"/>
      <point x="308" y="78" type="line"/>
      <point x="138" y="-172" type="line"/>
      <point x="28" y="-149" type="line"/>
    </contour>
  </outline>
</glyph>
<glyph name="less" format="1">
  <advance width="640"/>
  <unicode hex="003C"/>
  <outline>
    <contour>
      <point x="327" y="268" type="line"/>
      <point x="601" y="148" type="line"/>
      <point x="575" y="0" type="line"/>
      <point x="103" y="213" type="line"/>
      <point x="120" y="314" type="line"/>
      <point x="668" y="528" type="line"/>
      <point x="642" y="380" type="line"/>
    </contour>
  </outline>
</glyph>
<glyph name="equal" format="1">
  <advance width="626"/>
  <unicode hex="003D"/>
  <outline>
    <contour>
      <point x="71" y="84" type="line"/>
      <point x="94" y="215" type="line"/>
      <point x="608" y="215" type="line"/>
      <point x="585" y="84" type="line"/>
    </contour>
    <contour>
      <point x="107" y="290" type="line"/>
      <point x="130" y="422" type="line"/>
      <point x="644" y="422" type="line"/>
      <point x="621" y="290" type="line"/>
    </contour>
  </outline>
</glyph>
<glyph name="greater" format="1">
  <advance width="640"/>
  <unicode hex="003E"/>
  <outline>
    <contour>
      <point x="406" y="260" type="line"/>
      <point x="132" y="380" type="line"/>
      <point x="158" y="528" type="line"/>
      <point x="630" y="314" type="line"/>
      <point x="613" y="213" type="line"/>
      <point x="65" y="0" type="line"/>
      <point x="91" y="148" type="line"/>
    </contour>
  </outline>
</glyph>
<glyph name="question" format="1">
  <advance width="627"/>
  <unicode hex="003F"/>
  <outline>
    <contour>
      <point x="210" y="59" type="curve" smooth="yes"/>
      <point x="218" y="103"/>
      <point x="264" y="142"/>
      <point x="319" y="142" type="curve" smooth="yes"/>
      <point x="374" y="142"/>
      <point x="406" y="103"/>
      <point x="398" y="59" type="curve" smooth="yes"/>
      <point x="390" y="15"/>
      <point x="345" y="-24"/>
      <point x="290" y="-24" type="curve" smooth="yes"/>
      <point x="235" y="-24"/>
      <point x="202" y="15"/>
    </contour>
    <contour>
      <point x="279" y="380" type="line"/>
      <point x="431" y="380" type="line"/>
      <point x="389" y="201" type="line"/>
      <point x="267" y="201" type="line"/>
    </contour>
    <contour>
      <point x="508" y="500" type="curve" smooth="yes"/>
      <point x="518" y="558"/>
      <point x="483" y="592"/>
      <point x="412" y="592" type="curve" smooth="yes"/>
      <point x="352" y="592"/>
      <point x="287" y="560"/>
      <point x="239" y="504" type="curve"/>
      <point x="152" y="590" type="line"/>
      <point x="237" y="672"/>
      <point x="326" y="720"/>
      <point x="445" y="720" type="curve" smooth="yes"/>
      <point x="577" y="720"/>
      <point x="686" y="638"/>
      <point x="662" y="500" type="curve" smooth="yes"/>
      <point x="636" y="350"/>
      <point x="458" y="278"/>
      <point x="343" y="278" type="curve"/>
      <point x="311" y="380" type="line"/>
      <point x="431" y="380"/>
      <point x="499" y="449"/>
    </contour>
  </outline>
</glyph>
<glyph name="J" format="1">
  <advance width="330"/>
  <unicode hex="004A"/>
  <outline>
    <contour>
      <point x="-82" y="-58" type="line"/>
      <point x="-65" y="-76"/>
      <point x="-37" y="-91"/>
      <point x="-7" y="-91" type="curve" smooth="yes"/>
      <point x="23" y="-91"/>
      <point x="61" y="-70"/>
      <point x="72" y="-10" type="curve" smooth="yes"/>
      <point x="197" y="700" type="line"/>
      <point x="380" y="700" type="line"/>
      <point x="247" y="-54" type="line" smooth="yes"/>
      <point x="223" y="-188"/>
      <point x="109" y="-239"/>
      <point x="-16" y="-239" type="curve" smooth="yes"/>
      <point x="-94" y="-239"/>
      <point x="-161" y="-208"/>
      <point x="-196" y="-182" type="curve"/>
    </contour>
  </outline>
</glyph>
<glyph name="N" format="1">
  <advance width="793"/>
  <unicode hex="004E"/>
  <outline>
    <contour>
      <point x="170" y="524" type="line"/>
      <point x="204" y="735" type="line"/>
      <point x="746" y="176" type="line"/>
      <point x="714" y="-35" type="line"/>
    </contour>
    <contour>
      <point x="680" y="700" type="line"/>
      <point x="843" y="700" type="line"/>
      <point x="714" y="-35" type="line"/>
      <point x="583" y="150" type="line"/>
    </contour>
    <contour>
      <point x="204" y="735" type="line"/>
      <point x="334" y="550" type="line"/>
      <point x="237" y="0" type="line"/>
      <point x="74" y="0" type="line"/>
    </contour>
  </outline>
</glyph>
<glyph name="P" format="1">
  <advance width="623"/>
  <unicode hex="0050"/>
  <outline>
    <contour>
      <point x="197" y="700" type="line"/>
      <point x="366" y="700" type="line"/>
      <point x="243" y="0" type="line"/>
      <point x="74" y="0" type="line"/>
    </contour>
    <contour>
      <point x="279" y="560" type="line"/>
      <point x="303" y="700" type="line"/>
      <point x="440" y="700" type="line" smooth="yes"/>
      <point x="618" y="700"/>
      <point x="697" y="613"/>
      <point x="672" y="471" type="curve" smooth="yes"/>
      <point x="647" y="329"/>
      <point x="538" y="242"/>
      <point x="360" y="242" type="curve" smooth="yes"/>
      <point x="223" y="242" type="line"/>
      <point x="247" y="382" type="line"/>
      <point x="384" y="382" type="line" smooth="yes"/>
      <point x="452" y="382"/>
      <point x="499" y="413"/>
      <point x="509" y="471" type="curve" smooth="yes"/>
      <point x="519" y="529"/>
      <point x="484" y="560"/>
      <point x="416" y="560" type="curve" smooth="yes"/>
    </contour>
  </outline>
</glyph>
<glyph name="Q" format="1">
  <advance width="863"/>
  <unicode hex="0051"/>
  <outline>
    <contour>
      <point x="275" y="350" type="curve" smooth="yes"/>
      <point x="251" y="214"/>
      <point x="330" y="127"/>
      <point x="448" y="127" type="curve" smooth="yes"/>
      <point x="566" y="127"/>
      <point x="663" y="207"/>
      <point x="685" y="331" type="curve" smooth="yes"/>
      <point x="707" y="455"/>
      <point x="647" y="560"/>
      <point x="513" y="560" type="curve" smooth="yes"/>
      <point x="395" y="560"/>
      <point x="297" y="474"/>
    </contour>
    <contour>
      <point x="96" y="350" type="curve" smooth="yes"/>
      <point x="134" y="566"/>
      <point x="326" y="716"/>
      <point x="540" y="716" type="curve" smooth="yes"/>
      <point x="756" y="716"/>
      <point x="888" y="566"/>
      <point x="850" y="350" type="curve" smooth="yes"/>
      <point x="812" y="134"/>
      <point x="630" y="-22"/>
      <point x="410" y="-22" type="curve" smooth="yes"/>
      <point x="190" y="-22"/>
      <point x="58" y="134"/>
    </contour>
    <contour>
      <point x="409" y="300" type="line"/>
      <point x="585" y="300" type="line"/>
      <point x="868" y="-12" type="line"/>
      <point x="686" y="-12" type="line"/>
    </contour>
  </outline>
</glyph>
<glyph name="U" format="1">
  <advance width="701"/>
  <unicode hex="0055"/>
  <outline>
    <contour>
      <point x="191" y="700" type="line"/>
      <point x="361" y="700" type="line"/>
      <point x="281" y="242" type="line" smooth="yes"/>
      <point x="268" y="171"/>
      <point x="297" y="123"/>
      <point x="372" y="123" type="curve" smooth="yes"/>
      <point x="447" y="123"/>
      <point x="493" y="171"/>
      <point x="506" y="242" type="curve" smooth="yes"/>
      <point x="586" y="700" type="line"/>
      <point x="755" y="700" type="line"/>
      <point x="673" y="230" type="line" smooth="yes"/>
      <point x="642" y="54"/>
      <point x="503" y="-29"/>
      <point x="345" y="-29" type="curve" smooth="yes"/>
      <point x="187" y="-29"/>
      <point x="78" y="54"/>
      <point x="109" y="230" type="curve" smooth="yes"/>
    </contour>
  </outline>
</glyph>
<glyph name="X" format="1">
  <advance width="686"/>
  <unicode hex="0058"/>
  <outline>
    <contour>
      <point x="581" y="700" type="line"/>
      <point x="791" y="700" type="line"/>
      <point x="511" y="359" type="line"/>
      <point x="682" y="0" type="line"/>
      <point x="473" y="0" type="line"/>
      <point x="386" y="232" type="line"/>
      <point x="213" y="0" type="line"/>
      <point x="4" y="0" type="line"/>
      <point x="307" y="359" type="line"/>
      <point x="151" y="700" type="line"/>
      <point x="361" y="700" type="line"/>
      <point x="434" y="498" type="line"/>
    </contour>
  </outline>
</glyph>
<glyph name="bracketleft" format="1">
  <advance width="362"/>
  <unicode hex="005B"/>
  <outline>
    <contour>
      <point x="356" y="648" type="line"/>
      <point x="226" y="-88" type="line"/>
      <point x="326" y="-88" type="line"/>
      <point x="303" y="-220" type="line"/>
      <point x="51" y="-220" type="line"/>
      <point x="228" y="780" type="line"/>
      <point x="480" y="780" type="line"/>
      <point x="456" y="648" type="line"/>
    </contour>
  </outline>
</glyph>
<glyph name="asciicircum" format="1">
  <advance width="510"/>
  <unicode hex="005E"/>
  <outline>
    <contour>
      <point x="357" y="580" type="line"/>
      <point x="255" y="448" type="line"/>
      <point x="119" y="448" type="line"/>
      <point x="335" y="710" type="line"/>
      <point x="425" y="710" type="line"/>
      <point x="549" y="448" type="line"/>
      <point x="413" y="448" type="line"/>
    </contour>
  </outline>
</glyph>
<glyph name="underscore" format="1">
  <advance width="531"/>
  <unicode hex="005F"/>
  <outline>
    <contour>
      <point x="-27" y="-154" type="line"/>
      <point x="-10" y="-58" type="line"/>
      <point x="521" y="-58" type="line"/>
      <point x="504" y="-154" type="line"/>
    </contour>
  </outline>
</glyph>
<glyph name="f" format="1">
  <advance width="344"/>
  <unicode hex="0066"/>
  <outline>
    <contour>
      <point x="99" y="460" type="line"/>
      <point x="413" y="460" type="line"/>
      <point x="391" y="335" type="line"/>
      <point x="77" y="335" type="line"/>
    </contour>
    <contour>
      <point x="428" y="634" type="line"/>
      <point x="417" y="652"/>
      <point x="404" y="660"/>
      <point x="386" y="660" type="curve" smooth="yes"/>
      <point x="356" y="660"/>
      <point x="334" y="639"/>
      <point x="326" y="592" type="curve" smooth="yes"/>
      <point x="222" y="0" type="line"/>
      <point x="76" y="0" type="line"/>
      <point x="187" y="630" type="line" smooth="yes"/>
      <point x="205" y="732"/>
      <point x="274" y="796"/>
      <point x="389" y="796" type="curve" smooth="yes"/>
      <point x="457" y="796"/>
      <point x="490" y="766"/>
      <point x="508" y="746" type="curve"/>
    </contour>
  </outline>
</glyph>
<glyph name="i" format="1">
  <advance width="276"/>
  <unicode hex="0069"/>
  <outline>
    <contour>
      <point x="161" y="632" type="curve" smooth="yes"/>
      <point x="169" y="680"/>
      <point x="215" y="714"/>
      <point x="264" y="714" type="curve" smooth="yes"/>
      <point x="313" y="714"/>
      <point x="345" y="680"/>
      <point x="337" y="632" type="curve" smooth="yes"/>
      <point x="329" y="584"/>
      <point x="284" y="550"/>
      <point x="235" y="550" type="curve" smooth="yes"/>
      <point x="186" y="550"/>
      <point x="153" y="584"/>
    </contour>
    <contour>
      <point x="145" y="460" type="line"/>
      <point x="292" y="460" type="line"/>
      <point x="211" y="0" type="line"/>
      <point x="64" y="0" type="line"/>
    </contour>
  </outline>
</glyph>
<glyph name="j" format="1">
  <advance width="271"/>
  <unicode hex="006A"/>
  <outline>
    <contour>
      <point x="157" y="632" type="curve" smooth="yes"/>
      <point x="165" y="680"/>
      <point x="211" y="714"/>
      <point x="260" y="714" type="curve" smooth="yes"/>
      <point x="309" y="714"/>
      <point x="341" y="680"/>
      <point x="333" y="632" type="curve" smooth="yes"/>
      <point x="325" y="584"/>
      <point x="280" y="550"/>
      <point x="231" y="550" type="curve" smooth="yes"/>
      <point x="182" y="550"/>
      <point x="149" y="584"/>
    </contour>
    <contour>
      <point x="-48" y="-77" type="line"/>
      <point x="-37" y="-95"/>
      <point x="-23" y="-102"/>
      <point x="-5" y="-102" type="curve" smooth="yes"/>
      <point x="25" y="-102"/>
      <point x="47" y="-81"/>
      <point x="55" y="-34" type="curve" smooth="yes"/>
      <point x="142" y="460" type="line"/>
      <point x="288" y="460" type="line"/>
      <point x="194" y="-72" type="line" smooth="yes"/>
      <point x="176" y="-174"/>
      <point x="107" y="-239"/>
      <point x="-8" y="-239" type="curve" smooth="yes"/>
      <point x="-76" y="-239"/>
      <point x="-109" y="-208"/>
      <point x="-127" y="-188" type="curve"/>
    </contour>
  </outline>
</glyph>
<glyph name="p" format="1">
  <advance width="616"/>
  <unicode hex="0070"/>
  <outline>
    <contour>
      <point x="171" y="-220" type="line"/>
      <point x="19" y="-220" type="line"/>
      <point x="139" y="460" type="line"/>
      <point x="291" y="460" type="line"/>
    </contour>
    <contour>
      <point x="626" y="230" type="curve" smooth="yes"/>
      <point x="597" y="68"/>
      <point x="475" y="-16"/>
      <point x="363" y="-16" type="curve" smooth="yes"/>
      <point x="241" y="-16"/>
      <point x="189" y="81"/>
      <point x="215" y="230" type="curve" smooth="yes"/>
      <point x="241" y="379"/>
      <point x="328" y="476"/>
      <point x="450" y="476" type="curve" smooth="yes"/>
      <point x="562" y="476"/>
      <point x="655" y="392"/>
    </contour>
    <contour>
      <point x="467" y="230" type="curve" smooth="yes"/>
      <point x="480" y="302"/>
      <point x="436" y="342"/>
      <point x="376" y="342" type="curve" smooth="yes"/>
      <point x="325" y="342"/>
      <point x="264" y="305"/>
      <point x="251" y="230" type="curve" smooth="yes"/>
      <point x="238" y="155"/>
      <point x="286" y="118"/>
      <point x="337" y="118" type="curve" smooth="yes"/>
      <point x="397" y="118"/>
      <point x="454" y="158"/>
    </contour>
  </outline>
</glyph>
<glyph name="s" format="1">
  <advance width="451"/>
  <unicode hex="0073"/>
  <outline>
    <contour>
      <point x="115" y="173" type="line"/>
      <point x="170" y="128"/>
      <point x="220" y="98"/>
      <point x="254" y="98" type="curve" smooth="yes"/>
      <point x="284" y="98"/>
      <point x="300" y="109"/>
      <point x="304" y="129" type="curve" smooth="yes"/>
      <point x="309" y="157"/>
      <point x="266" y="173"/>
      <point x="217" y="192" type="curve" smooth="yes"/>
      <point x="156" y="216"/>
      <point x="98" y="254"/>
      <point x="113" y="340" type="curve" smooth="yes"/>
      <point x="126" y="412"/>
      <point x="209" y="470"/>
      <point x="306" y="470" type="curve" smooth="yes"/>
      <point x="385" y="470"/>
      <point x="449" y="440"/>
      <point x="488" y="400" type="curve"/>
      <point x="416" y="307" type="line"/>
      <point x="377" y="342"/>
      <point x="336" y="362"/>
      <point x="299" y="362" type="curve" smooth="yes"/>
      <point x="266" y="362"/>
      <point x="252" y="350"/>
      <point x="249" y="334" type="curve" smooth="yes"/>
      <point x="244" y="306"/>
      <point x="295" y="295"/>
      <point x="348" y="273" type="curve" smooth="yes"/>
      <point x="409" y="248"/>
      <point x="466" y="218"/>
      <point x="450" y="130" type="curve" smooth="yes"/>
      <point x="433" y="35"/>
      <point x="357" y="-19"/>
      <point x="247" y="-19" type="curve" smooth="yes"/>
      <point x="151" y="-19"/>
      <point x="77" y="21"/>
      <point x="33" y="79" type="curve"/>
    </contour>
  </outline>
</glyph>
<glyph name="t" format="1">
  <advance width="318"/>
  <unicode hex="0074"/>
  <outline>
    <contour>
      <point x="86" y="460" type="line"/>
      <point x="394" y="460" type="line"/>
      <point x="372" y="335" type="line"/>
      <point x="64" y="335" type="line"/>
    </contour>
    <contour>
      <point x="195" y="620" type="line"/>
      <point x="341" y="620" type="line"/>
      <point x="232" y="0" type="line"/>
      <point x="86" y="0" type="line"/>
    </contour>
  </outline>
</glyph>
<glyph name="x" format="1">
  <advance width="532"/>
  <unicode hex="0078"/>
  <outline>
    <contour>
      <point x="435" y="460" type="line"/>
      <point x="603" y="460" type="line"/>
      <point x="388" y="236" type="line"/>
      <point x="532" y="0" type="line"/>
      <point x="364" y="0" type="line"/>
      <point x="293" y="134" type="line"/>
      <point x="174" y="0" type="line"/>
      <point x="0" y="0" type="line"/>
      <point x="231" y="236" type="line"/>
      <point x="91" y="460" type="line"/>
      <point x="265" y="460" type="line"/>
      <point x="329" y="340" type="line"/>
    </contour>
  </outline>
</glyph>
<glyph name="braceleft" format="1">
  <advance width="398"/>
  <unicode hex="007B"/>
  <outline>
    <contour>
      <point x="374" y="610" type="curve" smooth="yes"/>
      <point x="352" y="490" type="line" smooth="yes"/>
      <point x="336" y="401"/>
      <point x="311" y="280"/>
      <point x="171" y="280" type="curve"/>
      <point x="175" y="300" type="line"/>
      <point x="315" y="300"/>
      <point x="298" y="179"/>
      <point x="282" y="90" type="curve" smooth="yes"/>
      <point x="261" y="-30" type="line" smooth="yes"/>
      <point x="256" y="-56"/>
      <point x="270" y="-80"/>
      <point x="300" y="-80" type="curve" smooth="yes"/>
      <point x="334" y="-80" type="line"/>
      <point x="313" y="-200" type="line"/>
      <point x="223" y="-200" type="line" smooth="yes"/>
      <point x="141" y="-200"/>
      <point x="70" y="-159"/>
      <point x="87" y="-60" type="curve" smooth="yes"/>
      <point x="120" y="125" type="line" smooth="yes"/>
      <point x="133" y="201"/>
      <point x="119" y="225"/>
      <point x="79" y="235" type="curve"/>
      <point x="99" y="345" type="line"/>
      <point x="143" y="355"/>
      <point x="165" y="379"/>
      <point x="178" y="455" type="curve" smooth="yes"/>
      <point x="211" y="640" type="line" smooth="yes"/>
      <point x="228" y="739"/>
      <point x="314" y="780"/>
      <point x="396" y="780" type="curve" smooth="yes"/>
      <point x="486" y="780" type="line"/>
      <point x="464" y="660" type="line"/>
      <point x="430" y="660" type="line" smooth="yes"/>
      <point x="400" y="660"/>
      <point x="379" y="636"/>
    </contour>
  </outline>
</glyph>
<glyph name="exclamdown" format="1">
  <advance width="343"/>
  <unicode hex="00A1"/>
  <outline>
    <contour>
      <point x="225" y="-230" type="line"/>
      <point x="37" y="-230" type="line"/>
      <point x="152" y="240" type="line"/>
      <point x="275" y="240" type="line"/>
    </contour>
    <contour>
      <point x="338" y="408" type="curve" smooth="yes"/>
      <point x="329" y="358"/>
      <point x="284" y="322"/>
      <point x="229" y="322" type="curve" smooth="yes"/>
      <point x="174" y="322"/>
      <point x="141" y="358"/>
      <point x="150" y="408" type="curve" smooth="yes"/>
      <point x="159" y="458"/>
      <point x="204" y="495"/>
      <point x="259" y="495" type="curve" smooth="yes"/>
      <point x="314" y="495"/>
      <point x="347" y="458"/>
    </contour>
  </outline>
</glyph>
<glyph name="cent" format="1">
  <advance width="580"/>
  <unicode hex="00A2"/>
  <outline>
    <contour>
      <point x="243" y="38" type="line"/>
      <point x="354" y="38" type="line"/>
      <point x="336" y="-112" type="line"/>
      <point x="207" y="-112" type="line"/>
    </contour>
    <contour>
      <point x="246" y="230" type="curve" smooth="yes"/>
      <point x="232" y="153"/>
      <point x="282" y="110"/>
      <point x="347" y="110" type="curve" smooth="yes"/>
      <point x="409" y="110"/>
      <point x="461" y="142"/>
      <point x="496" y="180" type="curve"/>
      <point x="469" y="30" type="line"/>
      <point x="432" y="4"/>
      <point x="377" y="-10"/>
      <point x="314" y="-10" type="curve" smooth="yes"/>
      <point x="160" y="-10"/>
      <point x="65" y="84"/>
      <point x="91" y="230" type="curve" smooth="yes"/>
      <point x="117" y="376"/>
      <point x="245" y="470"/>
      <point x="399" y="470" type="curve" smooth="yes"/>
      <point x="462" y="470"/>
      <point x="512" y="454"/>
      <point x="540" y="430" type="curve"/>
      <point x="513" y="280" type="line"/>
      <point x="492" y="318"/>
      <point x="452" y="350"/>
      <point x="390" y="350" type="curve" smooth="yes"/>
      <point x="325" y="350"/>
      <point x="259" y="301"/>
    </contour>
    <contour>
      <point x="329" y="578" type="line"/>
      <point x="458" y="578" type="line"/>
      <point x="422" y="428" type="line"/>
      <point x="311" y="428" type="line"/>
    </contour>
  </outline>
</glyph>
<glyph name="yen" format="1">
  <advance width="669"/>
  <unicode hex="00A5"/>
  <outline>
    <contour>
      <point x="311" y="360" type="line"/>
      <point x="485" y="360" type="line"/>
      <point x="422" y="0" type="line"/>
      <point x="248" y="0" type="line"/>
    </contour>
    <contour>
      <point x="595" y="700" type="line"/>
      <point x="789" y="700" type="line"/>
      <point x="358" y="138" type="line"/>
      <point x="126" y="700" type="line"/>
      <point x="321" y="700" type="line"/>
      <point x="411" y="437" type="line"/>
    </contour>
    <contour>
      <point x="65" y="115" type="line"/>
      <point x="83" y="215" type="line"/>
      <point x="658" y="215" type="line"/>
      <point x="640" y="115" type="line"/>
    </contour>
    <contour>
      <point x="92" y="265" type="line"/>
      <point x="109" y="365" type="line"/>
      <point x="684" y="365" type="line"/>
      <point x="667" y="265" type="line"/>
    </contour>
  </outline>
</glyph>
<glyph name="dieresis" format="1">
  <advance width="511"/>
  <unicode hex="00A8"/>
  <outline>
    <contour>
      <point x="401" y="632" type="curve" smooth="yes"/>
      <point x="409" y="680"/>
      <point x="455" y="714"/>
      <point x="504" y="714" type="curve" smooth="yes"/>
      <point x="553" y="714"/>
      <point x="585" y="680"/>
      <point x="577" y="632" type="curve" smooth="yes"/>
      <point x="569" y="584"/>
      <point x="524" y="550"/>
      <point x="475" y="550" type="curve" smooth="yes"/>
      <point x="426" y="550"/>
      <point x="393" y="584"/>
    </contour>
    <contour>
      <point x="157" y="632" type="curve" smooth="yes"/>
      <point x="165" y="680"/>
      <point x="211" y="714"/>
      <point x="260" y="714" type="curve" smooth="yes"/>
      <point x="309" y="714"/>
      <point x="341" y="680"/>
      <point x="333" y="632" type="curve" smooth="yes"/>
      <point x="325" y="584"/>
      <point x="280" y="550"/>
      <point x="231" y="550" type="curve" smooth="yes"/>
      <point x="182" y="550"/>
      <point x="149" y="584"/>
    </contour>
  </outline>
</glyph>
<glyph name="copyright" format="1">
  <advance width="800"/>
  <unicode hex="00A9"/>
  <outline>
    <contour>
      <point x="351" y="350" type="curve" smooth="yes"/>
      <point x="337" y="272"/>
      <point x="385" y="227"/>
      <point x="455" y="227" type="curve" smooth="yes"/>
      <point x="514" y="227"/>
      <point x="558" y="252"/>
      <point x="590" y="282" type="curve"/>
      <point x="570" y="172" type="line"/>
      <point x="531" y="146"/>
      <point x="492" y="130"/>
      <point x="431" y="130" type="curve" smooth="yes"/>
      <point x="296" y="130"/>
      <point x="217" y="220"/>
      <point x="240" y="350" type="curve" smooth="yes"/>
      <point x="263" y="480"/>
      <point x="374" y="570"/>
      <point x="509" y="570" type="curve" smooth="yes"/>
      <point x="570" y="570"/>
      <point x="604" y="554"/>
      <point x="633" y="528" type="curve"/>
      <point x="614" y="418" type="line"/>
      <point x="592" y="448"/>
      <point x="557" y="473"/>
      <point x="498" y="473" type="curve" smooth="yes"/>
      <point x="428" y="473"/>
      <point x="365" y="428"/>
    </contour>
    <contour>
      <point x="157" y="350" type="curve" smooth="yes"/>
      <point x="126" y="172"/>
      <point x="234" y="40"/>
      <point x="407" y="40" type="curve" smooth="yes"/>
      <point x="580" y="40"/>
      <point x="736" y="172"/>
      <point x="767" y="350" type="curve" smooth="yes"/>
      <point x="798" y="528"/>
      <point x="689" y="660"/>
      <point x="516" y="660" type="curve" smooth="yes"/>
      <point x="343" y="660"/>
      <point x="188" y="528"/>
    </contour>
    <contour>
      <point x="102" y="350" type="curve" smooth="yes"/>
      <point x="139" y="559"/>
      <point x="321" y="710"/>
      <point x="525" y="710" type="curve" smooth="yes"/>
      <point x="729" y="710"/>
      <point x="859" y="559"/>
      <point x="822" y="350" type="curve" smooth="yes"/>
      <point x="785" y="141"/>
      <point x="602" y="-10"/>
      <point x="398" y="-10" type="curve" smooth="yes"/>
      <point x="194" y="-10"/>
      <point x="65" y="141"/>
    </contour>
  </outline>
</glyph>
<glyph name="ordfeminine" format="1">
  <advance width="270"/>
  <unicode hex="00AA"/>
  <outline>
    <contour>
      <point x="187" y="530" type="curve" smooth="yes"/>
      <point x="184" y="514"/>
      <point x="194" y="504"/>
      <point x="216" y="504" type="curve" smooth="yes"/>
      <point x="242" y="504"/>
      <point x="270" y="517"/>
      <point x="276" y="553" type="curve"/>
      <point x="279" y="525" type="line"/>
      <point x="271" y="481"/>
      <point x="229" y="455"/>
      <point x="181" y="455" type="curve" smooth="yes"/>
      <point x="133" y="455"/>
      <point x="103" y="482"/>
      <point x="111" y="528" type="curve" smooth="yes"/>
      <point x="119" y="574"/>
      <point x="167" y="603"/>
      <point x="223" y="603" type="curve" smooth="yes"/>
      <point x="257" y="603"/>
      <point x="288" y="590"/>
      <point x="296" y="580" type="curve"/>
      <point x="290" y="542" type="line"/>
      <point x="275" y="555"/>
      <point x="259" y="562"/>
      <point x="233" y="562" type="curve" smooth="yes"/>
      <point x="209" y="562"/>
      <point x="190" y="548"/>
    </contour>
    <contour>
      <point x="174" y="625" type="curve"/>
      <point x="158" y="679" type="line"/>
      <point x="186" y="691"/>
      <point x="226" y="705"/>
      <point x="268" y="705" type="curve" smooth="yes"/>
      <point x="330" y="705"/>
      <point x="369" y="678"/>
      <point x="361" y="630" type="curve" smooth="yes"/>
      <point x="331" y="460" type="line"/>
      <point x="259" y="460" type="line"/>
      <point x="286" y="610" type="line" smooth="yes"/>
      <point x="290" y="630"/>
      <point x="277" y="645"/>
      <point x="252" y="645" type="curve" smooth="yes"/>
      <point x="219" y="645"/>
      <point x="186" y="632"/>
    </contour>
  </outline>
</glyph>
<glyph name="logicalnot" format="1">
  <advance width="650"/>
  <unicode hex="00AC"/>
  <outline>
    <contour>
      <point x="113" y="272" type="line"/>
      <point x="136" y="403" type="line"/>
      <point x="657" y="403" type="line"/>
      <point x="634" y="272" type="line"/>
    </contour>
    <contour>
      <point x="546" y="375" type="line"/>
      <point x="652" y="375" type="line"/>
      <point x="617" y="175" type="line"/>
      <point x="511" y="175" type="line"/>
    </contour>
  </outline>
</glyph>
<glyph name="registered" format="1">
  <advance width="800"/>
  <unicode hex="00AE"/>
  <outline>
    <contour>
      <point x="435" y="328" type="line"/>
      <point x="528" y="328" type="line"/>
      <point x="615" y="150" type="line"/>
      <point x="496" y="150" type="line"/>
    </contour>
    <contour>
      <point x="355" y="570" type="line"/>
      <point x="456" y="570" type="line"/>
      <point x="381" y="150" type="line"/>
      <point x="280" y="150" type="line"/>
    </contour>
    <contour>
      <point x="402" y="484" type="line"/>
      <point x="418" y="570" type="line"/>
      <point x="508" y="570" type="line" smooth="yes"/>
      <point x="616" y="570"/>
      <point x="660" y="513"/>
      <point x="647" y="439" type="curve" smooth="yes"/>
      <point x="633" y="359"/>
      <point x="568" y="302"/>
      <point x="460" y="302" type="curve" smooth="yes"/>
      <point x="370" y="302" type="line"/>
      <point x="384" y="380" type="line"/>
      <point x="466" y="380" type="line" smooth="yes"/>
      <point x="507" y="380"/>
      <point x="535" y="398"/>
      <point x="541" y="433" type="curve" smooth="yes"/>
      <point x="547" y="468"/>
      <point x="525" y="484"/>
      <point x="484" y="484" type="curve" smooth="yes"/>
    </contour>
    <contour>
      <point x="157" y="350" type="curve" smooth="yes"/>
      <point x="126" y="172"/>
      <point x="234" y="40"/>
      <point x="407" y="40" type="curve" smooth="yes"/>
      <point x="580" y="40"/>
      <point x="736" y="172"/>
      <point x="767" y="350" type="curve" smooth="yes"/>
      <point x="798" y="528"/>
      <point x="689" y="660"/>
      <point x="516" y="660" type="curve" smooth="yes"/>
      <point x="343" y="660"/>
      <point x="188" y="528"/>
    </contour>
    <contour>
      <point x="102" y="350" type="curve" smooth="yes"/>
      <point x="139" y="559"/>
      <point x="321" y="710"/>
      <point x="525" y="710" type="curve" smooth="yes"/>
      <point x="729" y="710"/>
      <point x="859" y="559"/>
      <point x="822" y="350" type="curve" smooth="yes"/>
      <point x="785" y="141"/>
      <point x="602" y="-10"/>
      <point x="398" y="-10" type="curve" smooth="yes"/>
      <point x="194" y="-10"/>
      <point x="65" y="141"/>
    </contour>
  </outline>
</glyph>
<glyph name="macron" format="1">
  <advance width="531"/>
  <unicode hex="00AF"/>
  <outline>
    <contour>
      <point x="181" y="572" type="line"/>
      <point x="204" y="703" type="line"/>
      <point x="576" y="703" type="line"/>
      <point x="553" y="572" type="line"/>
    </contour>
  </outline>
</glyph>
<glyph name="plusminus" format="1">
  <advance width="633"/>
  <unicode hex="00B1"/>
  <outline>
    <contour>
      <point x="66" y="6" type="line"/>
      <point x="89" y="136" type="line"/>
      <point x="593" y="136" type="line"/>
      <point x="570" y="6" type="line"/>
    </contour>
    <contour>
      <point x="124" y="332" type="line"/>
      <point x="148" y="468" type="line"/>
      <point x="652" y="468" type="line"/>
      <point x="628" y="332" type="line"/>
    </contour>
    <contour>
      <point x="349" y="620" type="line"/>
      <point x="503" y="620" type="line"/>
      <point x="426" y="181" type="line"/>
      <point x="272" y="181" type="line"/>
    </contour>
  </outline>
</glyph>
<glyph name="periodcentered" format="1">
  <advance width="322"/>
  <unicode hex="00B7"/>
  <outline>
    <contour>
      <point x="114" y="268" type="curve" smooth="yes"/>
      <point x="123" y="318"/>
      <point x="169" y="360"/>
      <point x="224" y="360" type="curve" smooth="yes"/>
      <point x="279" y="360"/>
      <point x="312" y="318"/>
      <point x="303" y="268" type="curve" smooth="yes"/>
      <point x="294" y="218"/>
      <point x="247" y="176"/>
      <point x="192" y="176" type="curve" smooth="yes"/>
      <point x="137" y="176"/>
      <point x="105" y="218"/>
    </contour>
  </outline>
</glyph>
<glyph name="cedilla" format="1">
  <advance width="393"/>
  <unicode hex="00B8"/>
  <outline>
    <contour>
      <point x="197" y="71" type="line"/>
      <point x="306" y="68" type="line"/>
      <point x="174" y="-79" type="line"/>
      <point x="74" y="-124" type="line"/>
    </contour>
    <contour>
      <point x="310" y="-148" type="curve"/>
      <point x="213" y="-140" type="line"/>
      <point x="218" y="-114"/>
      <point x="190" y="-108"/>
      <point x="159" y="-108" type="curve" smooth="yes"/>
      <point x="149" y="-108"/>
      <point x="113" y="-109"/>
      <point x="74" y="-124" type="curve"/>
      <point x="146" y="-79" type="line"/>
      <point x="177" y="-54"/>
      <point x="203" y="-51"/>
      <point x="235" y="-51" type="curve" smooth="yes"/>
      <point x="275" y="-51"/>
      <point x="322" y="-82"/>
    </contour>
    <contour>
      <point x="310" y="-148" type="line"/>
      <point x="297" y="-220"/>
      <point x="222" y="-258"/>
      <point x="159" y="-258" type="curve" smooth="yes"/>
      <point x="103" y="-258"/>
      <point x="64" y="-248"/>
      <point x="22" y="-218" type="curve"/>
      <point x="80" y="-150" type="line"/>
      <point x="103" y="-168"/>
      <point x="133" y="-175"/>
      <point x="153" y="-175" type="curve" smooth="yes"/>
      <point x="187" y="-175"/>
      <point x="209" y="-164"/>
      <point x="213" y="-140" type="curve"/>
    </contour>
  </outline>
</glyph>
<glyph name="uni00B9" format="1">
  <advance width="482"/>
  <unicode hex="00B9"/>
  <outline>
    <contour>
      <point x="234" y="572" type="line"/>
      <point x="250" y="661" type="line"/>
      <point x="460" y="702" type="line"/>
      <point x="384" y="274" type="line"/>
      <point x="286" y="274" type="line"/>
      <point x="343" y="598" type="line"/>
    </contour>
  </outline>
</glyph>
<glyph name="ordmasculine" format="1">
  <advance width="278"/>
  <unicode hex="00BA"/>
  <outline>
    <contour>
      <point x="121" y="580" type="curve" smooth="yes"/>
      <point x="134" y="652"/>
      <point x="197" y="700"/>
      <point x="273" y="700" type="curve" smooth="yes"/>
      <point x="349" y="700"/>
      <point x="397" y="652"/>
      <point x="384" y="580" type="curve" smooth="yes"/>
      <point x="371" y="508"/>
      <point x="307" y="460"/>
      <point x="231" y="460" type="curve" smooth="yes"/>
      <point x="155" y="460"/>
      <point x="108" y="508"/>
    </contour>
    <contour>
      <point x="198" y="580" type="curve" smooth="yes"/>
      <point x="192" y="544"/>
      <point x="212" y="523"/>
      <point x="242" y="523" type="curve" smooth="yes"/>
      <point x="272" y="523"/>
      <point x="300" y="544"/>
      <point x="306" y="580" type="curve" smooth="yes"/>
      <point x="312" y="616"/>
      <point x="292" y="638"/>
      <point x="262" y="638" type="curve" smooth="yes"/>
      <point x="232" y="638"/>
      <point x="204" y="616"/>
    </contour>
  </outline>
</glyph>
<glyph name="onehalf" format="1">
  <advance width="894"/>
  <unicode hex="00BD"/>
  <outline>
    <contour>
      <point x="753" y="700" type="line"/>
      <point x="849" y="700" type="line"/>
      <point x="206" y="0" type="line"/>
      <point x="110" y="0" type="line"/>
    </contour>
    <contour>
      <point x="125" y="572" type="line"/>
      <point x="141" y="661" type="line"/>
      <point x="350" y="702" type="line"/>
      <point x="274" y="274" type="line"/>
      <point x="176" y="274" type="line"/>
      <point x="233" y="598" type="line"/>
    </contour>
    <contour>
      <point x="506" y="2" type="line"/>
      <point x="728" y="196" type="line" smooth="yes"/>
      <point x="768" y="232"/>
      <point x="792" y="256"/>
      <point x="798" y="290" type="curve" smooth="yes"/>
      <point x="803" y="317"/>
      <point x="790" y="344"/>
      <point x="752" y="344" type="curve" smooth="yes"/>
      <point x="713" y="344"/>
      <point x="681" y="312"/>
      <point x="673" y="267" type="curve"/>
      <point x="573" y="267" type="line"/>
      <point x="589" y="356"/>
      <point x="660" y="431"/>
      <point x="770" y="431" type="curve" smooth="yes"/>
      <point x="874" y="431"/>
      <point x="916" y="361"/>
      <point x="904" y="295" type="curve" smooth="yes"/>
      <point x="896" y="250"/>
      <point x="864" y="213"/>
      <point x="823" y="182" type="curve" smooth="yes"/>
      <point x="711" y="95" type="line"/>
      <point x="879" y="95" type="line"/>
      <point x="862" y="2" type="line"/>
    </contour>
  </outline>
</glyph>
<glyph name="threequarters" format="1">
  <advance width="879"/>
  <unicode hex="00BE"/>
  <outline>
    <contour>
      <point x="817" y="700" type="line"/>
      <point x="913" y="700" type="line"/>
      <point x="270" y="0" type="line"/>
      <point x="174" y="0" type="line"/>
    </contour>
    <contour>
      <point x="247" y="484" type="curve"/>
      <point x="255" y="529" type="line"/>
      <point x="301" y="529"/>
      <point x="338" y="556"/>
      <point x="343" y="586" type="curve" smooth="yes"/>
      <point x="347" y="611"/>
      <point x="335" y="627"/>
      <point x="303" y="627" type="curve" smooth="yes"/>
      <point x="271" y="627"/>
      <point x="245" y="607"/>
      <point x="240" y="577" type="curve"/>
      <point x="146" y="577" type="line"/>
      <point x="159" y="651"/>
      <point x="227" y="708"/>
      <point x="317" y="708" type="curve" smooth="yes"/>
      <point x="411" y="708"/>
      <point x="455" y="656"/>
      <point x="444" y="592" type="curve" smooth="yes"/>
      <point x="431" y="520"/>
      <point x="347" y="484"/>
    </contour>
    <contour>
      <point x="236" y="270" type="curve" smooth="yes"/>
      <point x="134" y="270"/>
      <point x="86" y="340"/>
      <point x="99" y="414" type="curve"/>
      <point x="199" y="414" type="line"/>
      <point x="192" y="372"/>
      <point x="219" y="352"/>
      <point x="254" y="352" type="curve" smooth="yes"/>
      <point x="289" y="352"/>
      <point x="317" y="368"/>
      <point x="323" y="404" type="curve" smooth="yes"/>
      <point x="329" y="439"/>
      <point x="306" y="464"/>
      <point x="244" y="464" type="curve"/>
      <point x="253" y="515" type="line"/>
      <point x="364" y="515"/>
      <point x="436" y="479"/>
      <point x="421" y="394" type="curve" smooth="yes"/>
      <point x="408" y="321"/>
      <point x="339" y="270"/>
    </contour>
    <contour>
      <point x="477" y="74" type="line"/>
      <point x="574" y="148" type="line"/>
      <point x="760" y="148" type="line" smooth="yes"/>
      <point x="772" y="161" type="line" smooth="yes"/>
      <point x="878" y="161" type="line"/>
      <point x="863" y="74" type="line"/>
    </contour>
    <contour>
      <point x="585" y="104" type="line"/>
      <point x="477" y="74" type="line"/>
      <point x="782" y="420" type="line"/>
      <point x="858" y="420" type="line"/>
      <point x="784" y="0" type="line"/>
      <point x="678" y="0" type="line"/>
      <point x="695" y="96" type="line" smooth="yes"/>
      <point x="708" y="102" type="line" smooth="yes"/>
      <point x="738" y="274" type="line"/>
    </contour>
  </outline>
</glyph>
<glyph name="questiondown" format="1">
  <advance width="627"/>
  <unicode hex="00BF"/>
  <outline>
    <contour>
      <point x="541" y="641" type="curve" smooth="yes"/>
      <point x="533" y="597"/>
      <point x="487" y="558"/>
      <point x="432" y="558" type="curve" smooth="yes"/>
      <point x="377" y="558"/>
      <point x="344" y="597"/>
      <point x="352" y="641" type="curve" smooth="yes"/>
      <point x="360" y="685"/>
      <point x="407" y="724"/>
      <point x="462" y="724" type="curve" smooth="yes"/>
      <point x="517" y="724"/>
      <point x="549" y="685"/>
    </contour>
    <contour>
      <point x="472" y="320" type="line"/>
      <point x="318" y="320" type="line"/>
      <point x="360" y="499" type="line"/>
      <point x="484" y="499" type="line"/>
    </contour>
    <contour>
      <point x="241" y="200" type="curve" smooth="yes"/>
      <point x="231" y="142"/>
      <point x="267" y="108"/>
      <point x="338" y="108" type="curve" smooth="yes"/>
      <point x="398" y="108"/>
      <point x="464" y="140"/>
      <point x="512" y="196" type="curve"/>
      <point x="599" y="110" type="line"/>
      <point x="514" y="28"/>
      <point x="424" y="-20"/>
      <point x="305" y="-20" type="curve" smooth="yes"/>
      <point x="173" y="-20"/>
      <point x="65" y="62"/>
      <point x="89" y="200" type="curve" smooth="yes"/>
      <point x="115" y="350"/>
      <point x="292" y="422"/>
      <point x="407" y="422" type="curve"/>
      <point x="439" y="320" type="line"/>
      <point x="319" y="320"/>
      <point x="250" y="251"/>
    </contour>
  </outline>
</glyph>
<glyph name="Agrave" format="1">
  <advance width="735"/>
  <unicode hex="00C0"/>
  <outline>
    <contour>
      <point x="208" y="135" type="line"/>
      <point x="243" y="264" type="line"/>
      <point x="591" y="264" type="line"/>
      <point x="578" y="135" type="line"/>
    </contour>
    <contour>
      <point x="446" y="442" type="line"/>
      <point x="308" y="217" type="line"/>
      <point x="309" y="179" type="line"/>
      <point x="190" y="0" type="line"/>
      <point x="-2" y="0" type="line"/>
      <point x="499" y="744" type="line"/>
      <point x="736" y="0" type="line"/>
      <point x="544" y="0" type="line"/>
      <point x="490" y="172" type="line"/>
      <point x="504" y="216" type="line"/>
    </contour>
    <contour>
      <point x="374" y="954" type="line"/>
      <point x="500" y="1007" type="line"/>
      <point x="621" y="847" type="line"/>
      <point x="528" y="804" type="line"/>
    </contour>
  </outline>
</glyph>
<glyph name="Aacute" format="1">
  <advance width="735"/>
  <unicode hex="00C1"/>
  <outline>
    <contour>
      <point x="208" y="135" type="line"/>
      <point x="243" y="264" type="line"/>
      <point x="591" y="264" type="line"/>
      <point x="578" y="135" type="line"/>
    </contour>
    <contour>
      <point x="446" y="442" type="line"/>
      <point x="308" y="217" type="line"/>
      <point x="309" y="179" type="line"/>
      <point x="190" y="0" type="line"/>
      <point x="-2" y="0" type="line"/>
      <point x="499" y="744" type="line"/>
      <point x="736" y="0" type="line"/>
      <point x="544" y="0" type="line"/>
      <point x="490" y="172" type="line"/>
      <point x="504" y="216" type="line"/>
    </contour>
    <contour>
      <point x="694" y="954" type="line"/>
      <point x="488" y="804" type="line"/>
      <point x="409" y="847" type="line"/>
      <point x="588" y="1007" type="line"/>
    </contour>
  </outline>
</glyph>
<glyph name="Adieresis" format="1">
  <advance width="735"/>
  <unicode hex="00C4"/>
  <outline>
    <contour>
      <point x="208" y="135" type="line"/>
      <point x="243" y="264" type="line"/>
      <point x="591" y="264" type="line"/>
      <point x="578" y="135" type="line"/>
    </contour>
    <contour>
      <point x="446" y="442" type="line"/>
      <point x="308" y="217" type="line"/>
      <point x="309" y="179" type="line"/>
      <point x="190" y="0" type="line"/>
      <point x="-2" y="0" type="line"/>
      <point x="499" y="744" type="line"/>
      <point x="736" y="0" type="line"/>
      <point x="544" y="0" type="line"/>
      <point x="490" y="172" type="line"/>
      <point x="504" y="216" type="line"/>
    </contour>
    <contour>
      <point x="569" y="836" type="curve" smooth="yes"/>
      <point x="577" y="884"/>
      <point x="623" y="918"/>
      <point x="672" y="918" type="curve" smooth="yes"/>
      <point x="721" y="918"/>
      <point x="753" y="884"/>
      <point x="745" y="836" type="curve" smooth="yes"/>
      <point x="737" y="788"/>
      <point x="692" y="754"/>
      <point x="643" y="754" type="curve" smooth="yes"/>
      <point x="594" y="754"/>
      <point x="561" y="788"/>
    </contour>
    <contour>
      <point x="285" y="836" type="curve" smooth="yes"/>
      <point x="293" y="884"/>
      <point x="339" y="918"/>
      <point x="388" y="918" type="curve" smooth="yes"/>
      <point x="437" y="918"/>
      <point x="469" y="884"/>
      <point x="461" y="836" type="curve" smooth="yes"/>
      <point x="453" y="788"/>
      <point x="408" y="754"/>
      <point x="359" y="754" type="curve" smooth="yes"/>
      <point x="310" y="754"/>
      <point x="277" y="788"/>
    </contour>
  </outline>
</glyph>
<glyph name="Aring" format="1">
  <advance width="735"/>
  <unicode hex="00C5"/>
  <outline>
    <contour>
      <point x="208" y="135" type="line"/>
      <point x="243" y="264" type="line"/>
      <point x="591" y="264" type="line"/>
      <point x="578" y="135" type="line"/>
    </contour>
    <contour>
      <point x="446" y="442" type="line"/>
      <point x="308" y="217" type="line"/>
      <point x="309" y="179" type="line"/>
      <point x="190" y="0" type="line"/>
      <point x="-2" y="0" type="line"/>
      <point x="499" y="744" type="line"/>
      <point x="736" y="0" type="line"/>
      <point x="544" y="0" type="line"/>
      <point x="490" y="172" type="line"/>
      <point x="504" y="216" type="line"/>
    </contour>
    <contour>
      <point x="383" y="800" type="curve" smooth="yes"/>
      <point x="395" y="869"/>
      <point x="459" y="916"/>
      <point x="529" y="916" type="curve" smooth="yes"/>
      <point x="599" y="916"/>
      <point x="645" y="869"/>
      <point x="633" y="800" type="curve" smooth="yes"/>
      <point x="621" y="731"/>
      <point x="558" y="685"/>
      <point x="488" y="685" type="curve" smooth="yes"/>
      <point x="418" y="685"/>
      <point x="371" y="731"/>
    </contour>
    <contour>
      <point x="462" y="800" type="curve" smooth="yes"/>
      <point x="457" y="770"/>
      <point x="475" y="753"/>
      <point x="500" y="753" type="curve" smooth="yes"/>
      <point x="525" y="753"/>
      <point x="550" y="770"/>
      <point x="555" y="800" type="curve" smooth="yes"/>
      <point x="560" y="830"/>
      <point x="542" y="848"/>
      <point x="517" y="848" type="curve" smooth="yes"/>
      <point x="492" y="848"/>
      <point x="467" y="830"/>
    </contour>
  </outline>
</glyph>
<glyph name="Ecircumflex" format="1">
  <advance width="603"/>
  <unicode hex="00CA"/>
  <outline>
    <contour>
      <point x="186" y="0" type="line"/>
      <point x="211" y="140" type="line"/>
      <point x="565" y="140" type="line"/>
      <point x="540" y="0" type="line"/>
    </contour>
    <contour>
      <point x="285" y="560" type="line"/>
      <point x="309" y="700" type="line"/>
      <point x="663" y="700" type="line"/>
      <point x="639" y="560" type="line"/>
    </contour>
    <contour>
      <point x="239" y="300" type="line"/>
      <point x="263" y="436" type="line"/>
      <point x="597" y="436" type="line"/>
      <point x="573" y="300" type="line"/>
    </contour>
    <contour>
      <point x="197" y="700" type="line"/>
      <point x="360" y="700" type="line"/>
      <point x="237" y="0" type="line"/>
      <point x="74" y="0" type="line"/>
    </contour>
    <contour>
      <point x="466" y="884" type="line"/>
      <point x="339" y="789" type="line"/>
      <point x="296" y="829" type="line"/>
      <point x="481" y="969" type="line"/>
      <point x="616" y="829" type="line"/>
      <point x="559" y="789" type="line"/>
    </contour>
  </outline>
</glyph>
<glyph name="Edieresis" format="1">
  <advance width="603"/>
  <unicode hex="00CB"/>
  <outline>
    <contour>
      <point x="186" y="0" type="line"/>
      <point x="211" y="140" type="line"/>
      <point x="565" y="140" type="line"/>
      <point x="540" y="0" type="line"/>
    </contour>
    <contour>
      <point x="285" y="560" type="line"/>
      <point x="309" y="700" type="line"/>
      <point x="663" y="700" type="line"/>
      <point x="639" y="560" type="line"/>
    </contour>
    <contour>
      <point x="239" y="300" type="line"/>
      <point x="263" y="436" type="line"/>
      <point x="597" y="436" type="line"/>
      <point x="573" y="300" type="line"/>
    </contour>
    <contour>
      <point x="197" y="700" type="line"/>
      <point x="360" y="700" type="line"/>
      <point x="237" y="0" type="line"/>
      <point x="74" y="0" type="line"/>
    </contour>
    <contour>
      <point x="492" y="858" type="curve" smooth="yes"/>
      <point x="500" y="906"/>
      <point x="546" y="940"/>
      <point x="595" y="940" type="curve" smooth="yes"/>
      <point x="644" y="940"/>
      <point x="676" y="906"/>
      <point x="668" y="858" type="curve" smooth="yes"/>
      <point x="660" y="810"/>
      <point x="615" y="776"/>
      <point x="566" y="776" type="curve" smooth="yes"/>
      <point x="517" y="776"/>
      <point x="484" y="810"/>
    </contour>
    <contour>
      <point x="248" y="858" type="curve" smooth="yes"/>
      <point x="256" y="906"/>
      <point x="302" y="940"/>
      <point x="351" y="940" type="curve" smooth="yes"/>
      <point x="400" y="940"/>
      <point x="432" y="906"/>
      <point x="424" y="858" type="curve" smooth="yes"/>
      <point x="416" y="810"/>
      <point x="371" y="776"/>
      <point x="322" y="776" type="curve" smooth="yes"/>
      <point x="273" y="776"/>
      <point x="240" y="810"/>
    </contour>
  </outline>
</glyph>
<glyph name="Igrave" format="1">
  <advance width="320"/>
  <unicode hex="00CC"/>
  <outline>
    <contour>
      <point x="197" y="700" type="line"/>
      <point x="369" y="700" type="line"/>
      <point x="246" y="0" type="line"/>
      <point x="74" y="0" type="line"/>
    </contour>
    <contour>
      <point x="156" y="932" type="line"/>
      <point x="282" y="985" type="line"/>
      <point x="403" y="825" type="line"/>
      <point x="310" y="782" type="line"/>
    </contour>
  </outline>
</glyph>
<glyph name="Iacute" format="1">
  <advance width="320"/>
  <unicode hex="00CD"/>
  <outline>
    <contour>
      <point x="197" y="700" type="line"/>
      <point x="369" y="700" type="line"/>
      <point x="246" y="0" type="line"/>
      <point x="74" y="0" type="line"/>
    </contour>
    <contour>
      <point x="476" y="932" type="line"/>
      <point x="270" y="782" type="line"/>
      <point x="192" y="825" type="line"/>
      <point x="371" y="985" type="line"/>
    </contour>
  </outline>
</glyph>
<glyph name="Idieresis" format="1">
  <advance width="320"/>
  <unicode hex="00CF"/>
  <outline>
    <contour>
      <point x="197" y="700" type="line"/>
      <point x="369" y="700" type="line"/>
      <point x="246" y="0" type="line"/>
      <point x="74" y="0" type="line"/>
    </contour>
    <contour>
      <point x="345" y="858" type="curve" smooth="yes"/>
      <point x="353" y="906"/>
      <point x="399" y="940"/>
      <point x="448" y="940" type="curve" smooth="yes"/>
      <point x="497" y="940"/>
      <point x="529" y="906"/>
      <point x="521" y="858" type="curve" smooth="yes"/>
      <point x="513" y="810"/>
      <point x="468" y="776"/>
      <point x="419" y="776" type="curve" smooth="yes"/>
      <point x="370" y="776"/>
      <point x="337" y="810"/>
    </contour>
    <contour>
      <point x="101" y="858" type="curve" smooth="yes"/>
      <point x="109" y="906"/>
      <point x="155" y="940"/>
      <point x="204" y="940" type="curve" smooth="yes"/>
      <point x="253" y="940"/>
      <point x="285" y="906"/>
      <point x="277" y="858" type="curve" smooth="yes"/>
      <point x="269" y="810"/>
      <point x="224" y="776"/>
      <point x="175" y="776" type="curve" smooth="yes"/>
      <point x="126" y="776"/>
      <point x="93" y="810"/>
    </contour>
  </outline>
</glyph>
<glyph name="Eth" format="1">
  <advance width="733"/>
  <unicode hex="00D0"/>
  <outline>
    <contour>
      <point x="283" y="550" type="line"/>
      <point x="309" y="700" type="line"/>
      <point x="447" y="700" type="line" smooth="yes"/>
      <point x="676" y="700"/>
      <point x="800" y="566"/>
      <point x="762" y="350" type="curve"/>
      <point x="586" y="350" type="line"/>
      <point x="612" y="500"/>
      <point x="523" y="550"/>
      <point x="415" y="550" type="curve" smooth="yes"/>
    </contour>
    <contour>
      <point x="324" y="0" type="curve" smooth="yes"/>
      <point x="186" y="0" type="line"/>
      <point x="212" y="150" type="line"/>
      <point x="344" y="150" type="line" smooth="yes"/>
      <point x="452" y="150"/>
      <point x="560" y="200"/>
      <point x="586" y="350" type="curve"/>
      <point x="762" y="350" type="line"/>
      <point x="724" y="134"/>
      <point x="553" y="0"/>
    </contour>
    <contour>
      <point x="197" y="700" type="line"/>
      <point x="371" y="700" type="line"/>
      <point x="248" y="0" type="line"/>
      <point x="74" y="0" type="line"/>
    </contour>
    <contour>
      <point x="59" y="302" type="line"/>
      <point x="77" y="402" type="line"/>
      <point x="427" y="402" type="line"/>
      <point x="409" y="302" type="line"/>
    </contour>
  </outline>
</glyph>
<glyph name="Otilde" format="1">
  <advance width="821"/>
  <unicode hex="00D5"/>
  <outline>
    <contour>
      <point x="275" y="350" type="curve" smooth="yes"/>
      <point x="253" y="226"/>
      <point x="317" y="140"/>
      <point x="435" y="140" type="curve" smooth="yes"/>
      <point x="553" y="140"/>
      <point x="648" y="226"/>
      <point x="670" y="350" type="curve" smooth="yes"/>
      <point x="692" y="474"/>
      <point x="631" y="560"/>
      <point x="509" y="560" type="curve" smooth="yes"/>
      <point x="391" y="560"/>
      <point x="297" y="474"/>
    </contour>
    <contour>
      <point x="96" y="350" type="curve" smooth="yes"/>
      <point x="134" y="566"/>
      <point x="322" y="716"/>
      <point x="536" y="716" type="curve" smooth="yes"/>
      <point x="752" y="716"/>
      <point x="888" y="566"/>
      <point x="850" y="350" type="curve" smooth="yes"/>
      <point x="812" y="134"/>
      <point x="626" y="-22"/>
      <point x="406" y="-22" type="curve" smooth="yes"/>
      <point x="186" y="-22"/>
      <point x="58" y="134"/>
    </contour>
    <contour>
      <point x="397" y="842" type="line"/>
      <point x="416" y="891"/>
      <point x="471" y="924"/>
      <point x="516" y="924" type="curve" smooth="yes"/>
      <point x="581" y="924"/>
      <point x="578" y="877"/>
      <point x="632" y="877" type="curve" smooth="yes"/>
      <point x="651" y="877"/>
      <point x="670" y="893"/>
      <point x="696" y="925" type="curve"/>
      <point x="735" y="882" type="line"/>
      <point x="712" y="845"/>
      <point x="666" y="809"/>
      <point x="616" y="809" type="curve" smooth="yes"/>
      <point x="561" y="809"/>
      <point x="548" y="856"/>
      <point x="503" y="856" type="curve" smooth="yes"/>
      <point x="462" y="856"/>
      <point x="447" y="820"/>
      <point x="444" y="805" type="curve"/>
    </contour>
  </outline>
</glyph>
<glyph name="Odieresis" format="1">
  <advance width="821"/>
  <unicode hex="00D6"/>
  <outline>
    <contour>
      <point x="275" y="350" type="curve" smooth="yes"/>
      <point x="253" y="226"/>
      <point x="317" y="140"/>
      <point x="435" y="140" type="curve" smooth="yes"/>
      <point x="553" y="140"/>
      <point x="648" y="226"/>
      <point x="670" y="350" type="curve" smooth="yes"/>
      <point x="692" y="474"/>
      <point x="631" y="560"/>
      <point x="509" y="560" type="curve" smooth="yes"/>
      <point x="391" y="560"/>
      <point x="297" y="474"/>
    </contour>
    <contour>
      <point x="96" y="350" type="curve" smooth="yes"/>
      <point x="134" y="566"/>
      <point x="322" y="716"/>
      <point x="536" y="716" type="curve" smooth="yes"/>
      <point x="752" y="716"/>
      <point x="888" y="566"/>
      <point x="850" y="350" type="curve" smooth="yes"/>
      <point x="812" y="134"/>
      <point x="626" y="-22"/>
      <point x="406" y="-22" type="curve" smooth="yes"/>
      <point x="186" y="-22"/>
      <point x="58" y="134"/>
    </contour>
    <contour>
      <point x="595" y="858" type="curve" smooth="yes"/>
      <point x="603" y="906"/>
      <point x="649" y="940"/>
      <point x="698" y="940" type="curve" smooth="yes"/>
      <point x="747" y="940"/>
      <point x="779" y="906"/>
      <point x="771" y="858" type="curve" smooth="yes"/>
      <point x="763" y="810"/>
      <point x="718" y="776"/>
      <point x="669" y="776" type="curve" smooth="yes"/>
      <point x="620" y="776"/>
      <point x="587" y="810"/>
    </contour>
    <contour>
      <point x="351" y="858" type="curve" smooth="yes"/>
      <point x="359" y="906"/>
      <point x="405" y="940"/>
      <point x="454" y="940" type="curve" smooth="yes"/>
      <point x="503" y="940"/>
      <point x="535" y="906"/>
      <point x="527" y="858" type="curve" smooth="yes"/>
      <point x="519" y="810"/>
      <point x="474" y="776"/>
      <point x="425" y="776" type="curve" smooth="yes"/>
      <point x="376" y="776"/>
      <point x="343" y="810"/>
    </contour>
  </outline>
</glyph>
<glyph name="Uacute" format="1">
  <advance width="701"/>
  <unicode hex="00DA"/>
  <outline>
    <contour>
      <point x="191" y="700" type="line"/>
      <point x="361" y="700" type="line"/>
      <point x="281" y="242" type="line" smooth="yes"/>
      <point x="268" y="171"/>
      <point x="297" y="123"/>
      <point x="372" y="123" type="curve" smooth="yes"/>
      <point x="447" y="123"/>
      <point x="493" y="171"/>
      <point x="506" y="242" type="curve" smooth="yes"/>
      <point x="586" y="700" type="line"/>
      <point x="755" y="700" type="line"/>
      <point x="673" y="230" type="line" smooth="yes"/>
      <point x="642" y="54"/>
      <point x="503" y="-29"/>
      <point x="345" y="-29" type="curve" smooth="yes"/>
      <point x="187" y="-29"/>
      <point x="78" y="54"/>
      <point x="109" y="230" type="curve" smooth="yes"/>
    </contour>
    <contour>
      <point x="675" y="926" type="line"/>
      <point x="469" y="776" type="line"/>
      <point x="390" y="819" type="line"/>
      <point x="569" y="979" type="line"/>
    </contour>
  </outline>
</glyph>
<glyph name="Udieresis" format="1">
  <advance width="701"/>
  <unicode hex="00DC"/>
  <outline>
    <contour>
      <point x="191" y="700" type="line"/>
      <point x="361" y="700" type="line"/>
      <point x="281" y="242" type="line" smooth="yes"/>
      <point x="268" y="171"/>
      <point x="297" y="123"/>
      <point x="372" y="123" type="curve" smooth="yes"/>
      <point x="447" y="123"/>
      <point x="493" y="171"/>
      <point x="506" y="242" type="curve" smooth="yes"/>
      <point x="586" y="700" type="line"/>
      <point x="755" y="700" type="line"/>
      <point x="673" y="230" type="line" smooth="yes"/>
      <point x="642" y="54"/>
      <point x="503" y="-29"/>
      <point x="345" y="-29" type="curve" smooth="yes"/>
      <point x="187" y="-29"/>
      <point x="78" y="54"/>
      <point x="109" y="230" type="curve" smooth="yes"/>
    </contour>
    <contour>
      <point x="555" y="858" type="curve" smooth="yes"/>
      <point x="563" y="906"/>
      <point x="609" y="940"/>
      <point x="658" y="940" type="curve" smooth="yes"/>
      <point x="707" y="940"/>
      <point x="739" y="906"/>
      <point x="731" y="858" type="curve" smooth="yes"/>
      <point x="723" y="810"/>
      <point x="678" y="776"/>
      <point x="629" y="776" type="curve" smooth="yes"/>
      <point x="580" y="776"/>
      <point x="547" y="810"/>
    </contour>
    <contour>
      <point x="271" y="858" type="curve" smooth="yes"/>
      <point x="279" y="906"/>
      <point x="325" y="940"/>
      <point x="374" y="940" type="curve" smooth="yes"/>
      <point x="423" y="940"/>
      <point x="455" y="906"/>
      <point x="447" y="858" type="curve" smooth="yes"/>
      <point x="439" y="810"/>
      <point x="394" y="776"/>
      <point x="345" y="776" type="curve" smooth="yes"/>
      <point x="296" y="776"/>
      <point x="263" y="810"/>
    </contour>
  </outline>
</glyph>
<glyph name="Thorn" format="1">
  <advance width="612"/>
  <unicode hex="00DE"/>
  <outline>
    <contour>
      <point x="333" y="128" type="curve"/>
      <point x="356" y="260" type="line"/>
      <point x="433" y="260"/>
      <point x="482" y="286"/>
      <point x="494" y="353" type="curve" smooth="yes"/>
      <point x="506" y="420"/>
      <point x="466" y="446"/>
      <point x="389" y="446" type="curve"/>
      <point x="412" y="579" type="line"/>
      <point x="590" y="579"/>
      <point x="670" y="495"/>
      <point x="645" y="353" type="curve" smooth="yes"/>
      <point x="620" y="211"/>
      <point x="511" y="128"/>
    </contour>
    <contour>
      <point x="197" y="128" type="line"/>
      <point x="220" y="260" type="line"/>
      <point x="356" y="260" type="line"/>
      <point x="333" y="128" type="line"/>
    </contour>
    <contour>
      <point x="253" y="446" type="line"/>
      <point x="276" y="579" type="line"/>
      <point x="412" y="579" type="line"/>
      <point x="389" y="446" type="line"/>
    </contour>
    <contour>
      <point x="203" y="700" type="line"/>
      <point x="351" y="700" type="line"/>
      <point x="228" y="0" type="line"/>
      <point x="80" y="0" type="line"/>
    </contour>
  </outline>
</glyph>
<glyph name="germandbls" format="1">
  <advance width="591"/>
  <unicode hex="00DF"/>
  <outline>
    <contour>
      <point x="162" y="606" type="line"/>
      <point x="304" y="587" type="line"/>
      <point x="200" y="0" type="line"/>
      <point x="55" y="0" type="line"/>
    </contour>
    <contour>
      <point x="341" y="412" type="curve"/>
      <point x="357" y="505" type="line"/>
      <point x="442" y="505"/>
      <point x="471" y="540"/>
      <point x="479" y="584" type="curve" smooth="yes"/>
      <point x="487" y="631"/>
      <point x="461" y="658"/>
      <point x="402" y="658" type="curve" smooth="yes"/>
      <point x="348" y="658"/>
      <point x="312" y="632"/>
      <point x="304" y="587" type="curve"/>
      <point x="162" y="606" type="line"/>
      <point x="184" y="728"/>
      <point x="302" y="796"/>
      <point x="426" y="796" type="curve" smooth="yes"/>
      <point x="580" y="796"/>
      <point x="648" y="715"/>
      <point x="629" y="606" type="curve" smooth="yes"/>
      <point x="608" y="487"/>
      <point x="509" y="412"/>
    </contour>
    <contour>
      <point x="305" y="128" type="line"/>
      <point x="385" y="128"/>
      <point x="448" y="179"/>
      <point x="461" y="254" type="curve" smooth="yes"/>
      <point x="472" y="315"/>
      <point x="443" y="368"/>
      <point x="333" y="368" type="curve"/>
      <point x="351" y="472" type="line"/>
      <point x="519" y="472"/>
      <point x="635" y="377"/>
      <point x="608" y="225" type="curve" smooth="yes"/>
      <point x="581" y="73"/>
      <point x="452" y="-10"/>
      <point x="280" y="-10" type="curve"/>
    </contour>
  </outline>
</glyph>
<glyph name="acircumflex" format="1">
  <advance width="616"/>
  <unicode hex="00E2"/>
  <outline>
    <contour>
      <point x="489" y="460" type="line"/>
      <point x="641" y="460" type="line"/>
      <point x="560" y="0" type="line"/>
      <point x="408" y="0" type="line"/>
    </contour>
    <contour>
      <point x="73" y="230" type="curve" smooth="yes"/>
      <point x="101" y="386"/>
      <point x="221" y="470"/>
      <point x="333" y="470" type="curve" smooth="yes"/>
      <point x="448" y="470"/>
      <point x="517" y="379"/>
      <point x="491" y="230" type="curve" smooth="yes"/>
      <point x="465" y="81"/>
      <point x="363" y="-10"/>
      <point x="248" y="-10" type="curve" smooth="yes"/>
      <point x="136" y="-10"/>
      <point x="45" y="74"/>
    </contour>
    <contour>
      <point x="232" y="230" type="curve" smooth="yes"/>
      <point x="219" y="158"/>
      <point x="261" y="112"/>
      <point x="321" y="112" type="curve" smooth="yes"/>
      <point x="372" y="112"/>
      <point x="436" y="155"/>
      <point x="449" y="230" type="curve" smooth="yes"/>
      <point x="462" y="305"/>
      <point x="413" y="348"/>
      <point x="362" y="348" type="curve" smooth="yes"/>
      <point x="302" y="348"/>
      <point x="245" y="302"/>
    </contour>
    <contour>
      <point x="419" y="616" type="line"/>
      <point x="312" y="530" type="line"/>
      <point x="218" y="601" type="line"/>
      <point x="441" y="741" type="line"/>
      <point x="614" y="601" type="line"/>
      <point x="494" y="530" type="line"/>
    </contour>
  </outline>
</glyph>
<glyph name="atilde" format="1">
  <advance width="616"/>
  <unicode hex="00E3"/>
  <outline>
    <contour>
      <point x="489" y="460" type="line"/>
      <point x="641" y="460" type="line"/>
      <point x="560" y="0" type="line"/>
      <point x="408" y="0" type="line"/>
    </contour>
    <contour>
      <point x="73" y="230" type="curve" smooth="yes"/>
      <point x="101" y="386"/>
      <point x="221" y="470"/>
      <point x="333" y="470" type="curve" smooth="yes"/>
      <point x="448" y="470"/>
      <point x="517" y="379"/>
      <point x="491" y="230" type="curve" smooth="yes"/>
      <point x="465" y="81"/>
      <point x="363" y="-10"/>
      <point x="248" y="-10" type="curve" smooth="yes"/>
      <point x="136" y="-10"/>
      <point x="45" y="74"/>
    </contour>
    <contour>
      <point x="232" y="230" type="curve" smooth="yes"/>
      <point x="219" y="158"/>
      <point x="261" y="112"/>
      <point x="321" y="112" type="curve" smooth="yes"/>
      <point x="372" y="112"/>
      <point x="436" y="155"/>
      <point x="449" y="230" type="curve" smooth="yes"/>
      <point x="462" y="305"/>
      <point x="413" y="348"/>
      <point x="362" y="348" type="curve" smooth="yes"/>
      <point x="302" y="348"/>
      <point x="245" y="302"/>
    </contour>
    <contour>
      <point x="228" y="595" type="line"/>
      <point x="247" y="644"/>
      <point x="300" y="689"/>
      <point x="364" y="689" type="curve" smooth="yes"/>
      <point x="430" y="689"/>
      <point x="436" y="637"/>
      <point x="492" y="637" type="curve" smooth="yes"/>
      <point x="518" y="637"/>
      <point x="540" y="658"/>
      <point x="566" y="690" type="curve"/>
      <point x="625" y="615" type="line"/>
      <point x="602" y="578"/>
      <point x="538" y="530"/>
      <point x="476" y="530" type="curve" smooth="yes"/>
      <point x="421" y="530"/>
      <point x="395" y="583"/>
      <point x="345" y="583" type="curve" smooth="yes"/>
      <point x="307" y="583"/>
      <point x="291" y="548"/>
      <point x="288" y="533" type="curve"/>
    </contour>
  </outline>
</glyph>
<glyph name="adieresis" format="1">
  <advance width="616"/>
  <unicode hex="00E4"/>
  <outline>
    <contour>
      <point x="489" y="460" type="line"/>
      <point x="641" y="460" type="line"/>
      <point x="560" y="0" type="line"/>
      <point x="408" y="0" type="line"/>
    </contour>
    <contour>
      <point x="73" y="230" type="curve" smooth="yes"/>
      <point x="101" y="386"/>
      <point x="221" y="470"/>
      <point x="333" y="470" type="curve" smooth="yes"/>
      <point x="448" y="470"/>
      <point x="517" y="379"/>
      <point x="491" y="230" type="curve" smooth="yes"/>
      <point x="465" y="81"/>
      <point x="363" y="-10"/>
      <point x="248" y="-10" type="curve" smooth="yes"/>
      <point x="136" y="-10"/>
      <point x="45" y="74"/>
    </contour>
    <contour>
      <point x="232" y="230" type="curve" smooth="yes"/>
      <point x="219" y="158"/>
      <point x="261" y="112"/>
      <point x="321" y="112" type="curve" smooth="yes"/>
      <point x="372" y="112"/>
      <point x="436" y="155"/>
      <point x="449" y="230" type="curve" smooth="yes"/>
      <point x="462" y="305"/>
      <point x="413" y="348"/>
      <point x="362" y="348" type="curve" smooth="yes"/>
      <point x="302" y="348"/>
      <point x="245" y="302"/>
    </contour>
    <contour>
      <point x="452" y="612" type="curve" smooth="yes"/>
      <point x="460" y="660"/>
      <point x="505" y="694"/>
      <point x="554" y="694" type="curve" smooth="yes"/>
      <point x="603" y="694"/>
      <point x="636" y="660"/>
      <point x="628" y="612" type="curve" smooth="yes"/>
      <point x="620" y="564"/>
      <point x="574" y="530"/>
      <point x="525" y="530" type="curve" smooth="yes"/>
      <point x="476" y="530"/>
      <point x="444" y="564"/>
    </contour>
    <contour>
      <point x="208" y="612" type="curve" smooth="yes"/>
      <point x="216" y="660"/>
      <point x="261" y="694"/>
      <point x="310" y="694" type="curve" smooth="yes"/>
      <point x="359" y="694"/>
      <point x="392" y="660"/>
      <point x="384" y="612" type="curve" smooth="yes"/>
      <point x="376" y="564"/>
      <point x="330" y="530"/>
      <point x="281" y="530" type="curve" smooth="yes"/>
      <point x="232" y="530"/>
      <point x="200" y="564"/>
    </contour>
  </outline>
</glyph>
<glyph name="aring" format="1">
  <advance width="616"/>
  <unicode hex="00E5"/>
  <outline>
    <contour>
      <point x="489" y="460" type="line"/>
      <point x="641" y="460" type="line"/>
      <point x="560" y="0" type="line"/>
      <point x="408" y="0" type="line"/>
    </contour>
    <contour>
      <point x="73" y="230" type="curve" smooth="yes"/>
      <point x="101" y="386"/>
      <point x="221" y="470"/>
      <point x="333" y="470" type="curve" smooth="yes"/>
      <point x="448" y="470"/>
      <point x="517" y="379"/>
      <point x="491" y="230" type="curve" smooth="yes"/>
      <point x="465" y="81"/>
      <point x="363" y="-10"/>
      <point x="248" y="-10" type="curve" smooth="yes"/>
      <point x="136" y="-10"/>
      <point x="45" y="74"/>
    </contour>
    <contour>
      <point x="232" y="230" type="curve" smooth="yes"/>
      <point x="219" y="158"/>
      <point x="261" y="112"/>
      <point x="321" y="112" type="curve" smooth="yes"/>
      <point x="372" y="112"/>
      <point x="436" y="155"/>
      <point x="449" y="230" type="curve" smooth="yes"/>
      <point x="462" y="305"/>
      <point x="413" y="348"/>
      <point x="362" y="348" type="curve" smooth="yes"/>
      <point x="302" y="348"/>
      <point x="245" y="302"/>
    </contour>
    <contour>
      <point x="309" y="646" type="curve" smooth="yes"/>
      <point x="321" y="715"/>
      <point x="384" y="761"/>
      <point x="454" y="761" type="curve" smooth="yes"/>
      <point x="524" y="761"/>
      <point x="571" y="715"/>
      <point x="559" y="646" type="curve" smooth="yes"/>
      <point x="547" y="577"/>
      <point x="483" y="530"/>
      <point x="413" y="530" type="curve" smooth="yes"/>
      <point x="343" y="530"/>
      <point x="297" y="577"/>
    </contour>
    <contour>
      <point x="388" y="646" type="curve" smooth="yes"/>
      <point x="383" y="616"/>
      <point x="400" y="598"/>
      <point x="425" y="598" type="curve" smooth="yes"/>
      <point x="450" y="598"/>
      <point x="475" y="616"/>
      <point x="480" y="646" type="curve" smooth="yes"/>
      <point x="485" y="676"/>
      <point x="467" y="694"/>
      <point x="442" y="694" type="curve" smooth="yes"/>
      <point x="417" y="694"/>
      <point x="393" y="676"/>
    </contour>
  </outline>
</glyph>
<glyph name="ae" format="1">
  <advance width="896"/>
  <unicode hex="00E6"/>
  <outline>
    <contour>
      <point x="200" y="138" type="curve" smooth="yes"/>
      <point x="194" y="104"/>
      <point x="218" y="89"/>
      <point x="258" y="89" type="curve" smooth="yes"/>
      <point x="313" y="89"/>
      <point x="365" y="112"/>
      <point x="378" y="186" type="curve"/>
      <point x="439" y="130" type="line"/>
      <point x="423" y="41"/>
      <point x="342" y="-10"/>
      <point x="216" y="-10" type="curve" smooth="yes"/>
      <point x="94" y="-10"/>
      <point x="32" y="41"/>
      <point x="47" y="128" type="curve" smooth="yes"/>
      <point x="64" y="222"/>
      <point x="154" y="279"/>
      <point x="272" y="279" type="curve" smooth="yes"/>
      <point x="341" y="279"/>
      <point x="403" y="252"/>
      <point x="419" y="230" type="curve"/>
      <point x="406" y="158" type="line"/>
      <point x="377" y="184"/>
      <point x="345" y="197"/>
      <point x="293" y="197" type="curve" smooth="yes"/>
      <point x="241" y="197"/>
      <point x="206" y="174"/>
    </contour>
    <contour>
      <point x="174" y="318" type="curve"/>
      <point x="140" y="420" type="line"/>
      <point x="197" y="445"/>
      <point x="276" y="473"/>
      <point x="359" y="473" type="curve" smooth="yes"/>
      <point x="483" y="473"/>
      <point x="514" y="420"/>
      <point x="497" y="324" type="curve" smooth="yes"/>
      <point x="463" y="130" type="line"/>
      <point x="368" y="130" type="line"/>
      <point x="396" y="290" type="line" smooth="yes"/>
      <point x="403" y="329"/>
      <point x="377" y="358"/>
      <point x="327" y="358" type="curve" smooth="yes"/>
      <point x="261" y="358"/>
      <point x="198" y="331"/>
    </contour>
    <contour>
      <point x="453" y="198" type="line"/>
      <point x="468" y="282" type="line"/>
      <point x="894" y="282" type="line"/>
      <point x="895" y="198" type="line"/>
    </contour>
    <contour>
      <point x="745" y="244" type="line" smooth="yes"/>
      <point x="759" y="324"/>
      <point x="740" y="369"/>
      <point x="675" y="369" type="curve" smooth="yes"/>
      <point x="614" y="369"/>
      <point x="567" y="328"/>
      <point x="554" y="254" type="curve"/>
      <point x="548" y="230" type="line"/>
      <point x="531" y="136"/>
      <point x="573" y="100"/>
      <point x="632" y="100" type="curve" smooth="yes"/>
      <point x="686" y="100"/>
      <point x="727" y="120"/>
      <point x="756" y="158" type="curve"/>
      <point x="885" y="126" type="line"/>
      <point x="825" y="44"/>
      <point x="746" y="-10"/>
      <point x="614" y="-10" type="curve" smooth="yes"/>
      <point x="446" y="-10"/>
      <point x="406" y="91"/>
      <point x="431" y="230" type="curve" smooth="yes"/>
      <point x="434" y="247"/>
      <point x="440" y="263"/>
      <point x="446" y="279" type="curve" smooth="yes"/>
      <point x="485" y="392"/>
      <point x="581" y="470"/>
      <point x="719" y="470" type="curve" smooth="yes"/>
      <point x="854" y="470"/>
      <point x="930" y="382"/>
      <point x="904" y="237" type="curve" smooth="yes"/>
      <point x="903" y="229"/>
      <point x="900" y="214"/>
      <point x="895" y="198" type="curve"/>
      <point x="740" y="218" type="line"/>
    </contour>
  </outline>
</glyph>
<glyph name="iacute" format="1">
  <advance width="276"/>
  <unicode hex="00ED"/>
  <outline>
    <contour>
      <point x="145" y="460" type="line"/>
      <point x="292" y="460" type="line"/>
      <point x="211" y="0" type="line"/>
      <point x="64" y="0" type="line"/>
    </contour>
    <contour>
      <point x="431" y="688" type="line"/>
      <point x="225" y="538" type="line"/>
      <point x="146" y="580" type="line"/>
      <point x="324" y="740" type="line"/>
    </contour>
  </outline>
</glyph>
<glyph name="idieresis" format="1">
  <advance width="276"/>
  <unicode hex="00EF"/>
  <outline>
    <contour>
      <point x="145" y="460" type="line"/>
      <point x="292" y="460" type="line"/>
      <point x="211" y="0" type="line"/>
      <point x="64" y="0" type="line"/>
    </contour>
    <contour>
      <point x="279" y="612" type="curve" smooth="yes"/>
      <point x="287" y="660"/>
      <point x="332" y="694"/>
      <point x="381" y="694" type="curve" smooth="yes"/>
      <point x="430" y="694"/>
      <point x="463" y="660"/>
      <point x="455" y="612" type="curve" smooth="yes"/>
      <point x="447" y="564"/>
      <point x="401" y="530"/>
      <point x="352" y="530" type="curve" smooth="yes"/>
      <point x="303" y="530"/>
      <point x="271" y="564"/>
    </contour>
    <contour>
      <point x="35" y="612" type="curve" smooth="yes"/>
      <point x="43" y="660"/>
      <point x="88" y="694"/>
      <point x="137" y="694" type="curve" smooth="yes"/>
      <point x="186" y="694"/>
      <point x="219" y="660"/>
      <point x="211" y="612" type="curve" smooth="yes"/>
      <point x="203" y="564"/>
      <point x="157" y="530"/>
      <point x="108" y="530" type="curve" smooth="yes"/>
      <point x="59" y="530"/>
      <point x="27" y="564"/>
    </contour>
  </outline>
</glyph>
<glyph name="ntilde" format="1">
  <advance width="575"/>
  <unicode hex="00F1"/>
  <outline>
    <contour>
      <point x="293" y="460" type="line"/>
      <point x="212" y="0" type="line"/>
      <point x="60" y="0" type="line"/>
      <point x="141" y="460" type="line"/>
    </contour>
    <contour>
      <point x="407" y="280" type="line" smooth="yes"/>
      <point x="417" y="334"/>
      <point x="405" y="364"/>
      <point x="355" y="364" type="curve" smooth="yes"/>
      <point x="307" y="364"/>
      <point x="271" y="334"/>
      <point x="261" y="280" type="curve"/>
      <point x="230" y="274" type="line"/>
      <point x="249" y="383"/>
      <point x="321" y="470"/>
      <point x="435" y="470" type="curve" smooth="yes"/>
      <point x="549" y="470"/>
      <point x="588" y="408"/>
      <point x="568" y="296" type="curve" smooth="yes"/>
      <point x="516" y="0" type="line"/>
      <point x="358" y="0" type="line"/>
    </contour>
    <contour>
      <point x="197" y="596" type="line"/>
      <point x="216" y="645"/>
      <point x="269" y="691"/>
      <point x="333" y="691" type="curve" smooth="yes"/>
      <point x="399" y="691"/>
      <point x="404" y="639"/>
      <point x="460" y="639" type="curve" smooth="yes"/>
      <point x="486" y="639"/>
      <point x="509" y="660"/>
      <point x="535" y="692" type="curve"/>
      <point x="593" y="618" type="line"/>
      <point x="570" y="581"/>
      <point x="506" y="532"/>
      <point x="444" y="532" type="curve" smooth="yes"/>
      <point x="389" y="532"/>
      <point x="363" y="586"/>
      <point x="313" y="586" type="curve" smooth="yes"/>
      <point x="275" y="586"/>
      <point x="260" y="549"/>
      <point x="257" y="534" type="curve"/>
    </contour>
  </outline>
</glyph>
<glyph name="ograve" format="1">
  <advance width="589"/>
  <unicode hex="00F2"/>
  <outline>
    <contour>
      <point x="73" y="230" type="curve" smooth="yes"/>
      <point x="99" y="376"/>
      <point x="228" y="470"/>
      <point x="378" y="470" type="curve" smooth="yes"/>
      <point x="528" y="470"/>
      <point x="625" y="376"/>
      <point x="599" y="230" type="curve" smooth="yes"/>
      <point x="573" y="84"/>
      <point x="443" y="-10"/>
      <point x="293" y="-10" type="curve" smooth="yes"/>
      <point x="143" y="-10"/>
      <point x="47" y="84"/>
    </contour>
    <contour>
      <point x="229" y="230" type="curve" smooth="yes"/>
      <point x="216" y="159"/>
      <point x="256" y="115"/>
      <point x="315" y="115" type="curve" smooth="yes"/>
      <point x="374" y="115"/>
      <point x="430" y="159"/>
      <point x="443" y="230" type="curve" smooth="yes"/>
      <point x="456" y="301"/>
      <point x="415" y="346"/>
      <point x="356" y="346" type="curve" smooth="yes"/>
      <point x="297" y="346"/>
      <point x="242" y="301"/>
    </contour>
    <contour>
      <point x="256" y="688" type="line"/>
      <point x="380" y="740" type="line"/>
      <point x="502" y="580" type="line"/>
      <point x="410" y="538" type="line"/>
    </contour>
  </outline>
</glyph>
<glyph name="odieresis" format="1">
  <advance width="589"/>
  <unicode hex="00F6"/>
  <outline>
    <contour>
      <point x="73" y="230" type="curve" smooth="yes"/>
      <point x="99" y="376"/>
      <point x="228" y="470"/>
      <point x="378" y="470" type="curve" smooth="yes"/>
      <point x="528" y="470"/>
      <point x="625" y="376"/>
      <point x="599" y="230" type="curve" smooth="yes"/>
      <point x="573" y="84"/>
      <point x="443" y="-10"/>
      <point x="293" y="-10" type="curve" smooth="yes"/>
      <point x="143" y="-10"/>
      <point x="47" y="84"/>
    </contour>
    <contour>
      <point x="229" y="230" type="curve" smooth="yes"/>
      <point x="216" y="159"/>
      <point x="256" y="115"/>
      <point x="315" y="115" type="curve" smooth="yes"/>
      <point x="374" y="115"/>
      <point x="430" y="159"/>
      <point x="443" y="230" type="curve" smooth="yes"/>
      <point x="456" y="301"/>
      <point x="415" y="346"/>
      <point x="356" y="346" type="curve" smooth="yes"/>
      <point x="297" y="346"/>
      <point x="242" y="301"/>
    </contour>
    <contour>
      <point x="437" y="612" type="curve" smooth="yes"/>
      <point x="445" y="660"/>
      <point x="490" y="694"/>
      <point x="539" y="694" type="curve" smooth="yes"/>
      <point x="588" y="694"/>
      <point x="621" y="660"/>
      <point x="613" y="612" type="curve" smooth="yes"/>
      <point x="605" y="564"/>
      <point x="559" y="530"/>
      <point x="510" y="530" type="curve" smooth="yes"/>
      <point x="461" y="530"/>
      <point x="429" y="564"/>
    </contour>
    <contour>
      <point x="193" y="612" type="curve" smooth="yes"/>
      <point x="201" y="660"/>
      <point x="246" y="694"/>
      <point x="295" y="694" type="curve" smooth="yes"/>
      <point x="344" y="694"/>
      <point x="377" y="660"/>
      <point x="369" y="612" type="curve" smooth="yes"/>
      <point x="361" y="564"/>
      <point x="315" y="530"/>
      <point x="266" y="530" type="curve" smooth="yes"/>
      <point x="217" y="530"/>
      <point x="185" y="564"/>
    </contour>
  </outline>
</glyph>
<glyph name="oslash" format="1">
  <advance width="546"/>
  <unicode hex="00F8"/>
  <outline>
    <contour>
      <point x="73" y="230" type="curve" smooth="yes"/>
      <point x="100" y="382"/>
      <point x="230" y="470"/>
      <point x="378" y="470" type="curve" smooth="yes"/>
      <point x="526" y="470"/>
      <point x="626" y="382"/>
      <point x="599" y="230" type="curve" smooth="yes"/>
      <point x="572" y="78"/>
      <point x="441" y="-10"/>
      <point x="293" y="-10" type="curve" smooth="yes"/>
      <point x="145" y="-10"/>
      <point x="46" y="78"/>
    </contour>
    <contour>
      <point x="217" y="230" type="curve" smooth="yes"/>
      <point x="203" y="153"/>
      <point x="249" y="108"/>
      <point x="314" y="108" type="curve" smooth="yes"/>
      <point x="379" y="108"/>
      <point x="441" y="153"/>
      <point x="455" y="230" type="curve" smooth="yes"/>
      <point x="468" y="301"/>
      <point x="422" y="352"/>
      <point x="357" y="352" type="curve" smooth="yes"/>
      <point x="292" y="352"/>
      <point x="230" y="301"/>
    </contour>
    <contour>
      <point x="545" y="506" type="line"/>
      <point x="597" y="474" type="line"/>
      <point x="114" y="-50" type="line"/>
      <point x="63" y="-18" type="line"/>
    </contour>
  </outline>
</glyph>
<glyph name="udieresis" format="1">
  <advance width="575"/>
  <unicode hex="00FC"/>
  <outline>
    <contour>
      <point x="364" y="0" type="line"/>
      <point x="445" y="460" type="line"/>
      <point x="597" y="460" type="line"/>
      <point x="516" y="0" type="line"/>
    </contour>
    <contour>
      <point x="250" y="180" type="line" smooth="yes"/>
      <point x="240" y="126"/>
      <point x="251" y="96"/>
      <point x="301" y="96" type="curve" smooth="yes"/>
      <point x="349" y="96"/>
      <point x="386" y="126"/>
      <point x="396" y="180" type="curve"/>
      <point x="423" y="186" type="line"/>
      <point x="404" y="77"/>
      <point x="336" y="-10"/>
      <point x="222" y="-10" type="curve" smooth="yes"/>
      <point x="108" y="-10"/>
      <point x="69" y="52"/>
      <point x="89" y="164" type="curve" smooth="yes"/>
      <point x="141" y="460" type="line"/>
      <point x="299" y="460" type="line"/>
    </contour>
    <contour>
      <point x="430" y="612" type="curve" smooth="yes"/>
      <point x="438" y="660"/>
      <point x="483" y="694"/>
      <point x="532" y="694" type="curve" smooth="yes"/>
      <point x="581" y="694"/>
      <point x="614" y="660"/>
      <point x="606" y="612" type="curve" smooth="yes"/>
      <point x="598" y="564"/>
      <point x="552" y="530"/>
      <point x="503" y="530" type="curve" smooth="yes"/>
      <point x="454" y="530"/>
      <point x="422" y="564"/>
    </contour>
    <contour>
      <point x="186" y="612" type="curve" smooth="yes"/>
      <point x="194" y="660"/>
      <point x="239" y="694"/>
      <point x="288" y="694" type="curve" smooth="yes"/>
      <point x="337" y="694"/>
      <point x="370" y="660"/>
      <point x="362" y="612" type="curve" smooth="yes"/>
      <point x="354" y="564"/>
      <point x="308" y="530"/>
      <point x="259" y="530" type="curve" smooth="yes"/>
      <point x="210" y="530"/>
      <point x="178" y="564"/>
    </contour>
  </outline>
</glyph>
<glyph name="yacute" format="1">
  <advance width="521"/>
  <unicode hex="00FD"/>
  <outline>
    <contour>
      <point x="611" y="460" type="line"/>
      <point x="191" y="-220" type="line"/>
      <point x="39" y="-220" type="line"/>
      <point x="197" y="37" type="line"/>
      <point x="71" y="460" type="line"/>
      <point x="239" y="460" type="line"/>
      <point x="322" y="90" type="line"/>
      <point x="244" y="92" type="line"/>
      <point x="456" y="460" type="line"/>
    </contour>
    <contour>
      <point x="543" y="688" type="line"/>
      <point x="337" y="538" type="line"/>
      <point x="258" y="580" type="line"/>
      <point x="436" y="740" type="line"/>
    </contour>
  </outline>
</glyph>
<glyph name="thorn" format="1">
  <advance width="612"/>
  <unicode hex="00FE"/>
  <outline>
    <contour>
      <point x="165" y="-220" type="line"/>
      <point x="20" y="-220" type="line"/>
      <point x="197" y="780" type="line"/>
      <point x="342" y="780" type="line"/>
    </contour>
    <contour>
      <point x="621" y="230" type="curve" smooth="yes"/>
      <point x="594" y="75"/>
      <point x="473" y="-10"/>
      <point x="359" y="-10" type="curve" smooth="yes"/>
      <point x="244" y="-10"/>
      <point x="177" y="81"/>
      <point x="203" y="230" type="curve" smooth="yes"/>
      <point x="229" y="379"/>
      <point x="329" y="470"/>
      <point x="444" y="470" type="curve" smooth="yes"/>
      <point x="558" y="470"/>
      <point x="648" y="385"/>
    </contour>
    <contour>
      <point x="469" y="230" type="curve" smooth="yes"/>
      <point x="482" y="305"/>
      <point x="438" y="352"/>
      <point x="376" y="352" type="curve" smooth="yes"/>
      <point x="323" y="352"/>
      <point x="259" y="308"/>
      <point x="245" y="230" type="curve" smooth="yes"/>
      <point x="231" y="152"/>
      <point x="280" y="108"/>
      <point x="333" y="108" type="curve" smooth="yes"/>
      <point x="395" y="108"/>
      <point x="456" y="155"/>
    </contour>
  </outline>
</glyph>
<glyph name="ydieresis" format="1">
  <advance width="521"/>
  <unicode hex="00FF"/>
  <outline>
    <contour>
      <point x="611" y="460" type="line"/>
      <point x="191" y="-220" type="line"/>
      <point x="39" y="-220" type="line"/>
      <point x="197" y="37" type="line"/>
      <point x="71" y="460" type="line"/>
      <point x="239" y="460" type="line"/>
      <point x="322" y="90" type="line"/>
      <point x="244" y="92" type="line"/>
      <point x="456" y="460" type="line"/>
    </contour>
    <contour>
      <point x="402" y="612" type="curve" smooth="yes"/>
      <point x="410" y="660"/>
      <point x="455" y="694"/>
      <point x="504" y="694" type="curve" smooth="yes"/>
      <point x="553" y="694"/>
      <point x="586" y="660"/>
      <point x="578" y="612" type="curve" smooth="yes"/>
      <point x="570" y="564"/>
      <point x="524" y="530"/>
      <point x="475" y="530" type="curve" smooth="yes"/>
      <point x="426" y="530"/>
      <point x="394" y="564"/>
    </contour>
    <contour>
      <point x="158" y="612" type="curve" smooth="yes"/>
      <point x="166" y="660"/>
      <point x="211" y="694"/>
      <point x="260" y="694" type="curve" smooth="yes"/>
      <point x="309" y="694"/>
      <point x="342" y="660"/>
      <point x="334" y="612" type="curve" smooth="yes"/>
      <point x="326" y="564"/>
      <point x="280" y="530"/>
      <point x="231" y="530" type="curve" smooth="yes"/>
      <point x="182" y="530"/>
      <point x="150" y="564"/>
    </contour>
  </outline>
</glyph>
<glyph name="amacron" format="1">
  <advance width="616"/>
  <unicode hex="0101"/>
  <outline>
    <contour>
      <point x="489" y="460" type="line"/>
      <point x="641" y="460" type="line"/>
      <point x="560" y="0" type="line"/>
      <point x="408" y="0" type="line"/>
    </contour>
    <contour>
      <point x="73" y="230" type="curve" smooth="yes"/>
      <point x="101" y="386"/>
      <point x="221" y="470"/>
      <point x="333" y="470" type="curve" smooth="yes"/>
      <point x="448" y="470"/>
      <point x="517" y="379"/>
      <point x="491" y="230" type="curve" smooth="yes"/>
      <point x="465" y="81"/>
      <point x="363" y="-10"/>
      <point x="248" y="-10" type="curve" smooth="yes"/>
      <point x="136" y="-10"/>
      <point x="45" y="74"/>
    </contour>
    <contour>
      <point x="232" y="230" type="curve" smooth="yes"/>
      <point x="219" y="158"/>
      <point x="261" y="112"/>
      <point x="321" y="112" type="curve" smooth="yes"/>
      <point x="372" y="112"/>
      <point x="436" y="155"/>
      <point x="449" y="230" type="curve" smooth="yes"/>
      <point x="462" y="305"/>
      <point x="413" y="348"/>
      <point x="362" y="348" type="curve" smooth="yes"/>
      <point x="302" y="348"/>
      <point x="245" y="302"/>
    </contour>
    <contour>
      <point x="217" y="530" type="line"/>
      <point x="241" y="661" type="line"/>
      <point x="613" y="661" type="line"/>
      <point x="589" y="530" type="line"/>
    </contour>
  </outline>
</glyph>
<glyph name="aogonek" format="1">
  <advance width="616"/>
  <unicode hex="0105"/>
  <outline>
    <contour>
      <point x="489" y="460" type="line"/>
      <point x="641" y="460" type="line"/>
      <point x="560" y="0" type="line"/>
      <point x="408" y="0" type="line"/>
    </contour>
    <contour>
      <point x="73" y="230" type="curve" smooth="yes"/>
      <point x="101" y="386"/>
      <point x="221" y="470"/>
      <point x="333" y="470" type="curve" smooth="yes"/>
      <point x="448" y="470"/>
      <point x="517" y="379"/>
      <point x="491" y="230" type="curve" smooth="yes"/>
      <point x="465" y="81"/>
      <point x="363" y="-10"/>
      <point x="248" y="-10" type="curve" smooth="yes"/>
      <point x="136" y="-10"/>
      <point x="45" y="74"/>
    </contour>
    <contour>
      <point x="232" y="230" type="curve" smooth="yes"/>
      <point x="219" y="158"/>
      <point x="261" y="112"/>
      <point x="321" y="112" type="curve" smooth="yes"/>
      <point x="372" y="112"/>
      <point x="436" y="155"/>
      <point x="449" y="230" type="curve" smooth="yes"/>
      <point x="462" y="305"/>
      <point x="413" y="348"/>
      <point x="362" y="348" type="curve" smooth="yes"/>
      <point x="302" y="348"/>
      <point x="245" y="302"/>
    </contour>
    <contour>
      <point x="515" y="-111" type="curve"/>
      <point x="536" y="-180" type="line"/>
      <point x="517" y="-200"/>
      <point x="484" y="-220"/>
      <point x="428" y="-220" type="curve" smooth="yes"/>
      <point x="363" y="-220"/>
      <point x="318" y="-186"/>
      <point x="330" y="-120" type="curve"/>
      <point x="432" y="-94" type="line"/>
      <point x="428" y="-119"/>
      <point x="438" y="-131"/>
      <point x="462" y="-131" type="curve" smooth="yes"/>
      <point x="482" y="-131"/>
      <point x="499" y="-124"/>
    </contour>
    <contour>
      <point x="432" y="-94" type="curve"/>
      <point x="330" y="-120" type="line"/>
      <point x="342" y="-54"/>
      <point x="417" y="-11"/>
      <point x="493" y="25" type="curve"/>
      <point x="530" y="0" type="line"/>
      <point x="473" y="-28"/>
      <point x="437" y="-64"/>
    </contour>
  </outline>
</glyph>
<glyph name="Cacute" format="1">
  <advance width="700"/>
  <unicode hex="0106"/>
  <outline>
    <contour>
      <point x="281" y="350" type="curve" smooth="yes"/>
      <point x="258" y="222"/>
      <point x="341" y="145"/>
      <point x="454" y="145" type="curve" smooth="yes"/>
      <point x="553" y="145"/>
      <point x="624" y="188"/>
      <point x="679" y="238" type="curve"/>
      <point x="647" y="54" type="line"/>
      <point x="583" y="11"/>
      <point x="517" y="-16"/>
      <point x="415" y="-16" type="curve" smooth="yes"/>
      <point x="190" y="-16"/>
      <point x="58" y="132"/>
      <point x="96" y="350" type="curve" smooth="yes"/>
      <point x="134" y="568"/>
      <point x="319" y="716"/>
      <point x="544" y="716" type="curve" smooth="yes"/>
      <point x="646" y="716"/>
      <point x="703" y="689"/>
      <point x="751" y="646" type="curve"/>
      <point x="718" y="462" type="line"/>
      <point x="681" y="512"/>
      <point x="625" y="555"/>
      <point x="526" y="555" type="curve" smooth="yes"/>
      <point x="413" y="555"/>
      <point x="304" y="478"/>
    </contour>
    <contour>
      <point x="711" y="926" type="line"/>
      <point x="505" y="776" type="line"/>
      <point x="426" y="819" type="line"/>
      <point x="605" y="979" type="line"/>
    </contour>
  </outline>
</glyph>
<glyph name="Cdotaccent" format="1">
  <advance width="700"/>
  <unicode hex="010A"/>
  <outline>
    <contour>
      <point x="281" y="350" type="curve" smooth="yes"/>
      <point x="258" y="222"/>
      <point x="341" y="145"/>
      <point x="454" y="145" type="curve" smooth="yes"/>
      <point x="553" y="145"/>
      <point x="624" y="188"/>
      <point x="679" y="238" type="curve"/>
      <point x="647" y="54" type="line"/>
      <point x="583" y="11"/>
      <point x="517" y="-16"/>
      <point x="415" y="-16" type="curve" smooth="yes"/>
      <point x="190" y="-16"/>
      <point x="58" y="132"/>
      <point x="96" y="350" type="curve" smooth="yes"/>
      <point x="134" y="568"/>
      <point x="319" y="716"/>
      <point x="544" y="716" type="curve" smooth="yes"/>
      <point x="646" y="716"/>
      <point x="703" y="689"/>
      <point x="751" y="646" type="curve"/>
      <point x="718" y="462" type="line"/>
      <point x="681" y="512"/>
      <point x="625" y="555"/>
      <point x="526" y="555" type="curve" smooth="yes"/>
      <point x="413" y="555"/>
      <point x="304" y="478"/>
    </contour>
    <contour>
      <point x="451" y="858" type="curve" smooth="yes"/>
      <point x="459" y="906"/>
      <point x="505" y="940"/>
      <point x="554" y="940" type="curve" smooth="yes"/>
      <point x="603" y="940"/>
      <point x="635" y="906"/>
      <point x="627" y="858" type="curve" smooth="yes"/>
      <point x="619" y="810"/>
      <point x="574" y="776"/>
      <point x="525" y="776" type="curve" smooth="yes"/>
      <point x="476" y="776"/>
      <point x="443" y="810"/>
    </contour>
  </outline>
</glyph>
<glyph name="cdotaccent" format="1">
  <advance width="493"/>
  <unicode hex="010B"/>
  <outline>
    <contour>
      <point x="227" y="230" type="curve" smooth="yes"/>
      <point x="214" y="156"/>
      <point x="259" y="110"/>
      <point x="327" y="110" type="curve" smooth="yes"/>
      <point x="382" y="110"/>
      <point x="440" y="135"/>
      <point x="476" y="179" type="curve"/>
      <point x="450" y="32" type="line"/>
      <point x="413" y="6"/>
      <point x="364" y="-10"/>
      <point x="294" y="-10" type="curve" smooth="yes"/>
      <point x="140" y="-10"/>
      <point x="45" y="84"/>
      <point x="71" y="230" type="curve" smooth="yes"/>
      <point x="97" y="376"/>
      <point x="225" y="470"/>
      <point x="379" y="470" type="curve" smooth="yes"/>
      <point x="449" y="470"/>
      <point x="492" y="452"/>
      <point x="520" y="430" type="curve"/>
      <point x="494" y="282" type="line"/>
      <point x="474" y="326"/>
      <point x="419" y="350"/>
      <point x="370" y="350" type="curve" smooth="yes"/>
      <point x="302" y="350"/>
      <point x="239" y="298"/>
    </contour>
    <contour>
      <point x="286" y="612" type="curve" smooth="yes"/>
      <point x="294" y="660"/>
      <point x="339" y="694"/>
      <point x="388" y="694" type="curve" smooth="yes"/>
      <point x="437" y="694"/>
      <point x="470" y="660"/>
      <point x="462" y="612" type="curve" smooth="yes"/>
      <point x="454" y="564"/>
      <point x="408" y="530"/>
      <point x="359" y="530" type="curve" smooth="yes"/>
      <point x="310" y="530"/>
      <point x="278" y="564"/>
    </contour>
  </outline>
</glyph>
<glyph name="Dcaron" format="1">
  <advance width="733"/>
  <unicode hex="010E"/>
  <outline>
    <contour>
      <point x="283" y="550" type="line"/>
      <point x="309" y="700" type="line"/>
      <point x="447" y="700" type="line" smooth="yes"/>
      <point x="676" y="700"/>
      <point x="800" y="566"/>
      <point x="762" y="350" type="curve"/>
      <point x="586" y="350" type="line"/>
      <point x="612" y="500"/>
      <point x="523" y="550"/>
      <point x="415" y="550" type="curve" smooth="yes"/>
    </contour>
    <contour>
      <point x="324" y="0" type="curve" smooth="yes"/>
      <point x="186" y="0" type="line"/>
      <point x="212" y="150" type="line"/>
      <point x="344" y="150" type="line" smooth="yes"/>
      <point x="452" y="150"/>
      <point x="560" y="200"/>
      <point x="586" y="350" type="curve"/>
      <point x="762" y="350" type="line"/>
      <point x="724" y="134"/>
      <point x="553" y="0"/>
    </contour>
    <contour>
      <point x="197" y="700" type="line"/>
      <point x="371" y="700" type="line"/>
      <point x="248" y="0" type="line"/>
      <point x="74" y="0" type="line"/>
    </contour>
    <contour>
      <point x="523" y="902" type="line"/>
      <point x="629" y="988" type="line"/>
      <point x="723" y="916" type="line"/>
      <point x="501" y="776" type="line"/>
      <point x="328" y="916" type="line"/>
      <point x="446" y="988" type="line"/>
    </contour>
  </outline>
</glyph>
<glyph name="Ebreve" format="1">
  <advance width="603"/>
  <unicode hex="0114"/>
  <outline>
    <contour>
      <point x="186" y="0" type="line"/>
      <point x="211" y="140" type="line"/>
      <point x="565" y="140" type="line"/>
      <point x="540" y="0" type="line"/>
    </contour>
    <contour>
      <point x="285" y="560" type="line"/>
      <point x="309" y="700" type="line"/>
      <point x="663" y="700" type="line"/>
      <point x="639" y="560" type="line"/>
    </contour>
    <contour>
      <point x="239" y="300" type="line"/>
      <point x="263" y="436" type="line"/>
      <point x="597" y="436" type="line"/>
      <point x="573" y="300" type="line"/>
    </contour>
    <contour>
      <point x="197" y="700" type="line"/>
      <point x="360" y="700" type="line"/>
      <point x="237" y="0" type="line"/>
      <point x="74" y="0" type="line"/>
    </contour>
    <contour>
      <point x="305" y="922" type="curve"/>
      <point x="404" y="922" type="line"/>
      <point x="398" y="886"/>
      <point x="419" y="863"/>
      <point x="458" y="863" type="curve" smooth="yes"/>
      <point x="497" y="863"/>
      <point x="529" y="886"/>
      <point x="535" y="922" type="curve"/>
      <point x="633" y="922" type="line"/>
      <point x="619" y="840"/>
      <point x="548" y="776"/>
      <point x="443" y="776" type="curve" smooth="yes"/>
      <point x="338" y="776"/>
      <point x="291" y="840"/>
    </contour>
  </outline>
</glyph>
<glyph name="Edotaccent" format="1">
  <advance width="603"/>
  <unicode hex="0116"/>
  <outline>
    <contour>
      <point x="186" y="0" type="line"/>
      <point x="211" y="140" type="line"/>
      <point x="565" y="140" type="line"/>
      <point x="540" y="0" type="line"/>
    </contour>
    <contour>
      <point x="285" y="560" type="line"/>
      <point x="309" y="700" type="line"/>
      <point x="663" y="700" type="line"/>
      <point x="639" y="560" type="line"/>
    </contour>
    <contour>
      <point x="239" y="300" type="line"/>
      <point x="263" y="436" type="line"/>
      <point x="597" y="436" type="line"/>
      <point x="573" y="300" type="line"/>
    </contour>
    <contour>
      <point x="197" y="700" type="line"/>
      <point x="360" y="700" type="line"/>
      <point x="237" y="0" type="line"/>
      <point x="74" y="0" type="line"/>
    </contour>
    <contour>
      <point x="370" y="858" type="curve" smooth="yes"/>
      <point x="378" y="906"/>
      <point x="424" y="940"/>
      <point x="473" y="940" type="curve" smooth="yes"/>
      <point x="522" y="940"/>
      <point x="554" y="906"/>
      <point x="546" y="858" type="curve" smooth="yes"/>
      <point x="538" y="810"/>
      <point x="493" y="776"/>
      <point x="444" y="776" type="curve" smooth="yes"/>
      <point x="395" y="776"/>
      <point x="362" y="810"/>
    </contour>
  </outline>
</glyph>
<glyph name="edotaccent" format="1">
  <advance width="563"/>
  <unicode hex="0117"/>
  <outline>
    <contour>
      <point x="131" y="198" type="line"/>
      <point x="147" y="287" type="line"/>
      <point x="558" y="287" type="line"/>
      <point x="558" y="198" type="line"/>
    </contour>
    <contour>
      <point x="433" y="244" type="line" smooth="yes"/>
      <point x="446" y="318"/>
      <point x="421" y="359"/>
      <point x="351" y="359" type="curve" smooth="yes"/>
      <point x="285" y="359"/>
      <point x="234" y="322"/>
      <point x="222" y="254" type="curve"/>
      <point x="216" y="230" type="line"/>
      <point x="201" y="146"/>
      <point x="251" y="105"/>
      <point x="320" y="105" type="curve" smooth="yes"/>
      <point x="364" y="105"/>
      <point x="394" y="121"/>
      <point x="418" y="158" type="curve"/>
      <point x="536" y="116" type="line"/>
      <point x="487" y="44"/>
      <point x="414" y="-10"/>
      <point x="292" y="-10" type="curve" smooth="yes"/>
      <point x="144" y="-10"/>
      <point x="53" y="91"/>
      <point x="78" y="230" type="curve" smooth="yes"/>
      <point x="81" y="247"/>
      <point x="86" y="265"/>
      <point x="92" y="281" type="curve" smooth="yes"/>
      <point x="131" y="394"/>
      <point x="244" y="470"/>
      <point x="374" y="470" type="curve" smooth="yes"/>
      <point x="505" y="470"/>
      <point x="593" y="382"/>
      <point x="567" y="237" type="curve" smooth="yes"/>
      <point x="566" y="229"/>
      <point x="563" y="214"/>
      <point x="558" y="198" type="curve"/>
      <point x="428" y="218" type="line"/>
    </contour>
    <contour>
      <point x="311" y="612" type="curve" smooth="yes"/>
      <point x="319" y="660"/>
      <point x="364" y="694"/>
      <point x="413" y="694" type="curve" smooth="yes"/>
      <point x="462" y="694"/>
      <point x="495" y="660"/>
      <point x="487" y="612" type="curve" smooth="yes"/>
      <point x="479" y="564"/>
      <point x="433" y="530"/>
      <point x="384" y="530" type="curve" smooth="yes"/>
      <point x="335" y="530"/>
      <point x="303" y="564"/>
    </contour>
  </outline>
</glyph>
<glyph name="gbreve" format="1">
  <advance width="610"/>
  <unicode hex="011F"/>
  <outline>
    <contour>
      <point x="492" y="236" type="curve"/>
      <point x="450" y="236" type="line"/>
      <point x="463" y="311"/>
      <point x="413" y="348"/>
      <point x="362" y="348" type="curve" smooth="yes"/>
      <point x="302" y="348"/>
      <point x="246" y="308"/>
      <point x="233" y="236" type="curve"/>
      <point x="74" y="236" type="line"/>
      <point x="102" y="392"/>
      <point x="221" y="470"/>
      <point x="333" y="470" type="curve" smooth="yes"/>
      <point x="448" y="470"/>
      <point x="518" y="385"/>
    </contour>
    <contour>
      <point x="450" y="236" type="curve"/>
      <point x="492" y="236" type="line"/>
      <point x="466" y="87"/>
      <point x="365" y="2"/>
      <point x="250" y="2" type="curve" smooth="yes"/>
      <point x="138" y="2"/>
      <point x="46" y="80"/>
      <point x="74" y="236" type="curve"/>
      <point x="233" y="236" type="line"/>
      <point x="220" y="164"/>
      <point x="263" y="124"/>
      <point x="323" y="124" type="curve" smooth="yes"/>
      <point x="374" y="124"/>
      <point x="437" y="161"/>
    </contour>
    <contour>
      <point x="36" y="-33" type="curve"/>
      <point x="182" y="-33" type="line"/>
      <point x="177" y="-89"/>
      <point x="213" y="-118"/>
      <point x="272" y="-118" type="curve" smooth="yes"/>
      <point x="336" y="-118"/>
      <point x="395" y="-75"/>
      <point x="410" y="10" type="curve" smooth="yes"/>
      <point x="489" y="460" type="line"/>
      <point x="634" y="460" type="line"/>
      <point x="555" y="10" type="line" smooth="yes"/>
      <point x="524" y="-168"/>
      <point x="398" y="-240"/>
      <point x="258" y="-240" type="curve" smooth="yes"/>
      <point x="86" y="-240"/>
      <point x="25" y="-155"/>
    </contour>
    <contour>
      <point x="267" y="677" type="curve"/>
      <point x="367" y="677" type="line"/>
      <point x="361" y="641"/>
      <point x="383" y="618"/>
      <point x="422" y="618" type="curve" smooth="yes"/>
      <point x="461" y="618"/>
      <point x="491" y="641"/>
      <point x="497" y="677" type="curve"/>
      <point x="597" y="677" type="line"/>
      <point x="583" y="595"/>
      <point x="511" y="530"/>
      <point x="406" y="530" type="curve" smooth="yes"/>
      <point x="301" y="530"/>
      <point x="253" y="595"/>
    </contour>
  </outline>
</glyph>
<glyph name="Gdotaccent" format="1">
  <advance width="814"/>
  <unicode hex="0120"/>
  <outline>
    <contour>
      <point x="465" y="253" type="line"/>
      <point x="488" y="383" type="line"/>
      <point x="843" y="383" type="line"/>
      <point x="731" y="253" type="line"/>
    </contour>
    <contour>
      <point x="843" y="383" type="line"/>
      <point x="816" y="161"/>
      <point x="652" y="-22"/>
      <point x="413" y="-22" type="curve" smooth="yes"/>
      <point x="190" y="-22"/>
      <point x="57" y="128"/>
      <point x="96" y="350" type="curve" smooth="yes"/>
      <point x="135" y="572"/>
      <point x="326" y="716"/>
      <point x="549" y="716" type="curve" smooth="yes"/>
      <point x="697" y="716"/>
      <point x="787" y="647"/>
      <point x="836" y="550" type="curve"/>
      <point x="671" y="472" type="line"/>
      <point x="649" y="527"/>
      <point x="605" y="568"/>
      <point x="523" y="568" type="curve" smooth="yes"/>
      <point x="406" y="568"/>
      <point x="297" y="488"/>
      <point x="273" y="350" type="curve" smooth="yes"/>
      <point x="249" y="212"/>
      <point x="322" y="125"/>
      <point x="445" y="125" type="curve" smooth="yes"/>
      <point x="601" y="125"/>
      <point x="667" y="245"/>
      <point x="691" y="380" type="curve"/>
    </contour>
    <contour>
      <point x="486" y="858" type="curve" smooth="yes"/>
      <point x="494" y="906"/>
      <point x="540" y="940"/>
      <point x="589" y="940" type="curve" smooth="yes"/>
      <point x="638" y="940"/>
      <point x="670" y="906"/>
      <point x="662" y="858" type="curve" smooth="yes"/>
      <point x="654" y="810"/>
      <point x="609" y="776"/>
      <point x="560" y="776" type="curve" smooth="yes"/>
      <point x="511" y="776"/>
      <point x="478" y="810"/>
    </contour>
  </outline>
</glyph>
<glyph name="gdotaccent" format="1">
  <advance width="610"/>
  <unicode hex="0121"/>
  <outline>
    <contour>
      <point x="36" y="-33" type="curve"/>
      <point x="182" y="-33" type="line"/>
      <point x="177" y="-89"/>
      <point x="213" y="-118"/>
      <point x="272" y="-118" type="curve" smooth="yes"/>
      <point x="336" y="-118"/>
      <point x="395" y="-75"/>
      <point x="410" y="10" type="curve" smooth="yes"/>
      <point x="489" y="460" type="line"/>
      <point x="634" y="460" type="line"/>
      <point x="555" y="10" type="line" smooth="yes"/>
      <point x="524" y="-168"/>
      <point x="398" y="-240"/>
      <point x="258" y="-240" type="curve" smooth="yes"/>
      <point x="86" y="-240"/>
      <point x="25" y="-155"/>
    </contour>
    <contour>
      <point x="74" y="236" type="curve" smooth="yes"/>
      <point x="102" y="392"/>
      <point x="221" y="470"/>
      <point x="333" y="470" type="curve" smooth="yes"/>
      <point x="448" y="470"/>
      <point x="518" y="385"/>
      <point x="492" y="236" type="curve" smooth="yes"/>
      <point x="466" y="87"/>
      <point x="365" y="2"/>
      <point x="250" y="2" type="curve" smooth="yes"/>
      <point x="138" y="2"/>
      <point x="46" y="80"/>
    </contour>
    <contour>
      <point x="233" y="236" type="curve" smooth="yes"/>
      <point x="220" y="164"/>
      <point x="263" y="124"/>
      <point x="323" y="124" type="curve" smooth="yes"/>
      <point x="374" y="124"/>
      <point x="437" y="161"/>
      <point x="450" y="236" type="curve" smooth="yes"/>
      <point x="463" y="311"/>
      <point x="413" y="348"/>
      <point x="362" y="348" type="curve" smooth="yes"/>
      <point x="302" y="348"/>
      <point x="246" y="308"/>
    </contour>
    <contour>
      <point x="351" y="617" type="curve" smooth="yes"/>
      <point x="359" y="665"/>
      <point x="404" y="699"/>
      <point x="453" y="699" type="curve" smooth="yes"/>
      <point x="502" y="699"/>
      <point x="535" y="665"/>
      <point x="527" y="617" type="curve" smooth="yes"/>
      <point x="519" y="569"/>
      <point x="473" y="535"/>
      <point x="424" y="535" type="curve" smooth="yes"/>
      <point x="375" y="535"/>
      <point x="343" y="569"/>
    </contour>
  </outline>
</glyph>
<glyph name="Hcircumflex" format="1">
  <advance width="786"/>
  <unicode hex="0124"/>
  <outline>
    <contour>
      <point x="172" y="293" type="line"/>
      <point x="198" y="445" type="line"/>
      <point x="728" y="445" type="line"/>
      <point x="702" y="293" type="line"/>
    </contour>
    <contour>
      <point x="667" y="700" type="line"/>
      <point x="836" y="700" type="line"/>
      <point x="713" y="0" type="line"/>
      <point x="544" y="0" type="line"/>
    </contour>
    <contour>
      <point x="197" y="700" type="line"/>
      <point x="366" y="700" type="line"/>
      <point x="243" y="0" type="line"/>
      <point x="74" y="0" type="line"/>
    </contour>
    <contour>
      <point x="546" y="862" type="line"/>
      <point x="439" y="776" type="line"/>
      <point x="346" y="848" type="line"/>
      <point x="568" y="988" type="line"/>
      <point x="741" y="848" type="line"/>
      <point x="622" y="776" type="line"/>
    </contour>
  </outline>
</glyph>
<glyph name="itilde" format="1">
  <advance width="276"/>
  <unicode hex="0129"/>
  <outline>
    <contour>
      <point x="145" y="460" type="line"/>
      <point x="292" y="460" type="line"/>
      <point x="211" y="0" type="line"/>
      <point x="64" y="0" type="line"/>
    </contour>
    <contour>
      <point x="47" y="596" type="line"/>
      <point x="66" y="645"/>
      <point x="119" y="691"/>
      <point x="183" y="691" type="curve" smooth="yes"/>
      <point x="249" y="691"/>
      <point x="255" y="639"/>
      <point x="311" y="639" type="curve" smooth="yes"/>
      <point x="337" y="639"/>
      <point x="360" y="660"/>
      <point x="386" y="692" type="curve"/>
      <point x="443" y="618" type="line"/>
      <point x="420" y="581"/>
      <point x="356" y="532"/>
      <point x="294" y="532" type="curve" smooth="yes"/>
      <point x="239" y="532"/>
      <point x="213" y="586"/>
      <point x="163" y="586" type="curve" smooth="yes"/>
      <point x="125" y="586"/>
      <point x="110" y="549"/>
      <point x="107" y="534" type="curve"/>
    </contour>
  </outline>
</glyph>
<glyph name="Imacron" format="1">
  <advance width="320"/>
  <unicode hex="012A"/>
  <outline>
    <contour>
      <point x="197" y="700" type="line"/>
      <point x="369" y="700" type="line"/>
      <point x="246" y="0" type="line"/>
      <point x="74" y="0" type="line"/>
    </contour>
    <contour>
      <point x="111" y="776" type="line"/>
      <point x="134" y="908" type="line"/>
      <point x="506" y="908" type="line"/>
      <point x="483" y="776" type="line"/>
    </contour>
  </outline>
</glyph>
<glyph name="imacron" format="1">
  <advance width="276"/>
  <unicode hex="012B"/>
  <outline>
    <contour>
      <point x="145" y="460" type="line"/>
      <point x="292" y="460" type="line"/>
      <point x="211" y="0" type="line"/>
      <point x="64" y="0" type="line"/>
    </contour>
    <contour>
      <point x="45" y="530" type="line"/>
      <point x="69" y="662" type="line"/>
      <point x="441" y="662" type="line"/>
      <point x="417" y="530" type="line"/>
    </contour>
  </outline>
</glyph>
<glyph name="iogonek" format="1">
  <advance width="276"/>
  <unicode hex="012F"/>
  <outline>
    <contour>
      <point x="161" y="632" type="curve" smooth="yes"/>
      <point x="169" y="680"/>
      <point x="215" y="714"/>
      <point x="264" y="714" type="curve" smooth="yes"/>
      <point x="313" y="714"/>
      <point x="345" y="680"/>
      <point x="337" y="632" type="curve" smooth="yes"/>
      <point x="329" y="584"/>
      <point x="284" y="550"/>
      <point x="235" y="550" type="curve" smooth="yes"/>
      <point x="186" y="550"/>
      <point x="153" y="584"/>
    </contour>
    <contour>
      <point x="145" y="460" type="line"/>
      <point x="292" y="460" type="line"/>
      <point x="211" y="0" type="line"/>
      <point x="64" y="0" type="line"/>
    </contour>
    <contour>
      <point x="182" y="-116" type="curve"/>
      <point x="204" y="-184" type="line"/>
      <point x="185" y="-204"/>
      <point x="153" y="-224"/>
      <point x="97" y="-224" type="curve" smooth="yes"/>
      <point x="32" y="-224"/>
      <point x="-16" y="-190"/>
      <point x="-4" y="-124" type="curve"/>
      <point x="100" y="-98" type="line"/>
      <point x="96" y="-123"/>
      <point x="104" y="-136"/>
      <point x="128" y="-136" type="curve" smooth="yes"/>
      <point x="148" y="-136"/>
      <point x="166" y="-129"/>
    </contour>
    <contour>
      <point x="100" y="-98" type="curve"/>
      <point x="-4" y="-124" type="line"/>
      <point x="8" y="-58"/>
      <point x="84" y="-16"/>
      <point x="160" y="20" type="curve"/>
      <point x="197" y="-4" type="line"/>
      <point x="140" y="-32"/>
      <point x="105" y="-68"/>
    </contour>
  </outline>
</glyph>
<glyph name="Idotaccent" format="1">
  <advance width="320"/>
  <unicode hex="0130"/>
  <outline>
    <contour>
      <point x="197" y="700" type="line"/>
      <point x="369" y="700" type="line"/>
      <point x="246" y="0" type="line"/>
      <point x="74" y="0" type="line"/>
    </contour>
    <contour>
      <point x="223" y="858" type="curve" smooth="yes"/>
      <point x="231" y="906"/>
      <point x="277" y="940"/>
      <point x="326" y="940" type="curve" smooth="yes"/>
      <point x="375" y="940"/>
      <point x="407" y="906"/>
      <point x="399" y="858" type="curve" smooth="yes"/>
      <point x="391" y="810"/>
      <point x="346" y="776"/>
      <point x="297" y="776" type="curve" smooth="yes"/>
      <point x="248" y="776"/>
      <point x="215" y="810"/>
    </contour>
  </outline>
</glyph>
<glyph name="lacute" format="1">
  <advance width="270"/>
  <unicode hex="013A"/>
  <outline>
    <contour>
      <point x="198" y="780" type="line"/>
      <point x="350" y="780" type="line"/>
      <point x="212" y="0" type="line"/>
      <point x="60" y="0" type="line"/>
    </contour>
    <contour>
      <point x="472" y="990" type="line"/>
      <point x="265" y="840" type="line"/>
      <point x="187" y="882" type="line"/>
      <point x="365" y="1042" type="line"/>
    </contour>
  </outline>
</glyph>
<glyph name="uni013B" format="1">
  <advance width="528"/>
  <unicode hex="013B"/>
  <outline>
    <contour>
      <point x="186" y="0" type="line"/>
      <point x="212" y="146" type="line"/>
      <point x="550" y="146" type="line"/>
      <point x="524" y="0" type="line"/>
    </contour>
    <contour>
      <point x="197" y="700" type="line"/>
      <point x="366" y="700" type="line"/>
      <point x="243" y="0" type="line"/>
      <point x="74" y="0" type="line"/>
    </contour>
    <contour>
      <point x="256" y="-60" type="line"/>
      <point x="403" y="-92" type="line"/>
      <point x="234" y="-342" type="line"/>
      <point x="123" y="-319" type="line"/>
    </contour>
  </outline>
</glyph>
<glyph name="Lcaron" format="1">
  <advance width="528"/>
  <unicode hex="013D"/>
  <outline>
    <contour>
      <point x="186" y="0" type="line"/>
      <point x="212" y="146" type="line"/>
      <point x="550" y="146" type="line"/>
      <point x="524" y="0" type="line"/>
    </contour>
    <contour>
      <point x="197" y="700" type="line"/>
      <point x="366" y="700" type="line"/>
      <point x="243" y="0" type="line"/>
      <point x="74" y="0" type="line"/>
    </contour>
    <contour>
      <point x="516" y="716" type="line"/>
      <point x="663" y="684" type="line"/>
      <point x="493" y="434" type="line"/>
      <point x="383" y="458" type="line"/>
    </contour>
  </outline>
</glyph>
<glyph name="Ldot" format="1">
  <advance width="528"/>
  <unicode hex="013F"/>
  <outline>
    <contour>
      <point x="186" y="0" type="line"/>
      <point x="212" y="146" type="line"/>
      <point x="550" y="146" type="line"/>
      <point x="524" y="0" type="line"/>
    </contour>
    <contour>
      <point x="197" y="700" type="line"/>
      <point x="366" y="700" type="line"/>
      <point x="243" y="0" type="line"/>
      <point x="74" y="0" type="line"/>
    </contour>
    <contour>
      <point x="388" y="418" type="curve" smooth="yes"/>
      <point x="397" y="468"/>
      <point x="444" y="510"/>
      <point x="499" y="510" type="curve" smooth="yes"/>
      <point x="554" y="510"/>
      <point x="586" y="468"/>
      <point x="577" y="418" type="curve" smooth="yes"/>
      <point x="568" y="368"/>
      <point x="521" y="326"/>
      <point x="466" y="326" type="curve" smooth="yes"/>
      <point x="411" y="326"/>
      <point x="379" y="368"/>
    </contour>
  </outline>
</glyph>
<glyph name="ldot" format="1">
  <advance width="476"/>
  <unicode hex="0140"/>
  <outline>
    <contour>
      <point x="198" y="780" type="line"/>
      <point x="350" y="780" type="line"/>
      <point x="212" y="0" type="line"/>
      <point x="60" y="0" type="line"/>
    </contour>
    <contour>
      <point x="324" y="408" type="curve" smooth="yes"/>
      <point x="333" y="458"/>
      <point x="380" y="501"/>
      <point x="435" y="501" type="curve" smooth="yes"/>
      <point x="490" y="501"/>
      <point x="523" y="458"/>
      <point x="514" y="408" type="curve" smooth="yes"/>
      <point x="505" y="358"/>
      <point x="458" y="316"/>
      <point x="403" y="316" type="curve" smooth="yes"/>
      <point x="348" y="316"/>
      <point x="315" y="358"/>
    </contour>
  </outline>
</glyph>
<glyph name="Lslash" format="1">
  <advance width="526"/>
  <unicode hex="0141"/>
  <outline>
    <contour>
      <point x="60" y="312" type="line"/>
      <point x="36" y="384" type="line"/>
      <point x="433" y="622" type="line"/>
      <point x="457" y="550" type="line"/>
    </contour>
    <contour>
      <point x="198" y="0" type="line"/>
      <point x="223" y="140" type="line"/>
      <point x="542" y="140" type="line"/>
      <point x="517" y="0" type="line"/>
    </contour>
    <contour>
      <point x="197" y="700" type="line"/>
      <point x="359" y="700" type="line"/>
      <point x="236" y="0" type="line"/>
      <point x="74" y="0" type="line"/>
    </contour>
  </outline>
</glyph>
<glyph name="lslash" format="1">
  <advance width="266"/>
  <unicode hex="0142"/>
  <outline>
    <contour>
      <point x="49" y="312" type="line"/>
      <point x="25" y="384" type="line"/>
      <point x="385" y="596" type="line"/>
      <point x="409" y="524" type="line"/>
    </contour>
    <contour>
      <point x="199" y="780" type="line"/>
      <point x="344" y="780" type="line"/>
      <point x="206" y="0" type="line"/>
      <point x="61" y="0" type="line"/>
    </contour>
  </outline>
</glyph>
<glyph name="nacute" format="1">
  <advance width="575"/>
  <unicode hex="0144"/>
  <outline>
    <contour>
      <point x="293" y="460" type="line"/>
      <point x="212" y="0" type="line"/>
      <point x="60" y="0" type="line"/>
      <point x="141" y="460" type="line"/>
    </contour>
    <contour>
      <point x="407" y="280" type="line" smooth="yes"/>
      <point x="417" y="334"/>
      <point x="405" y="364"/>
      <point x="355" y="364" type="curve" smooth="yes"/>
      <point x="307" y="364"/>
      <point x="271" y="334"/>
      <point x="261" y="280" type="curve"/>
      <point x="230" y="274" type="line"/>
      <point x="249" y="383"/>
      <point x="321" y="470"/>
      <point x="435" y="470" type="curve" smooth="yes"/>
      <point x="549" y="470"/>
      <point x="588" y="408"/>
      <point x="568" y="296" type="curve" smooth="yes"/>
      <point x="516" y="0" type="line"/>
      <point x="358" y="0" type="line"/>
    </contour>
    <contour>
      <point x="568" y="680" type="line"/>
      <point x="361" y="530" type="line"/>
      <point x="284" y="573" type="line"/>
      <point x="462" y="733" type="line"/>
    </contour>
  </outline>
</glyph>
<glyph name="Ncaron" format="1">
  <advance width="793"/>
  <unicode hex="0147"/>
  <outline>
    <contour>
      <point x="170" y="524" type="line"/>
      <point x="204" y="735" type="line"/>
      <point x="746" y="176" type="line"/>
      <point x="714" y="-35" type="line"/>
    </contour>
    <contour>
      <point x="680" y="700" type="line"/>
      <point x="843" y="700" type="line"/>
      <point x="714" y="-35" type="line"/>
      <point x="583" y="150" type="line"/>
    </contour>
    <contour>
      <point x="204" y="735" type="line"/>
      <point x="334" y="550" type="line"/>
      <point x="237" y="0" type="line"/>
      <point x="74" y="0" type="line"/>
    </contour>
    <contour>
      <point x="534" y="902" type="line"/>
      <point x="640" y="988" type="line"/>
      <point x="734" y="916" type="line"/>
      <point x="512" y="776" type="line"/>
      <point x="340" y="916" type="line"/>
      <point x="458" y="988" type="line"/>
    </contour>
  </outline>
</glyph>
<glyph name="Omacron" format="1">
  <advance width="821"/>
  <unicode hex="014C"/>
  <outline>
    <contour>
      <point x="275" y="350" type="curve" smooth="yes"/>
      <point x="253" y="226"/>
      <point x="317" y="140"/>
      <point x="435" y="140" type="curve" smooth="yes"/>
      <point x="553" y="140"/>
      <point x="648" y="226"/>
      <point x="670" y="350" type="curve" smooth="yes"/>
      <point x="692" y="474"/>
      <point x="631" y="560"/>
      <point x="509" y="560" type="curve" smooth="yes"/>
      <point x="391" y="560"/>
      <point x="297" y="474"/>
    </contour>
    <contour>
      <point x="96" y="350" type="curve" smooth="yes"/>
      <point x="134" y="566"/>
      <point x="322" y="716"/>
      <point x="536" y="716" type="curve" smooth="yes"/>
      <point x="752" y="716"/>
      <point x="888" y="566"/>
      <point x="850" y="350" type="curve" smooth="yes"/>
      <point x="812" y="134"/>
      <point x="626" y="-22"/>
      <point x="406" y="-22" type="curve" smooth="yes"/>
      <point x="186" y="-22"/>
      <point x="58" y="134"/>
    </contour>
    <contour>
      <point x="362" y="776" type="line"/>
      <point x="385" y="908" type="line"/>
      <point x="756" y="908" type="line"/>
      <point x="733" y="776" type="line"/>
    </contour>
  </outline>
</glyph>
<glyph name="Obreve" format="1">
  <advance width="821"/>
  <unicode hex="014E"/>
  <outline>
    <contour>
      <point x="275" y="350" type="curve" smooth="yes"/>
      <point x="253" y="226"/>
      <point x="317" y="140"/>
      <point x="435" y="140" type="curve" smooth="yes"/>
      <point x="553" y="140"/>
      <point x="648" y="226"/>
      <point x="670" y="350" type="curve" smooth="yes"/>
      <point x="692" y="474"/>
      <point x="631" y="560"/>
      <point x="509" y="560" type="curve" smooth="yes"/>
      <point x="391" y="560"/>
      <point x="297" y="474"/>
    </contour>
    <contour>
      <point x="96" y="350" type="curve" smooth="yes"/>
      <point x="134" y="566"/>
      <point x="322" y="716"/>
      <point x="536" y="716" type="curve" smooth="yes"/>
      <point x="752" y="716"/>
      <point x="888" y="566"/>
      <point x="850" y="350" type="curve" smooth="yes"/>
      <point x="812" y="134"/>
      <point x="626" y="-22"/>
      <point x="406" y="-22" type="curve" smooth="yes"/>
      <point x="186" y="-22"/>
      <point x="58" y="134"/>
    </contour>
    <contour>
      <point x="409" y="922" type="curve"/>
      <point x="509" y="922" type="line"/>
      <point x="503" y="886"/>
      <point x="523" y="863"/>
      <point x="562" y="863" type="curve" smooth="yes"/>
      <point x="601" y="863"/>
      <point x="633" y="886"/>
      <point x="639" y="922" type="curve"/>
      <point x="738" y="922" type="line"/>
      <point x="724" y="840"/>
      <point x="652" y="776"/>
      <point x="547" y="776" type="curve" smooth="yes"/>
      <point x="442" y="776"/>
      <point x="395" y="840"/>
    </contour>
  </outline>
</glyph>
<glyph name="obreve" format="1">
  <advance width="589"/>
  <unicode hex="014F"/>
  <outline>
    <contour>
      <point x="73" y="230" type="curve" smooth="yes"/>
      <point x="99" y="376"/>
      <point x="228" y="470"/>
      <point x="378" y="470" type="curve" smooth="yes"/>
      <point x="528" y="470"/>
      <point x="625" y="376"/>
      <point x="599" y="230" type="curve" smooth="yes"/>
      <point x="573" y="84"/>
      <point x="443" y="-10"/>
      <point x="293" y="-10" type="curve" smooth="yes"/>
      <point x="143" y="-10"/>
      <point x="47" y="84"/>
    </contour>
    <contour>
      <point x="229" y="230" type="curve" smooth="yes"/>
      <point x="216" y="159"/>
      <point x="256" y="115"/>
      <point x="315" y="115" type="curve" smooth="yes"/>
      <point x="374" y="115"/>
      <point x="430" y="159"/>
      <point x="443" y="230" type="curve" smooth="yes"/>
      <point x="456" y="301"/>
      <point x="415" y="346"/>
      <point x="356" y="346" type="curve" smooth="yes"/>
      <point x="297" y="346"/>
      <point x="242" y="301"/>
    </contour>
    <contour>
      <point x="249" y="677" type="curve"/>
      <point x="349" y="677" type="line"/>
      <point x="343" y="641"/>
      <point x="365" y="618"/>
      <point x="404" y="618" type="curve" smooth="yes"/>
      <point x="443" y="618"/>
      <point x="473" y="641"/>
      <point x="479" y="677" type="curve"/>
      <point x="578" y="677" type="line"/>
      <point x="564" y="595"/>
      <point x="493" y="530"/>
      <point x="388" y="530" type="curve" smooth="yes"/>
      <point x="283" y="530"/>
      <point x="235" y="595"/>
    </contour>
  </outline>
</glyph>
<glyph name="uni0156" format="1">
  <advance width="647"/>
  <unicode hex="0156"/>
  <outline>
    <contour>
      <point x="304" y="317" type="line"/>
      <point x="481" y="317" type="line"/>
      <point x="644" y="0" type="line"/>
      <point x="445" y="0" type="line"/>
    </contour>
    <contour>
      <point x="197" y="700" type="line"/>
      <point x="366" y="700" type="line"/>
      <point x="243" y="0" type="line"/>
      <point x="74" y="0" type="line"/>
    </contour>
    <contour>
      <point x="278" y="556" type="line"/>
      <point x="303" y="700" type="line"/>
      <point x="453" y="700" type="line" smooth="yes"/>
      <point x="631" y="700"/>
      <point x="709" y="607"/>
      <point x="685" y="471" type="curve" smooth="yes"/>
      <point x="661" y="335"/>
      <point x="551" y="242"/>
      <point x="373" y="242" type="curve" smooth="yes"/>
      <point x="223" y="242" type="line"/>
      <point x="246" y="374" type="line"/>
      <point x="383" y="374" type="line" smooth="yes"/>
      <point x="451" y="374"/>
      <point x="498" y="407"/>
      <point x="508" y="465" type="curve" smooth="yes"/>
      <point x="518" y="523"/>
      <point x="483" y="556"/>
      <point x="415" y="556" type="curve" smooth="yes"/>
    </contour>
    <contour>
      <point x="316" y="-60" type="line"/>
      <point x="462" y="-92" type="line"/>
      <point x="294" y="-342" type="line"/>
      <point x="183" y="-319" type="line"/>
    </contour>
  </outline>
</glyph>
<glyph name="uni0157" format="1">
  <advance width="411"/>
  <unicode hex="0157"/>
  <outline>
    <contour>
      <point x="289" y="460" type="line"/>
      <point x="208" y="0" type="line"/>
      <point x="60" y="0" type="line"/>
      <point x="141" y="460" type="line"/>
    </contour>
    <contour>
      <point x="394" y="303" type="line"/>
      <point x="381" y="319"/>
      <point x="366" y="330"/>
      <point x="340" y="330" type="curve" smooth="yes"/>
      <point x="296" y="330"/>
      <point x="260" y="293"/>
      <point x="248" y="227" type="curve"/>
      <point x="221" y="280" type="line"/>
      <point x="240" y="389"/>
      <point x="329" y="471"/>
      <point x="407" y="471" type="curve" smooth="yes"/>
      <point x="440" y="471"/>
      <point x="471" y="456"/>
      <point x="483" y="433" type="curve"/>
    </contour>
    <contour>
      <point x="91" y="-60" type="line"/>
      <point x="238" y="-92" type="line"/>
      <point x="68" y="-342" type="line"/>
      <point x="-42" y="-319" type="line"/>
    </contour>
  </outline>
</glyph>
<glyph name="Scedilla" format="1">
  <advance width="625"/>
  <unicode hex="015E"/>
  <outline>
    <contour>
      <point x="197" y="251" type="line"/>
      <point x="230" y="167"/>
      <point x="271" y="125"/>
      <point x="345" y="125" type="curve" smooth="yes"/>
      <point x="400" y="125"/>
      <point x="434" y="148"/>
      <point x="442" y="193" type="curve" smooth="yes"/>
      <point x="452" y="252"/>
      <point x="391" y="270"/>
      <point x="317" y="302" type="curve" smooth="yes"/>
      <point x="253" y="329"/>
      <point x="142" y="384"/>
      <point x="166" y="520" type="curve" smooth="yes"/>
      <point x="187" y="638"/>
      <point x="302" y="716"/>
      <point x="447" y="716" type="curve" smooth="yes"/>
      <point x="597" y="716"/>
      <point x="661" y="633"/>
      <point x="676" y="562" type="curve"/>
      <point x="536" y="489" type="line"/>
      <point x="515" y="541"/>
      <point x="483" y="572"/>
      <point x="429" y="572" type="curve" smooth="yes"/>
      <point x="380" y="572"/>
      <point x="345" y="550"/>
      <point x="339" y="514" type="curve" smooth="yes"/>
      <point x="331" y="466"/>
      <point x="403" y="443"/>
      <point x="481" y="413" type="curve" smooth="yes"/>
      <point x="573" y="379"/>
      <point x="642" y="316"/>
      <point x="621" y="196" type="curve" smooth="yes"/>
      <point x="596" y="54"/>
      <point x="479" y="-22"/>
      <point x="315" y="-22" type="curve" smooth="yes"/>
      <point x="187" y="-22"/>
      <point x="88" y="53"/>
      <point x="64" y="168" type="curve"/>
    </contour>
    <contour>
      <point x="302" y="61" type="line"/>
      <point x="411" y="57" type="line"/>
      <point x="280" y="-90" type="line"/>
      <point x="180" y="-134" type="line"/>
    </contour>
    <contour>
      <point x="415" y="-159" type="curve"/>
      <point x="320" y="-150" type="line"/>
      <point x="325" y="-124"/>
      <point x="296" y="-118"/>
      <point x="265" y="-118" type="curve" smooth="yes"/>
      <point x="255" y="-118"/>
      <point x="219" y="-119"/>
      <point x="180" y="-134" type="curve"/>
      <point x="252" y="-90" type="line"/>
      <point x="283" y="-65"/>
      <point x="309" y="-61"/>
      <point x="341" y="-61" type="curve" smooth="yes"/>
      <point x="381" y="-61"/>
      <point x="427" y="-93"/>
    </contour>
    <contour>
      <point x="415" y="-159" type="line"/>
      <point x="402" y="-231"/>
      <point x="328" y="-268"/>
      <point x="265" y="-268" type="curve" smooth="yes"/>
      <point x="209" y="-268"/>
      <point x="170" y="-258"/>
      <point x="128" y="-228" type="curve"/>
      <point x="186" y="-160" type="line"/>
      <point x="209" y="-178"/>
      <point x="239" y="-185"/>
      <point x="259" y="-185" type="curve" smooth="yes"/>
      <point x="293" y="-185"/>
      <point x="316" y="-174"/>
      <point x="320" y="-150" type="curve"/>
    </contour>
  </outline>
</glyph>
<glyph name="Scaron" format="1">
  <advance width="625"/>
  <unicode hex="0160"/>
  <outline>
    <contour>
      <point x="197" y="251" type="line"/>
      <point x="230" y="167"/>
      <point x="271" y="125"/>
      <point x="345" y="125" type="curve" smooth="yes"/>
      <point x="400" y="125"/>
      <point x="434" y="148"/>
      <point x="442" y="193" type="curve" smooth="yes"/>
      <point x="452" y="252"/>
      <point x="391" y="270"/>
      <point x="317" y="302" type="curve" smooth="yes"/>
      <point x="253" y="329"/>
      <point x="142" y="384"/>
      <point x="166" y="520" type="curve" smooth="yes"/>
      <point x="187" y="638"/>
      <point x="302" y="716"/>
      <point x="447" y="716" type="curve" smooth="yes"/>
      <point x="597" y="716"/>
      <point x="661" y="633"/>
      <point x="676" y="562" type="curve"/>
      <point x="536" y="489" type="line"/>
      <point x="515" y="541"/>
      <point x="483" y="572"/>
      <point x="429" y="572" type="curve" smooth="yes"/>
      <point x="380" y="572"/>
      <point x="345" y="550"/>
      <point x="339" y="514" type="curve" smooth="yes"/>
      <point x="331" y="466"/>
      <point x="403" y="443"/>
      <point x="481" y="413" type="curve" smooth="yes"/>
      <point x="573" y="379"/>
      <point x="642" y="316"/>
      <point x="621" y="196" type="curve" smooth="yes"/>
      <point x="596" y="54"/>
      <point x="479" y="-22"/>
      <point x="315" y="-22" type="curve" smooth="yes"/>
      <point x="187" y="-22"/>
      <point x="88" y="53"/>
      <point x="64" y="168" type="curve"/>
    </contour>
    <contour>
      <point x="480" y="902" type="line"/>
      <point x="586" y="988" type="line"/>
      <point x="680" y="916" type="line"/>
      <point x="458" y="776" type="line"/>
      <point x="286" y="916" type="line"/>
      <point x="404" y="988" type="line"/>
    </contour>
  </outline>
</glyph>
<glyph name="Ydieresis" format="1">
  <advance width="660"/>
  <unicode hex="0178"/>
  <outline>
    <contour>
      <point x="307" y="360" type="line"/>
      <point x="479" y="360" type="line"/>
      <point x="416" y="0" type="line"/>
      <point x="244" y="0" type="line"/>
    </contour>
    <contour>
      <point x="589" y="700" type="line"/>
      <point x="785" y="700" type="line"/>
      <point x="354" y="138" type="line"/>
      <point x="121" y="700" type="line"/>
      <point x="317" y="700" type="line"/>
      <point x="407" y="437" type="line"/>
    </contour>
    <contour>
      <point x="535" y="858" type="curve" smooth="yes"/>
      <point x="543" y="906"/>
      <point x="589" y="940"/>
      <point x="638" y="940" type="curve" smooth="yes"/>
      <point x="687" y="940"/>
      <point x="719" y="906"/>
      <point x="711" y="858" type="curve" smooth="yes"/>
      <point x="703" y="810"/>
      <point x="658" y="776"/>
      <point x="609" y="776" type="curve" smooth="yes"/>
      <point x="560" y="776"/>
      <point x="527" y="810"/>
    </contour>
    <contour>
      <point x="251" y="858" type="curve" smooth="yes"/>
      <point x="259" y="906"/>
      <point x="305" y="940"/>
      <point x="354" y="940" type="curve" smooth="yes"/>
      <point x="403" y="940"/>
      <point x="435" y="906"/>
      <point x="427" y="858" type="curve" smooth="yes"/>
      <point x="419" y="810"/>
      <point x="374" y="776"/>
      <point x="325" y="776" type="curve" smooth="yes"/>
      <point x="276" y="776"/>
      <point x="243" y="810"/>
    </contour>
  </outline>
</glyph>
<glyph name="Zacute" format="1">
  <advance width="620"/>
  <unicode hex="0179"/>
  <outline>
    <contour>
      <point x="154" y="548" type="line"/>
      <point x="180" y="700" type="line"/>
      <point x="729" y="700" type="line"/>
      <point x="300" y="146" type="line"/>
      <point x="596" y="146" type="line"/>
      <point x="570" y="0" type="line"/>
      <point x="8" y="0" type="line"/>
      <point x="433" y="548" type="line"/>
    </contour>
    <contour>
      <point x="654.077" y="926" type="line"/>
      <point x="448.077" y="776" type="line"/>
      <point x="369.077" y="818" type="line"/>
      <point x="547.077" y="978" type="line"/>
    </contour>
  </outline>
</glyph>
<glyph name="zacute" format="1">
  <advance width="522"/>
  <unicode hex="017A"/>
  <outline>
    <contour>
      <point x="313" y="322" type="line"/>
      <point x="115" y="322" type="line"/>
      <point x="139" y="460" type="line"/>
      <point x="589" y="460" type="line"/>
      <point x="302" y="138" type="line"/>
      <point x="499" y="138" type="line"/>
      <point x="475" y="0" type="line"/>
      <point x="15" y="0" type="line"/>
    </contour>
    <contour>
      <point x="562.52" y="680" type="line"/>
      <point x="356.52" y="530" type="line"/>
      <point x="277.52" y="572" type="line"/>
      <point x="455.52" y="732" type="line"/>
    </contour>
  </outline>
</glyph>
<glyph name="Zdotaccent" format="1">
  <advance width="620"/>
  <unicode hex="017B"/>
  <outline>
    <contour>
      <point x="154" y="548" type="line"/>
      <point x="180" y="700" type="line"/>
      <point x="729" y="700" type="line"/>
      <point x="300" y="146" type="line"/>
      <point x="596" y="146" type="line"/>
      <point x="570" y="0" type="line"/>
      <point x="8" y="0" type="line"/>
      <point x="433" y="548" type="line"/>
    </contour>
    <contour>
      <point x="394.536" y="858" type="curve" smooth="yes"/>
      <point x="402.536" y="906"/>
      <point x="447.536" y="940"/>
      <point x="496.536" y="940" type="curve" smooth="yes"/>
      <point x="545.536" y="940"/>
      <point x="578.536" y="906"/>
      <point x="570.536" y="858" type="curve" smooth="yes"/>
      <point x="562.536" y="810"/>
      <point x="516.536" y="776"/>
      <point x="467.536" y="776" type="curve" smooth="yes"/>
      <point x="418.536" y="776"/>
      <point x="386.536" y="810"/>
    </contour>
  </outline>
</glyph>
<glyph name="zdotaccent" format="1">
  <advance width="522"/>
  <unicode hex="017C"/>
  <outline>
    <contour>
      <point x="313" y="322" type="line"/>
      <point x="115" y="322" type="line"/>
      <point x="139" y="460" type="line"/>
      <point x="589" y="460" type="line"/>
      <point x="302" y="138" type="line"/>
      <point x="499" y="138" type="line"/>
      <point x="475" y="0" type="line"/>
      <point x="15" y="0" type="line"/>
    </contour>
    <contour>
      <point x="302.979" y="622" type="curve" smooth="yes"/>
      <point x="310.979" y="670"/>
      <point x="355.979" y="704"/>
      <point x="404.979" y="704" type="curve" smooth="yes"/>
      <point x="453.979" y="704"/>
      <point x="486.979" y="670"/>
      <point x="478.979" y="622" type="curve" smooth="yes"/>
      <point x="470.979" y="574"/>
      <point x="424.979" y="540"/>
      <point x="375.979" y="540" type="curve" smooth="yes"/>
      <point x="326.979" y="540"/>
      <point x="294.979" y="574"/>
    </contour>
  </outline>
</glyph>
<glyph name="Zcaron" format="1">
  <advance width="620"/>
  <unicode hex="017D"/>
  <outline>
    <contour>
      <point x="154" y="548" type="line"/>
      <point x="180" y="700" type="line"/>
      <point x="729" y="700" type="line"/>
      <point x="302" y="146" type="line"/>
      <point x="596" y="146" type="line"/>
      <point x="570" y="0" type="line"/>
      <point x="8" y="0" type="line"/>
      <point x="432" y="548" type="line"/>
    </contour>
    <contour>
      <point x="490" y="902" type="line"/>
      <point x="596" y="988" type="line"/>
      <point x="691" y="916" type="line"/>
      <point x="468" y="776" type="line"/>
      <point x="296" y="916" type="line"/>
      <point x="414" y="988" type="line"/>
    </contour>
  </outline>
</glyph>
<glyph name="circumflex" format="1">
  <advance width="480"/>
  <unicode hex="02C6"/>
  <outline>
    <contour>
      <point x="351" y="630" type="line"/>
      <point x="245" y="544" type="line"/>
      <point x="150" y="615" type="line"/>
      <point x="373" y="755" type="line"/>
      <point x="546" y="615" type="line"/>
      <point x="427" y="544" type="line"/>
    </contour>
  </outline>
</glyph>
<glyph name="dotaccent" format="1">
  <advance width="300"/>
  <unicode hex="02D9"/>
  <outline>
    <contour>
      <point x="206" y="815" type="curve" smooth="yes"/>
      <point x="214" y="863"/>
      <point x="259" y="897"/>
      <point x="308" y="897" type="curve" smooth="yes"/>
      <point x="357" y="897"/>
      <point x="390" y="863"/>
      <point x="382" y="815" type="curve" smooth="yes"/>
      <point x="374" y="767"/>
      <point x="328" y="733"/>
      <point x="279" y="733" type="curve" smooth="yes"/>
      <point x="230" y="733"/>
      <point x="198" y="767"/>
    </contour>
  </outline>
</glyph>
<glyph name="ring" format="1">
  <advance width="328"/>
  <unicode hex="02DA"/>
  <outline>
    <contour>
      <point x="175" y="770" type="curve" smooth="yes"/>
      <point x="187" y="839"/>
      <point x="250" y="885"/>
      <point x="320" y="885" type="curve" smooth="yes"/>
      <point x="390" y="885"/>
      <point x="437" y="839"/>
      <point x="425" y="770" type="curve" smooth="yes"/>
      <point x="413" y="701"/>
      <point x="349" y="654"/>
      <point x="279" y="654" type="curve" smooth="yes"/>
      <point x="209" y="654"/>
      <point x="163" y="701"/>
    </contour>
    <contour>
      <point x="254" y="770" type="curve" smooth="yes"/>
      <point x="249" y="740"/>
      <point x="266" y="722"/>
      <point x="291" y="722" type="curve" smooth="yes"/>
      <point x="316" y="722"/>
      <point x="341" y="740"/>
      <point x="346" y="770" type="curve" smooth="yes"/>
      <point x="351" y="800"/>
      <point x="333" y="818"/>
      <point x="308" y="818" type="curve" smooth="yes"/>
      <point x="283" y="818"/>
      <point x="259" y="800"/>
    </contour>
  </outline>
</glyph>
<glyph name="ogonek" format="1">
  <advance width="260"/>
  <unicode hex="02DB"/>
  <outline>
    <contour>
      <point x="174" y="-111" type="curve"/>
      <point x="195" y="-180" type="line"/>
      <point x="176" y="-200"/>
      <point x="143" y="-220"/>
      <point x="87" y="-220" type="curve" smooth="yes"/>
      <point x="22" y="-220"/>
      <point x="-23" y="-186"/>
      <point x="-11" y="-120" type="curve"/>
      <point x="91" y="-94" type="line"/>
      <point x="87" y="-119"/>
      <point x="97" y="-131"/>
      <point x="121" y="-131" type="curve" smooth="yes"/>
      <point x="141" y="-131"/>
      <point x="158" y="-124"/>
    </contour>
    <contour>
      <point x="91" y="-94" type="curve"/>
      <point x="-11" y="-120" type="line"/>
      <point x="1" y="-54"/>
      <point x="76" y="-11"/>
      <point x="152" y="25" type="curve"/>
      <point x="189" y="0" type="line"/>
      <point x="132" y="-28"/>
      <point x="96" y="-64"/>
    </contour>
  </outline>
</glyph>
<glyph name="tilde" format="1">
  <advance width="530"/>
  <unicode hex="02DC"/>
  <outline>
    <contour>
      <point x="187" y="638" type="line"/>
      <point x="206" y="687"/>
      <point x="259" y="732"/>
      <point x="323" y="732" type="curve" smooth="yes"/>
      <point x="389" y="732"/>
      <point x="395" y="680"/>
      <point x="451" y="680" type="curve" smooth="yes"/>
      <point x="477" y="680"/>
      <point x="499" y="701"/>
      <point x="525" y="733" type="curve"/>
      <point x="584" y="658" type="line"/>
      <point x="561" y="621"/>
      <point x="497" y="573"/>
      <point x="435" y="573" type="curve" smooth="yes"/>
      <point x="380" y="573"/>
      <point x="354" y="626"/>
      <point x="304" y="626" type="curve" smooth="yes"/>
      <point x="266" y="626"/>
      <point x="251" y="591"/>
      <point x="248" y="576" type="curve"/>
    </contour>
  </outline>
</glyph>
<glyph name="pi" format="1">
  <advance width="602"/>
  <unicode hex="03C0"/>
  <outline>
    <contour>
      <point x="166" y="430" type="line"/>
      <point x="308" y="430" type="line"/>
      <point x="232" y="0" type="line"/>
      <point x="90" y="0" type="line"/>
    </contour>
    <contour>
      <point x="111" y="460" type="line"/>
      <point x="643" y="460" type="line"/>
      <point x="621" y="335" type="line"/>
      <point x="89" y="335" type="line"/>
    </contour>
    <contour>
      <point x="416" y="430" type="line"/>
      <point x="558" y="430" type="line"/>
      <point x="513" y="178" type="line" smooth="yes"/>
      <point x="501" y="112"/>
      <point x="525" y="108"/>
      <point x="555" y="108" type="curve"/>
      <point x="534" y="-9" type="line"/>
      <point x="406" y="-9"/>
      <point x="339" y="-1"/>
      <point x="361" y="121" type="curve" smooth="yes"/>
    </contour>
  </outline>
</glyph>
<glyph name="uni1E9E" format="1">
  <advance width="874"/>
  <unicode hex="1E9E"/>
  <outline>
    <contour>
      <point x="144" y="363" type="line"/>
      <point x="302" y="341" type="line"/>
      <point x="242" y="0" type="line"/>
      <point x="80" y="0" type="line"/>
    </contour>
    <contour>
      <point x="563" y="345" type="curve"/>
      <point x="575" y="414" type="line"/>
      <point x="654" y="414"/>
      <point x="705" y="449"/>
      <point x="715" y="504" type="curve" smooth="yes"/>
      <point x="724" y="553"/>
      <point x="680" y="585"/>
      <point x="580" y="585" type="curve" smooth="yes"/>
      <point x="455" y="585"/>
      <point x="333" y="516"/>
      <point x="302" y="341" type="curve"/>
      <point x="144" y="363" type="line"/>
      <point x="182" y="581"/>
      <point x="364" y="710"/>
      <point x="596" y="710" type="curve" smooth="yes"/>
      <point x="798" y="710"/>
      <point x="905" y="637"/>
      <point x="885" y="523" type="curve" smooth="yes"/>
      <point x="866" y="414"/>
      <point x="738" y="345"/>
    </contour>
    <contour>
      <point x="546" y="-16" type="curve" smooth="yes"/>
      <point x="366" y="-16"/>
      <point x="315" y="110"/>
      <point x="334" y="219" type="curve"/>
      <point x="477" y="219" type="line"/>
      <point x="466" y="159"/>
      <point x="502" y="115"/>
      <point x="569" y="115" type="curve" smooth="yes"/>
      <point x="638" y="115"/>
      <point x="678" y="147"/>
      <point x="688" y="206" type="curve" smooth="yes"/>
      <point x="700" y="275"/>
      <point x="646" y="308"/>
      <point x="556" y="308" type="curve"/>
      <point x="569" y="380" type="line"/>
      <point x="744" y="380"/>
      <point x="871" y="324"/>
      <point x="846" y="185" type="curve" smooth="yes"/>
      <point x="825" y="66"/>
      <point x="699" y="-16"/>
    </contour>
  </outline>
</glyph>
<glyph name="uni2010" format="1">
  <advance width="222"/>
  <unicode hex="2010"/>
  <outline>
    <contour>
      <point x="35" y="172" type="line"/>
      <point x="58" y="303" type="line"/>
      <point x="271" y="303" type="line"/>
      <point x="248" y="172" type="line"/>
    </contour>
  </outline>
</glyph>
<glyph name="emdash" format="1">
  <advance width="940"/>
  <unicode hex="2014"/>
  <outline>
    <contour>
      <point x="100" y="172" type="line"/>
      <point x="123" y="303" type="line"/>
      <point x="920" y="303" type="line"/>
      <point x="897" y="172" type="line"/>
    </contour>
  </outline>
</glyph>
<glyph name="quoteleft" format="1">
  <advance width="331"/>
  <unicode hex="2018"/>
  <outline>
    <contour>
      <point x="306" y="445" type="line"/>
      <point x="148" y="445" type="line"/>
      <point x="296" y="700" type="line"/>
      <point x="405" y="700" type="line"/>
    </contour>
  </outline>
</glyph>
<glyph name="quoteright" format="1">
  <advance width="331"/>
  <unicode hex="2019"/>
  <outline>
    <contour>
      <point x="227" y="700" type="line"/>
      <point x="385" y="700" type="line"/>
      <point x="236" y="445" type="line"/>
      <point x="128" y="445" type="line"/>
    </contour>
  </outline>
</glyph>
<glyph name="quotesinglbase" format="1">
  <advance width="331"/>
  <unicode hex="201A"/>
  <outline>
    <contour>
      <point x="128" y="80" type="line"/>
      <point x="286" y="80" type="line"/>
      <point x="137" y="-175" type="line"/>
      <point x="29" y="-175" type="line"/>
    </contour>
  </outline>
</glyph>
<glyph name="quotedblright" format="1">
  <advance width="562"/>
  <unicode hex="201D"/>
  <outline>
    <contour>
      <point x="227" y="700" type="line"/>
      <point x="385" y="700" type="line"/>
      <point x="236" y="445" type="line"/>
      <point x="128" y="445" type="line"/>
    </contour>
    <contour>
      <point x="458" y="700" type="line"/>
      <point x="615" y="700" type="line"/>
      <point x="468" y="445" type="line"/>
      <point x="359" y="445" type="line"/>
    </contour>
  </outline>
</glyph>
<glyph name="dagger" format="1">
  <advance width="632"/>
  <unicode hex="2020"/>
  <outline>
    <contour>
      <point x="185" y="540" type="line"/>
      <point x="637" y="540" type="line"/>
      <point x="615" y="415" type="line"/>
      <point x="163" y="415" type="line"/>
    </contour>
    <contour>
      <point x="368" y="700" type="line"/>
      <point x="511" y="700" type="line"/>
      <point x="362" y="-150" type="line"/>
      <point x="219" y="-150" type="line"/>
    </contour>
  </outline>
</glyph>
<glyph name="uni2074" format="1">
  <advance width="426"/>
  <unicode hex="2074"/>
  <outline>
    <contour>
      <point x="78" y="354" type="line"/>
      <point x="174" y="428" type="line"/>
      <point x="359" y="428" type="line" smooth="yes"/>
      <point x="372" y="441" type="line" smooth="yes"/>
      <point x="479" y="441" type="line"/>
      <point x="463" y="354" type="line"/>
    </contour>
    <contour>
      <point x="186" y="384" type="line"/>
      <point x="78" y="354" type="line"/>
      <point x="383" y="700" type="line"/>
      <point x="458" y="700" type="line"/>
      <point x="384" y="280" type="line"/>
      <point x="279" y="280" type="line"/>
      <point x="296" y="376" type="line" smooth="yes"/>
      <point x="308" y="382" type="line" smooth="yes"/>
      <point x="339" y="554" type="line"/>
    </contour>
  </outline>
</glyph>
<glyph name="uni2075" format="1">
  <advance width="387"/>
  <unicode hex="2075"/>
  <outline>
    <contour>
      <point x="434" y="412" type="curve" smooth="yes"/>
      <point x="417" y="314"/>
      <point x="321" y="270"/>
      <point x="240" y="270" type="curve" smooth="yes"/>
      <point x="163" y="270"/>
      <point x="115" y="295"/>
      <point x="81" y="324" type="curve"/>
      <point x="135" y="409" type="line"/>
      <point x="164" y="381"/>
      <point x="202" y="363"/>
      <point x="233" y="363" type="curve" smooth="yes"/>
      <point x="283" y="363"/>
      <point x="318" y="383"/>
      <point x="325" y="424" type="curve" smooth="yes"/>
      <point x="332" y="465"/>
      <point x="295" y="482"/>
      <point x="254" y="482" type="curve" smooth="yes"/>
      <point x="222" y="482"/>
      <point x="179" y="476"/>
      <point x="132" y="455" type="curve"/>
      <point x="211" y="506" type="line"/>
      <point x="249" y="540"/>
      <point x="289" y="550"/>
      <point x="331" y="550" type="curve" smooth="yes"/>
      <point x="397" y="550"/>
      <point x="449" y="498"/>
    </contour>
    <contour>
      <point x="292" y="610" type="line"/>
      <point x="239" y="506" type="line"/>
      <point x="132" y="455" type="line"/>
      <point x="233" y="698" type="line"/>
      <point x="475" y="698" type="line"/>
      <point x="460" y="610" type="line"/>
    </contour>
  </outline>
</glyph>
<glyph name="uni2076" format="1">
  <advance width="383"/>
  <unicode hex="2076"/>
  <outline>
    <contour>
      <point x="197" y="426" type="curve" smooth="yes"/>
      <point x="189" y="383"/>
      <point x="217" y="355"/>
      <point x="257" y="355" type="curve" smooth="yes"/>
      <point x="297" y="355"/>
      <point x="331" y="383"/>
      <point x="339" y="426" type="curve" smooth="yes"/>
      <point x="347" y="469"/>
      <point x="322" y="497"/>
      <point x="282" y="497" type="curve" smooth="yes"/>
      <point x="242" y="497"/>
      <point x="205" y="469"/>
    </contour>
    <contour>
      <point x="315" y="696" type="line"/>
      <point x="444" y="696" type="line"/>
      <point x="281" y="544" type="line"/>
      <point x="259" y="536" type="line"/>
      <point x="285" y="558"/>
      <point x="303" y="562"/>
      <point x="333" y="562" type="curve" smooth="yes"/>
      <point x="395" y="562"/>
      <point x="454" y="510"/>
      <point x="439" y="426" type="curve" smooth="yes"/>
      <point x="421" y="323"/>
      <point x="335" y="268"/>
      <point x="241" y="268" type="curve" smooth="yes"/>
      <point x="147" y="268"/>
      <point x="79" y="323"/>
      <point x="97" y="426" type="curve" smooth="yes"/>
      <point x="105" y="471"/>
      <point x="134" y="508"/>
      <point x="167" y="542" type="curve" smooth="yes"/>
    </contour>
  </outline>
</glyph>
<glyph name="uni2082" format="1">
  <advance width="411"/>
  <unicode hex="2082"/>
  <outline>
    <contour>
      <point x="28" y="2" type="line"/>
      <point x="251" y="196" type="line" smooth="yes"/>
      <point x="291" y="232"/>
      <point x="315" y="256"/>
      <point x="321" y="290" type="curve" smooth="yes"/>
      <point x="326" y="317"/>
      <point x="313" y="344"/>
      <point x="275" y="344" type="curve" smooth="yes"/>
      <point x="236" y="344"/>
      <point x="203" y="312"/>
      <point x="195" y="267" type="curve"/>
      <point x="95" y="267" type="line"/>
      <point x="111" y="356"/>
      <point x="182" y="431"/>
      <point x="292" y="431" type="curve" smooth="yes"/>
      <point x="396" y="431"/>
      <point x="438" y="361"/>
      <point x="426" y="295" type="curve" smooth="yes"/>
      <point x="418" y="250"/>
      <point x="387" y="213"/>
      <point x="346" y="182" type="curve" smooth="yes"/>
      <point x="233" y="95" type="line"/>
      <point x="401" y="95" type="line"/>
      <point x="384" y="2" type="line"/>
    </contour>
  </outline>
</glyph>
<glyph name="uni2083" format="1">
  <advance width="372"/>
  <unicode hex="2083"/>
  <outline>
    <contour>
      <point x="194" y="204" type="curve"/>
      <point x="202" y="249" type="line"/>
      <point x="248" y="249"/>
      <point x="285" y="276"/>
      <point x="290" y="306" type="curve" smooth="yes"/>
      <point x="294" y="331"/>
      <point x="281" y="347"/>
      <point x="249" y="347" type="curve" smooth="yes"/>
      <point x="217" y="347"/>
      <point x="191" y="327"/>
      <point x="186" y="297" type="curve"/>
      <point x="92" y="297" type="line"/>
      <point x="105" y="371"/>
      <point x="174" y="428"/>
      <point x="264" y="428" type="curve" smooth="yes"/>
      <point x="358" y="428"/>
      <point x="403" y="376"/>
      <point x="392" y="312" type="curve" smooth="yes"/>
      <point x="379" y="240"/>
      <point x="294" y="204"/>
    </contour>
    <contour>
      <point x="182" y="-10" type="curve" smooth="yes"/>
      <point x="80" y="-10"/>
      <point x="33" y="60"/>
      <point x="46" y="134" type="curve"/>
      <point x="146" y="134" type="line"/>
      <point x="139" y="92"/>
      <point x="166" y="72"/>
      <point x="201" y="72" type="curve" smooth="yes"/>
      <point x="236" y="72"/>
      <point x="264" y="88"/>
      <point x="270" y="124" type="curve" smooth="yes"/>
      <point x="276" y="159"/>
      <point x="252" y="184"/>
      <point x="190" y="184" type="curve"/>
      <point x="199" y="235" type="line"/>
      <point x="310" y="235"/>
      <point x="384" y="199"/>
      <point x="369" y="114" type="curve" smooth="yes"/>
      <point x="356" y="41"/>
      <point x="285" y="-10"/>
    </contour>
  </outline>
</glyph>
<glyph name="uni2085" format="1">
  <advance width="396"/>
  <unicode hex="2085"/>
  <outline>
    <contour>
      <point x="387" y="132" type="curve" smooth="yes"/>
      <point x="370" y="34"/>
      <point x="273" y="-10"/>
      <point x="192" y="-10" type="curve" smooth="yes"/>
      <point x="115" y="-10"/>
      <point x="69" y="15"/>
      <point x="35" y="44" type="curve"/>
      <point x="89" y="129" type="line"/>
      <point x="118" y="101"/>
      <point x="156" y="83"/>
      <point x="187" y="83" type="curve" smooth="yes"/>
      <point x="237" y="83"/>
      <point x="272" y="103"/>
      <point x="279" y="144" type="curve" smooth="yes"/>
      <point x="286" y="185"/>
      <point x="249" y="202"/>
      <point x="208" y="202" type="curve" smooth="yes"/>
      <point x="176" y="202"/>
      <point x="132" y="196"/>
      <point x="85" y="175" type="curve"/>
      <point x="165" y="226" type="line"/>
      <point x="203" y="260"/>
      <point x="242" y="270"/>
      <point x="284" y="270" type="curve" smooth="yes"/>
      <point x="350" y="270"/>
      <point x="402" y="218"/>
    </contour>
    <contour>
      <point x="245" y="330" type="line"/>
      <point x="192" y="226" type="line"/>
      <point x="85" y="175" type="line"/>
      <point x="186" y="418" type="line"/>
      <point x="430" y="418" type="line"/>
      <point x="414" y="330" type="line"/>
    </contour>
  </outline>
</glyph>
<glyph name="uni2087" format="1">
  <advance width="384"/>
  <unicode hex="2087"/>
  <outline>
    <contour>
      <point x="84" y="325" type="line"/>
      <point x="101" y="420" type="line"/>
      <point x="444" y="420" type="line"/>
      <point x="166" y="0" type="line"/>
      <point x="58" y="0" type="line"/>
      <point x="277" y="325" type="line"/>
    </contour>
  </outline>
</glyph>
<glyph name="uni2151" format="1">
  <advance width="884"/>
  <unicode hex="2151"/>
  <outline>
    <contour>
      <point x="722" y="700" type="line"/>
      <point x="843" y="700" type="line"/>
      <point x="200" y="0" type="line"/>
      <point x="79" y="0" type="line"/>
    </contour>
    <contour>
      <point x="125" y="572" type="line"/>
      <point x="141" y="661" type="line"/>
      <point x="350" y="702" type="line"/>
      <point x="274" y="274" type="line"/>
      <point x="176" y="274" type="line"/>
      <point x="233" y="598" type="line"/>
    </contour>
    <contour>
      <point x="808" y="274" type="curve" smooth="yes"/>
      <point x="816" y="317"/>
      <point x="791" y="345"/>
      <point x="751" y="345" type="curve" smooth="yes"/>
      <point x="711" y="345"/>
      <point x="676" y="317"/>
      <point x="668" y="274" type="curve" smooth="yes"/>
      <point x="660" y="231"/>
      <point x="686" y="203"/>
      <point x="726" y="203" type="curve" smooth="yes"/>
      <point x="766" y="203"/>
      <point x="800" y="231"/>
    </contour>
    <contour>
      <point x="693" y="4" type="line"/>
      <point x="563" y="4" type="line"/>
      <point x="726" y="156" type="line"/>
      <point x="748" y="164" type="line"/>
      <point x="722" y="142"/>
      <point x="703" y="138"/>
      <point x="673" y="138" type="curve" smooth="yes"/>
      <point x="611" y="138"/>
      <point x="553" y="190"/>
      <point x="568" y="274" type="curve" smooth="yes"/>
      <point x="586" y="377"/>
      <point x="672" y="432"/>
      <point x="766" y="432" type="curve" smooth="yes"/>
      <point x="860" y="432"/>
      <point x="928" y="377"/>
      <point x="910" y="274" type="curve" smooth="yes"/>
      <point x="902" y="229"/>
      <point x="873" y="192"/>
      <point x="840" y="158" type="curve" smooth="yes"/>
    </contour>
  </outline>
</glyph>
<glyph name="uni2152" format="1">
  <advance width="1211"/>
  <unicode hex="2152"/>
  <outline>
    <contour>
      <point x="722" y="700" type="line"/>
      <point x="843" y="700" type="line"/>
      <point x="200" y="0" type="line"/>
      <point x="79" y="0" type="line"/>
    </contour>
    <contour>
      <point x="125" y="572" type="line"/>
      <point x="141" y="661" type="line"/>
      <point x="350" y="702" type="line"/>
      <point x="274" y="274" type="line"/>
      <point x="176" y="274" type="line"/>
      <point x="233" y="598" type="line"/>
    </contour>
    <contour>
      <point x="603" y="299" type="line"/>
      <point x="618" y="388" type="line"/>
      <point x="828" y="429" type="line"/>
      <point x="752" y="1" type="line"/>
      <point x="654" y="1" type="line"/>
      <point x="711" y="326" type="line"/>
    </contour>
    <contour>
      <point x="963" y="210" type="curve" smooth="yes"/>
      <point x="949" y="131"/>
      <point x="972" y="80"/>
      <point x="1018" y="80" type="curve" smooth="yes"/>
      <point x="1064" y="80"/>
      <point x="1103" y="131"/>
      <point x="1117" y="210" type="curve" smooth="yes"/>
      <point x="1131" y="289"/>
      <point x="1110" y="340"/>
      <point x="1064" y="340" type="curve" smooth="yes"/>
      <point x="1018" y="340"/>
      <point x="977" y="289"/>
    </contour>
    <contour>
      <point x="865" y="210" type="curve" smooth="yes"/>
      <point x="889" y="346"/>
      <point x="976" y="428"/>
      <point x="1079" y="428" type="curve" smooth="yes"/>
      <point x="1186" y="428"/>
      <point x="1239" y="346"/>
      <point x="1215" y="210" type="curve" smooth="yes"/>
      <point x="1191" y="74"/>
      <point x="1110" y="-8"/>
      <point x="1003" y="-8" type="curve" smooth="yes"/>
      <point x="900" y="-8"/>
      <point x="841" y="74"/>
    </contour>
  </outline>
</glyph>
<glyph name="twothirds" format="1">
  <advance width="1007"/>
  <unicode hex="2154"/>
  <outline>
    <contour>
      <point x="868" y="700" type="line"/>
      <point x="989" y="700" type="line"/>
      <point x="346" y="0" type="line"/>
      <point x="225" y="0" type="line"/>
    </contour>
    <contour>
      <point x="80" y="282" type="line"/>
      <point x="302" y="476" type="line" smooth="yes"/>
      <point x="342" y="512"/>
      <point x="367" y="536"/>
      <point x="373" y="570" type="curve" smooth="yes"/>
      <point x="378" y="597"/>
      <point x="364" y="624"/>
      <point x="326" y="624" type="curve" smooth="yes"/>
      <point x="287" y="624"/>
      <point x="254" y="592"/>
      <point x="246" y="547" type="curve"/>
      <point x="146" y="547" type="line"/>
      <point x="162" y="636"/>
      <point x="233" y="711"/>
      <point x="343" y="711" type="curve" smooth="yes"/>
      <point x="447" y="711"/>
      <point x="489" y="641"/>
      <point x="477" y="575" type="curve" smooth="yes"/>
      <point x="469" y="530"/>
      <point x="438" y="493"/>
      <point x="397" y="462" type="curve" smooth="yes"/>
      <point x="284" y="375" type="line"/>
      <point x="452" y="375" type="line"/>
      <point x="436" y="282" type="line"/>
    </contour>
    <contour>
      <point x="828" y="204" type="curve"/>
      <point x="836" y="249" type="line"/>
      <point x="882" y="249"/>
      <point x="919" y="276"/>
      <point x="924" y="306" type="curve" smooth="yes"/>
      <point x="928" y="331"/>
      <point x="915" y="347"/>
      <point x="883" y="347" type="curve" smooth="yes"/>
      <point x="851" y="347"/>
      <point x="825" y="327"/>
      <point x="820" y="297" type="curve"/>
      <point x="726" y="297" type="line"/>
      <point x="739" y="371"/>
      <point x="807" y="428"/>
      <point x="897" y="428" type="curve" smooth="yes"/>
      <point x="991" y="428"/>
      <point x="1036" y="376"/>
      <point x="1025" y="312" type="curve" smooth="yes"/>
      <point x="1012" y="240"/>
      <point x="928" y="204"/>
    </contour>
    <contour>
      <point x="816" y="-10" type="curve" smooth="yes"/>
      <point x="714" y="-10"/>
      <point x="667" y="60"/>
      <point x="680" y="134" type="curve"/>
      <point x="780" y="134" type="line"/>
      <point x="773" y="92"/>
      <point x="800" y="72"/>
      <point x="835" y="72" type="curve" smooth="yes"/>
      <point x="870" y="72"/>
      <point x="898" y="88"/>
      <point x="904" y="124" type="curve" smooth="yes"/>
      <point x="910" y="159"/>
      <point x="886" y="184"/>
      <point x="824" y="184" type="curve"/>
      <point x="833" y="235" type="line"/>
      <point x="944" y="235"/>
      <point x="1017" y="199"/>
      <point x="1002" y="114" type="curve" smooth="yes"/>
      <point x="989" y="41"/>
      <point x="919" y="-10"/>
    </contour>
  </outline>
</glyph>
<glyph name="uni2155" format="1">
  <advance width="862"/>
  <unicode hex="2155"/>
  <outline>
    <contour>
      <point x="722" y="700" type="line"/>
      <point x="843" y="700" type="line"/>
      <point x="200" y="0" type="line"/>
      <point x="79" y="0" type="line"/>
    </contour>
    <contour>
      <point x="125" y="572" type="line"/>
      <point x="141" y="661" type="line"/>
      <point x="350" y="702" type="line"/>
      <point x="274" y="274" type="line"/>
      <point x="176" y="274" type="line"/>
      <point x="233" y="598" type="line"/>
    </contour>
    <contour>
      <point x="863" y="132" type="curve" smooth="yes"/>
      <point x="846" y="34"/>
      <point x="749" y="-10"/>
      <point x="668" y="-10" type="curve" smooth="yes"/>
      <point x="591" y="-10"/>
      <point x="544" y="15"/>
      <point x="510" y="44" type="curve"/>
      <point x="565" y="129" type="line"/>
      <point x="594" y="101"/>
      <point x="632" y="83"/>
      <point x="663" y="83" type="curve" smooth="yes"/>
      <point x="713" y="83"/>
      <point x="747" y="103"/>
      <point x="754" y="144" type="curve" smooth="yes"/>
      <point x="761" y="185"/>
      <point x="725" y="202"/>
      <point x="684" y="202" type="curve" smooth="yes"/>
      <point x="652" y="202"/>
      <point x="608" y="196"/>
      <point x="561" y="175" type="curve"/>
      <point x="640" y="226" type="line"/>
      <point x="678" y="260"/>
      <point x="718" y="270"/>
      <point x="760" y="270" type="curve" smooth="yes"/>
      <point x="826" y="270"/>
      <point x="878" y="218"/>
    </contour>
    <contour>
      <point x="721" y="330" type="line"/>
      <point x="668" y="226" type="line"/>
      <point x="561" y="175" type="line"/>
      <point x="662" y="418" type="line"/>
      <point x="905" y="418" type="line"/>
      <point x="889" y="330" type="line"/>
    </contour>
  </outline>
</glyph>
<glyph name="uni2157" format="1">
  <advance width="931"/>
  <unicode hex="2157"/>
  <outline>
    <contour>
      <point x="797" y="700" type="line"/>
      <point x="918" y="700" type="line"/>
      <point x="275" y="0" type="line"/>
      <point x="154" y="0" type="line"/>
    </contour>
    <contour>
      <point x="244" y="484" type="curve"/>
      <point x="252" y="529" type="line"/>
      <point x="298" y="529"/>
      <point x="334" y="556"/>
      <point x="339" y="586" type="curve" smooth="yes"/>
      <point x="343" y="611"/>
      <point x="332" y="627"/>
      <point x="300" y="627" type="curve" smooth="yes"/>
      <point x="268" y="627"/>
      <point x="241" y="607"/>
      <point x="236" y="577" type="curve"/>
      <point x="142" y="577" type="line"/>
      <point x="155" y="651"/>
      <point x="225" y="708"/>
      <point x="315" y="708" type="curve" smooth="yes"/>
      <point x="409" y="708"/>
      <point x="453" y="656"/>
      <point x="442" y="592" type="curve" smooth="yes"/>
      <point x="429" y="520"/>
      <point x="344" y="484"/>
    </contour>
    <contour>
      <point x="232" y="270" type="curve" smooth="yes"/>
      <point x="130" y="270"/>
      <point x="82" y="340"/>
      <point x="95" y="414" type="curve"/>
      <point x="196" y="414" type="line"/>
      <point x="189" y="372"/>
      <point x="215" y="352"/>
      <point x="250" y="352" type="curve" smooth="yes"/>
      <point x="285" y="352"/>
      <point x="313" y="368"/>
      <point x="319" y="404" type="curve" smooth="yes"/>
      <point x="325" y="439"/>
      <point x="303" y="464"/>
      <point x="241" y="464" type="curve"/>
      <point x="250" y="515" type="line"/>
      <point x="361" y="515"/>
      <point x="434" y="479"/>
      <point x="419" y="394" type="curve" smooth="yes"/>
      <point x="406" y="321"/>
      <point x="335" y="270"/>
    </contour>
    <contour>
      <point x="919" y="132" type="curve" smooth="yes"/>
      <point x="902" y="34"/>
      <point x="805" y="-10"/>
      <point x="724" y="-10" type="curve" smooth="yes"/>
      <point x="647" y="-10"/>
      <point x="600" y="15"/>
      <point x="566" y="44" type="curve"/>
      <point x="621" y="129" type="line"/>
      <point x="650" y="101"/>
      <point x="688" y="83"/>
      <point x="719" y="83" type="curve" smooth="yes"/>
      <point x="769" y="83"/>
      <point x="803" y="103"/>
      <point x="810" y="144" type="curve" smooth="yes"/>
      <point x="817" y="185"/>
      <point x="781" y="202"/>
      <point x="740" y="202" type="curve" smooth="yes"/>
      <point x="708" y="202"/>
      <point x="664" y="196"/>
      <point x="617" y="175" type="curve"/>
      <point x="696" y="226" type="line"/>
      <point x="734" y="260"/>
      <point x="774" y="270"/>
      <point x="816" y="270" type="curve" smooth="yes"/>
      <point x="882" y="270"/>
      <point x="934" y="218"/>
    </contour>
    <contour>
      <point x="776" y="330" type="line"/>
      <point x="724" y="226" type="line"/>
      <point x="617" y="175" type="line"/>
      <point x="718" y="418" type="line"/>
      <point x="961" y="418" type="line"/>
      <point x="945" y="330" type="line"/>
    </contour>
  </outline>
</glyph>
<glyph name="uni2159" format="1">
  <advance width="871"/>
  <unicode hex="2159"/>
  <outline>
    <contour>
      <point x="741" y="700" type="line"/>
      <point x="863" y="700" type="line"/>
      <point x="220" y="0" type="line"/>
      <point x="98" y="0" type="line"/>
    </contour>
    <contour>
      <point x="125" y="572" type="line"/>
      <point x="141" y="661" type="line"/>
      <point x="350" y="702" type="line"/>
      <point x="274" y="274" type="line"/>
      <point x="176" y="274" type="line"/>
      <point x="233" y="598" type="line"/>
    </contour>
    <contour>
      <point x="628" y="146" type="curve" smooth="yes"/>
      <point x="620" y="103"/>
      <point x="645" y="75"/>
      <point x="685" y="75" type="curve" smooth="yes"/>
      <point x="725" y="75"/>
      <point x="761" y="103"/>
      <point x="769" y="146" type="curve" smooth="yes"/>
      <point x="777" y="189"/>
      <point x="750" y="217"/>
      <point x="710" y="217" type="curve" smooth="yes"/>
      <point x="670" y="217"/>
      <point x="636" y="189"/>
    </contour>
    <contour>
      <point x="745" y="416" type="line"/>
      <point x="873" y="416" type="line"/>
      <point x="711" y="264" type="line"/>
      <point x="689" y="256" type="line"/>
      <point x="715" y="278"/>
      <point x="734" y="282"/>
      <point x="764" y="282" type="curve" smooth="yes"/>
      <point x="826" y="282"/>
      <point x="885" y="230"/>
      <point x="870" y="146" type="curve" smooth="yes"/>
      <point x="852" y="43"/>
      <point x="764" y="-12"/>
      <point x="670" y="-12" type="curve" smooth="yes"/>
      <point x="576" y="-12"/>
      <point x="510" y="43"/>
      <point x="528" y="146" type="curve" smooth="yes"/>
      <point x="536" y="191"/>
      <point x="563" y="228"/>
      <point x="596" y="262" type="curve" smooth="yes"/>
    </contour>
  </outline>
</glyph>
<glyph name="fiveeighths" format="1">
  <advance width="969"/>
  <unicode hex="215D"/>
  <outline>
    <contour>
      <point x="819" y="700" type="line"/>
      <point x="941" y="700" type="line"/>
      <point x="298" y="0" type="line"/>
      <point x="176" y="0" type="line"/>
    </contour>
    <contour>
      <point x="434" y="412" type="curve" smooth="yes"/>
      <point x="417" y="314"/>
      <point x="321" y="270"/>
      <point x="240" y="270" type="curve" smooth="yes"/>
      <point x="163" y="270"/>
      <point x="115" y="295"/>
      <point x="81" y="324" type="curve"/>
      <point x="135" y="409" type="line"/>
      <point x="164" y="381"/>
      <point x="202" y="363"/>
      <point x="233" y="363" type="curve" smooth="yes"/>
      <point x="283" y="363"/>
      <point x="318" y="383"/>
      <point x="325" y="424" type="curve" smooth="yes"/>
      <point x="332" y="465"/>
      <point x="295" y="482"/>
      <point x="254" y="482" type="curve" smooth="yes"/>
      <point x="222" y="482"/>
      <point x="179" y="476"/>
      <point x="132" y="455" type="curve"/>
      <point x="211" y="506" type="line"/>
      <point x="249" y="540"/>
      <point x="289" y="550"/>
      <point x="331" y="550" type="curve" smooth="yes"/>
      <point x="397" y="550"/>
      <point x="449" y="498"/>
    </contour>
    <contour>
      <point x="292" y="610" type="line"/>
      <point x="239" y="506" type="line"/>
      <point x="132" y="455" type="line"/>
      <point x="233" y="698" type="line"/>
      <point x="475" y="698" type="line"/>
      <point x="460" y="610" type="line"/>
    </contour>
    <contour>
      <point x="696" y="319" type="curve" smooth="yes"/>
      <point x="708" y="389"/>
      <point x="781" y="430"/>
      <point x="858" y="430" type="curve" smooth="yes"/>
      <point x="935" y="430"/>
      <point x="992" y="389"/>
      <point x="980" y="319" type="curve" smooth="yes"/>
      <point x="967" y="243"/>
      <point x="887" y="206"/>
      <point x="818" y="206" type="curve" smooth="yes"/>
      <point x="749" y="206"/>
      <point x="683" y="243"/>
    </contour>
    <contour>
      <point x="790" y="310" type="curve" smooth="yes"/>
      <point x="785" y="281"/>
      <point x="802" y="261"/>
      <point x="828" y="261" type="curve" smooth="yes"/>
      <point x="854" y="261"/>
      <point x="878" y="281"/>
      <point x="883" y="310" type="curve" smooth="yes"/>
      <point x="888" y="339"/>
      <point x="873" y="356"/>
      <point x="845" y="356" type="curve" smooth="yes"/>
      <point x="817" y="356"/>
      <point x="795" y="339"/>
    </contour>
    <contour>
      <point x="644" y="114" type="curve" smooth="yes"/>
      <point x="660" y="202"/>
      <point x="755" y="238"/>
      <point x="824" y="238" type="curve" smooth="yes"/>
      <point x="893" y="238"/>
      <point x="975" y="202"/>
      <point x="959" y="114" type="curve" smooth="yes"/>
      <point x="946" y="38"/>
      <point x="862" y="-10"/>
      <point x="780" y="-10" type="curve" smooth="yes"/>
      <point x="698" y="-10"/>
      <point x="631" y="38"/>
    </contour>
    <contour>
      <point x="749" y="130" type="curve" smooth="yes"/>
      <point x="742" y="93"/>
      <point x="764" y="72"/>
      <point x="795" y="72" type="curve" smooth="yes"/>
      <point x="826" y="72"/>
      <point x="854" y="93"/>
      <point x="861" y="130" type="curve" smooth="yes"/>
      <point x="866" y="161"/>
      <point x="845" y="184"/>
      <point x="814" y="184" type="curve" smooth="yes"/>
      <point x="783" y="184"/>
      <point x="754" y="161"/>
    </contour>
  </outline>
</glyph>
<glyph name="seveneighths" format="1">
  <advance width="859"/>
  <unicode hex="215E"/>
  <outline>
    <contour>
      <point x="703" y="700" type="line"/>
      <point x="825" y="700" type="line"/>
      <point x="182" y="0" type="line"/>
      <point x="60" y="0" type="line"/>
    </contour>
    <contour>
      <point x="130" y="605" type="line"/>
      <point x="146" y="700" type="line"/>
      <point x="489" y="700" type="line"/>
      <point x="212" y="280" type="line"/>
      <point x="103" y="280" type="line"/>
      <point x="324" y="605" type="line"/>
    </contour>
    <contour>
      <point x="586" y="319" type="curve" smooth="yes"/>
      <point x="598" y="389"/>
      <point x="671" y="430"/>
      <point x="748" y="430" type="curve" smooth="yes"/>
      <point x="825" y="430"/>
      <point x="882" y="389"/>
      <point x="870" y="319" type="curve" smooth="yes"/>
      <point x="857" y="243"/>
      <point x="777" y="206"/>
      <point x="708" y="206" type="curve" smooth="yes"/>
      <point x="639" y="206"/>
      <point x="573" y="243"/>
    </contour>
    <contour>
      <point x="680" y="310" type="curve" smooth="yes"/>
      <point x="675" y="281"/>
      <point x="692" y="261"/>
      <point x="718" y="261" type="curve" smooth="yes"/>
      <point x="744" y="261"/>
      <point x="768" y="281"/>
      <point x="773" y="310" type="curve" smooth="yes"/>
      <point x="778" y="339"/>
      <point x="763" y="356"/>
      <point x="735" y="356" type="curve" smooth="yes"/>
      <point x="707" y="356"/>
      <point x="685" y="339"/>
    </contour>
    <contour>
      <point x="534" y="114" type="curve" smooth="yes"/>
      <point x="550" y="202"/>
      <point x="645" y="238"/>
      <point x="714" y="238" type="curve" smooth="yes"/>
      <point x="783" y="238"/>
      <point x="865" y="202"/>
      <point x="849" y="114" type="curve" smooth="yes"/>
      <point x="836" y="38"/>
      <point x="752" y="-10"/>
      <point x="670" y="-10" type="curve" smooth="yes"/>
      <point x="588" y="-10"/>
      <point x="521" y="38"/>
    </contour>
    <contour>
      <point x="639" y="130" type="curve" smooth="yes"/>
      <point x="632" y="93"/>
      <point x="654" y="72"/>
      <point x="685" y="72" type="curve" smooth="yes"/>
      <point x="716" y="72"/>
      <point x="744" y="93"/>
      <point x="751" y="130" type="curve" smooth="yes"/>
      <point x="756" y="161"/>
      <point x="735" y="184"/>
      <point x="704" y="184" type="curve" smooth="yes"/>
      <point x="673" y="184"/>
      <point x="644" y="161"/>
    </contour>
  </outline>
</glyph>
<glyph name="minus" format="1">
  <advance width="593"/>
  <unicode hex="2212"/>
  <outline>
    <contour>
      <point x="88" y="172" type="line"/>
      <point x="111" y="303" type="line"/>
      <point x="589" y="303" type="line"/>
      <point x="566" y="172" type="line"/>
    </contour>
  </outline>
</glyph>
<glyph name="uniFF10" format="1">
  <advance width="630"/>
  <unicode hex="FF10"/>
  <outline>
    <contour>
      <point x="248" y="350" type="curve" smooth="yes"/>
      <point x="225" y="218"/>
      <point x="260" y="132"/>
      <point x="337" y="132" type="curve" smooth="yes"/>
      <point x="414" y="132"/>
      <point x="481" y="218"/>
      <point x="504" y="350" type="curve" smooth="yes"/>
      <point x="527" y="482"/>
      <point x="491" y="568"/>
      <point x="414" y="568" type="curve" smooth="yes"/>
      <point x="337" y="568"/>
      <point x="271" y="482"/>
    </contour>
    <contour>
      <point x="85" y="350" type="curve" smooth="yes"/>
      <point x="125" y="578"/>
      <point x="267" y="713"/>
      <point x="440" y="713" type="curve" smooth="yes"/>
      <point x="619" y="713"/>
      <point x="708" y="578"/>
      <point x="668" y="350" type="curve" smooth="yes"/>
      <point x="628" y="122"/>
      <point x="491" y="-13"/>
      <point x="312" y="-13" type="curve" smooth="yes"/>
      <point x="139" y="-13"/>
      <point x="45" y="122"/>
    </contour>
  </outline>
</glyph>
<glyph name="uniFF11" format="1">
  <advance width="630"/>
  <unicode hex="FF11"/>
  <outline>
    <contour>
      <point x="196" y="498" type="line"/>
      <point x="222" y="645" type="line"/>
      <point x="572" y="713" type="line"/>
      <point x="446" y="0" type="line"/>
      <point x="282" y="0" type="line"/>
      <point x="377" y="540" type="line"/>
    </contour>
  </outline>
</glyph>
